<svg xmlns="http://www.w3.org/2000/svg" width="25" height="24" viewBox="0 0 120 120" fill="none">
    <path
        d="M105 70V95C105 97.6522 103.946 100.196 102.071 102.071C100.196 103.946 97.6522 105 95 105H25C22.3478 105 19.8043 103.946 17.9289 102.071C16.0536 100.196 15 97.6522 15 95V25C15 22.3478 16.0536 19.8043 17.9289 17.9289C19.8043 16.0536 22.3478 15 25 15H50V25H25V95H95V70H105Z"
        fill="currentColor" />
    <path d="M105 35H85V15H75V35H55V45H75V65H85V45H105V35Z" fill="currentColor" />
</svg>