<svg xmlns="http://www.w3.org/2000/svg" xmlns:xlink="http://www.w3.org/1999/xlink" width="48" height="48" viewBox="0 0 48 48" fill="none">
<circle cx="24.000041961669922" cy="25.892009735107422" r="4.355998992919922"   fill="#4080FF" >
</circle>
<path d="M13.1639 34.976C13.3297 35.1418 13.4994 35.3036 13.6731 35.4612C13.8468 35.6186 14.0242 35.7718 14.2054 35.9206C14.3866 36.0696 14.5714 36.2138 14.7597 36.3536C14.948 36.4934 15.1396 36.6284 15.3345 36.7588C15.5294 36.889 15.7274 37.0146 15.9285 37.1352C16.1296 37.2558 16.3335 37.3714 16.5403 37.482C16.747 37.5926 16.9564 37.6982 17.1683 37.7984C17.3803 37.8988 17.5945 37.9938 17.8112 38.0836C18.0278 38.1734 18.2465 38.258 18.4672 38.337C18.688 38.416 18.9105 38.4896 19.1349 38.5578C19.3593 38.626 19.5852 38.6886 19.8126 38.7456C20.04 38.8026 20.2687 38.854 20.4987 38.8998C20.7287 38.9456 20.9597 38.9858 21.1915 39.0204C21.4235 39.0548 21.6562 39.0836 21.8895 39.1066C22.1229 39.1296 22.3567 39.147 22.5909 39.1586C22.8251 39.1702 23.0594 39.176 23.2939 39.176L23.5459 39.176C21.8439 30.926 15.4219 25.878 6.10994 25.878C16.7579 25.878 23.6319 19.278 23.9839 8.832C23.8293 8.83229 23.6747 8.83637 23.5203 8.84424C23.3659 8.85211 23.2119 8.86375 23.0581 8.87918C22.9043 8.89461 22.7509 8.91379 22.5979 8.93672C22.4451 8.95965 22.2929 8.98633 22.1413 9.01674C21.9897 9.04714 21.8389 9.08123 21.6889 9.11902C21.5391 9.15681 21.3902 9.19825 21.2423 9.24334C21.0945 9.28843 20.9478 9.33712 20.8023 9.3894C20.6569 9.44168 20.5127 9.49749 20.3699 9.55684C20.2271 9.61619 20.0859 9.679 19.9462 9.74526C19.8066 9.81153 19.6686 9.88118 19.5323 9.9542C19.3961 10.0272 19.2617 10.1036 19.1291 10.1832C18.9966 10.2628 18.8661 10.3456 18.7376 10.4316C18.6092 10.5176 18.4829 10.6067 18.3588 10.699C18.2347 10.7912 18.1129 10.8863 17.9935 10.9845C17.8741 11.0827 17.7571 11.1837 17.6426 11.2876C17.5282 11.3915 17.4163 11.4982 17.307 11.6076C17.1978 11.717 17.0913 11.829 16.9875 11.9436C16.8838 12.0582 16.7829 12.1753 16.6849 12.2948C16.5868 12.4144 16.4918 12.5363 16.3998 12.6605C16.3077 12.7847 16.2188 12.9111 16.1329 13.0397C16.047 13.1683 15.9644 13.2989 15.8849 13.4315C15.8055 13.5641 15.7293 13.6986 15.6565 13.835C15.5836 13.9713 15.5142 14.1094 15.4481 14.2491C15.382 14.3889 15.3194 14.5302 15.2602 14.673C15.201 14.8159 15.1454 14.9601 15.0933 15.1056C15.0412 15.2512 14.9927 15.3979 14.9478 15.5459C14.9029 15.6938 14.8616 15.8428 14.824 15.9927C14.7864 16.1427 14.7525 16.2935 14.7223 16.4451C14.6921 16.5967 14.6656 16.749 14.6429 16.9019C14.6202 17.0548 14.6012 17.2082 14.5859 17.3621C14.5707 17.5159 14.5593 17.6701 14.5516 17.8245C14.5439 17.9789 14.54 18.1334 14.5399 18.288L14.5399 20C14.4757 19.9357 14.4099 19.873 14.3426 19.812C14.2752 19.7509 14.2064 19.6915 14.1362 19.6339C14.0659 19.5762 13.9943 19.5203 13.9213 19.4661C13.8483 19.4119 13.774 19.3596 13.6985 19.3091C13.6229 19.2586 13.5461 19.2099 13.4682 19.1632C13.3902 19.1164 13.3112 19.0716 13.231 19.0288C13.1509 18.9859 13.0697 18.945 12.9875 18.9062C12.9054 18.8673 12.8223 18.8304 12.7383 18.7956C12.6544 18.7608 12.5696 18.7281 12.484 18.6975C12.3984 18.6669 12.3122 18.6384 12.2252 18.612C12.1382 18.5856 12.0506 18.5613 11.9625 18.5392C11.8743 18.5171 11.7856 18.4972 11.6965 18.4795C11.6073 18.4617 11.5178 18.4462 11.4279 18.4329C11.338 18.4195 11.2478 18.4084 11.1573 18.3995C11.0669 18.3906 10.9762 18.3839 10.8855 18.3794C10.7947 18.3749 10.7038 18.3727 10.6129 18.3727C10.522 18.3727 10.4312 18.3749 10.3404 18.3794C10.2496 18.3839 10.159 18.3906 10.0685 18.3995C9.97808 18.4084 9.8879 18.4195 9.798 18.4329C9.70808 18.4462 9.61854 18.4617 9.5294 18.4795C9.44026 18.4972 9.3516 18.5171 9.26342 18.5392C9.17524 18.5613 9.08768 18.5856 9.0007 18.612C8.91372 18.6384 8.82744 18.6669 8.74186 18.6975C8.65628 18.7281 8.57152 18.7608 8.48754 18.7956C8.40356 18.8304 8.3205 18.8673 8.23834 18.9062C8.15616 18.945 8.075 18.9859 7.99486 19.0288C7.9147 19.0716 7.83564 19.1164 7.75768 19.1632C7.67974 19.2099 7.60298 19.2586 7.5274 19.3091C7.45184 19.3596 7.37756 19.4119 7.30456 19.4661C7.23156 19.5203 7.15994 19.5762 7.0897 19.6339C7.01944 19.6915 6.95066 19.7509 6.88332 19.812C6.81598 19.873 6.75019 19.9357 6.68594 20C6.6163 20.0695 6.54841 20.1406 6.48228 20.2134C6.41614 20.2862 6.35184 20.3606 6.28936 20.4366C6.22688 20.5125 6.1663 20.5899 6.10764 20.6688C6.04897 20.7477 5.99228 20.8281 5.93756 20.9098C5.88284 20.9915 5.83016 21.0746 5.77952 21.159C5.72889 21.2433 5.68036 21.3287 5.63392 21.4154C5.58749 21.5021 5.54322 21.5899 5.5011 21.6788C5.45899 21.7677 5.41908 21.8576 5.38138 21.9484C5.34368 22.0392 5.30824 22.1309 5.27506 22.2236C5.24188 22.3161 5.211 22.4095 5.1824 22.5036C5.1538 22.5977 5.12753 22.6925 5.1036 22.7878C5.07966 22.8833 5.05809 22.9792 5.03888 23.0756C5.01965 23.172 5.00281 23.2689 4.98836 23.3662C4.9739 23.4635 4.96185 23.5611 4.9522 23.659C4.94254 23.7569 4.9353 23.8549 4.93046 23.9532C4.92563 24.0513 4.92322 24.1496 4.92322 24.248C4.92322 24.3464 4.92563 24.4447 4.93046 24.5428C4.9353 24.6411 4.94254 24.7391 4.9522 24.837C4.96185 24.9349 4.9739 25.0325 4.98836 25.1298C5.00281 25.2271 5.01965 25.324 5.03888 25.4204C5.05809 25.5168 5.07966 25.6127 5.1036 25.7082C5.12753 25.8035 5.1538 25.8983 5.1824 25.9924C5.211 26.0865 5.24188 26.1799 5.27506 26.2724C5.30824 26.3651 5.34368 26.4568 5.38138 26.5476C5.41908 26.6384 5.45899 26.7283 5.5011 26.8172C5.54322 26.9061 5.58749 26.9939 5.63392 27.0806C5.68036 27.1673 5.72889 27.2527 5.77952 27.337C5.83016 27.4214 5.88284 27.5045 5.93756 27.5862C5.99228 27.6679 6.04897 27.7483 6.10764 27.8272C6.1663 27.9061 6.22688 27.9835 6.28936 28.0594C6.35184 28.1354 6.41614 28.2098 6.48228 28.2826C6.54841 28.3554 6.6163 28.4265 6.68594 28.496L13.1639 34.976Z"   fill="#FFFFFF" >
</path>
<path d="M41.89 25.874C32.578 25.874 26.156 30.922 24.454 39.172L24.706 39.172C24.9405 39.1718 25.1749 39.166 25.409 39.1546C25.6433 39.143 25.8771 39.1256 26.1104 39.1026C26.3437 39.0796 26.5764 39.0508 26.8084 39.0164C27.0403 38.9818 27.2712 38.9416 27.5012 38.8958C27.7312 38.85 27.9599 38.7986 28.1874 38.7416C28.4147 38.6846 28.6406 38.622 28.865 38.5538C29.0894 38.4856 29.312 38.412 29.5328 38.333C29.7535 38.254 29.9721 38.1694 30.1888 38.0796C30.4053 37.9898 30.6196 37.8948 30.8316 37.7944C31.0436 37.6942 31.2529 37.5886 31.4596 37.478C31.6664 37.3674 31.8703 37.2518 32.0714 37.1312C32.2725 37.0106 32.4705 36.885 32.6654 36.7548C32.8603 36.6244 33.0519 36.4894 33.2402 36.3496C33.4286 36.2098 33.6134 36.0656 33.7946 35.9166C33.9758 35.7678 34.1532 35.6146 34.3268 35.4572C34.5005 35.2996 34.6702 35.1378 34.836 34.972L41.314 28.494C41.3836 28.4245 41.4515 28.3534 41.5176 28.2806C41.5837 28.2078 41.6481 28.1334 41.7106 28.0574C41.773 27.9815 41.8336 27.9041 41.8924 27.8252C41.951 27.7463 42.0077 27.6659 42.0624 27.5842C42.1171 27.5025 42.1697 27.4194 42.2204 27.335C42.271 27.2507 42.3196 27.1653 42.366 27.0786C42.4124 26.9919 42.4566 26.9041 42.4988 26.8152C42.5409 26.7263 42.5809 26.6364 42.6186 26.5456C42.6562 26.4548 42.6916 26.3631 42.7248 26.2704C42.758 26.1779 42.7889 26.0845 42.8176 25.9904C42.8461 25.8963 42.8724 25.8015 42.8964 25.7062C42.9202 25.6107 42.9418 25.5148 42.961 25.4184C42.9803 25.322 42.9972 25.2251 43.0116 25.1278C43.026 25.0305 43.0381 24.9329 43.0478 24.835C43.0574 24.7371 43.0646 24.6391 43.0694 24.5408C43.0743 24.4427 43.0768 24.3444 43.0768 24.246C43.0768 24.1476 43.0743 24.0493 43.0694 23.9512C43.0646 23.8529 43.0574 23.7549 43.0478 23.657C43.0381 23.5591 43.026 23.4615 43.0116 23.3642C42.9971 23.2669 42.9802 23.17 42.961 23.0736C42.9418 22.9772 42.9202 22.8813 42.8964 22.7858C42.8724 22.6905 42.8461 22.5957 42.8176 22.5016C42.7889 22.4075 42.758 22.3141 42.7248 22.2216C42.6916 22.1289 42.6562 22.0372 42.6186 21.9464C42.5809 21.8556 42.5409 21.7657 42.4988 21.6768C42.4566 21.5879 42.4124 21.5001 42.366 21.4134C42.3196 21.3267 42.271 21.2413 42.2204 21.157C42.1697 21.0726 42.1171 20.9895 42.0624 20.9078C42.0077 20.8261 41.951 20.7457 41.8924 20.6668C41.8336 20.5879 41.773 20.5105 41.7106 20.4346C41.6481 20.3586 41.5837 20.2842 41.5176 20.2114C41.4515 20.1386 41.3836 20.0675 41.314 19.998C41.2497 19.9337 41.1839 19.871 41.1166 19.81C41.0493 19.7489 40.9805 19.6895 40.9102 19.6319C40.8399 19.5742 40.7683 19.5183 40.6954 19.4641C40.6223 19.4099 40.548 19.3576 40.4726 19.3071C40.397 19.2566 40.3202 19.2079 40.2422 19.1612C40.1643 19.1144 40.0853 19.0696 40.005 19.0268C39.9249 18.9839 39.8437 18.943 39.7616 18.9042C39.6795 18.8653 39.5964 18.8284 39.5124 18.7936C39.4284 18.7588 39.3436 18.7261 39.258 18.6955C39.1725 18.6649 39.0863 18.6363 38.9992 18.61C38.9123 18.5836 38.8247 18.5593 38.7366 18.5372C38.6483 18.5151 38.5597 18.4952 38.4706 18.4775C38.3814 18.4597 38.2919 18.4442 38.202 18.4308C38.112 18.4175 38.0218 18.4064 37.9314 18.3975C37.841 18.3886 37.7504 18.3819 37.6596 18.3774C37.5688 18.3729 37.4779 18.3707 37.387 18.3707C37.2961 18.3707 37.2052 18.3729 37.1144 18.3774C37.0236 18.3819 36.933 18.3886 36.8426 18.3975C36.7522 18.4064 36.662 18.4175 36.572 18.4309C36.4821 18.4442 36.3926 18.4597 36.3034 18.4775C36.2143 18.4952 36.1257 18.5151 36.0374 18.5372C35.9492 18.5593 35.8617 18.5836 35.7748 18.61C35.6877 18.6363 35.6015 18.6649 35.516 18.6955C35.4304 18.7261 35.3456 18.7588 35.2616 18.7936C35.1776 18.8284 35.0945 18.8653 35.0124 18.9042C34.9303 18.943 34.8491 18.9839 34.769 19.0268C34.6887 19.0696 34.6096 19.1144 34.5318 19.1612C34.4538 19.2079 34.377 19.2566 34.3014 19.3071C34.2259 19.3576 34.1516 19.4099 34.0786 19.4641C34.0057 19.5183 33.9341 19.5742 33.8638 19.6319C33.7935 19.6895 33.7247 19.7489 33.6574 19.81C33.59 19.871 33.5243 19.9337 33.46 19.998L33.46 18.288C33.46 18.1334 33.4562 17.9788 33.4486 17.8243C33.441 17.6699 33.4296 17.5157 33.4144 17.3618C33.3992 17.2079 33.3803 17.0545 33.3576 16.9015C33.3349 16.7485 33.3085 16.5962 33.2782 16.4445C33.2481 16.2929 33.2143 16.142 33.1768 15.992C33.1392 15.842 33.0979 15.693 33.053 15.545C33.0082 15.397 32.9597 15.2502 32.9076 15.1046C32.8556 14.959 32.8 14.8147 32.7408 14.6718C32.6817 14.5289 32.6192 14.3876 32.5532 14.2477C32.4871 14.1079 32.4176 13.9698 32.3448 13.8334C32.2719 13.697 32.1957 13.5624 32.1164 13.4297C32.0369 13.297 31.9543 13.1664 31.8684 13.0378C31.7825 12.9091 31.6936 12.7827 31.6016 12.6584C31.5096 12.5341 31.4146 12.4122 31.3166 12.2926C31.2185 12.173 31.1175 12.0558 31.0138 11.9412C30.9101 11.8265 30.8036 11.7144 30.6944 11.605C30.5851 11.4956 30.4731 11.3889 30.3586 11.2849C30.2442 11.1809 30.1273 11.0799 30.0078 10.9816C29.8883 10.8834 29.7665 10.7882 29.6424 10.6959C29.5183 10.6037 29.392 10.5145 29.2636 10.4285C29.1351 10.3424 29.0045 10.2595 28.872 10.1799C28.7395 10.1002 28.6051 10.0239 28.4688 9.9508C28.3324 9.87774 28.1944 9.80805 28.0548 9.74174C27.9151 9.67544 27.7738 9.6126 27.631 9.55322C27.4882 9.49385 27.344 9.43801 27.1984 9.3857C27.0529 9.3334 26.9063 9.28468 26.7584 9.23956C26.6104 9.19446 26.4615 9.153 26.3116 9.11518C26.1616 9.07737 26.0108 9.04326 25.8592 9.01284C25.7076 8.98242 25.5553 8.95573 25.4024 8.93278C25.2495 8.90982 25.0961 8.89063 24.9422 8.8752C24.7882 8.85978 24.634 8.84812 24.4796 8.84024C24.3252 8.83238 24.1707 8.8283 24.016 8.828C24.368 19.272 31.242 25.874 41.89 25.874Z"   fill="#FFFFFF" >
</path>
</svg>
