<svg xmlns="http://www.w3.org/2000/svg" xmlns:xlink="http://www.w3.org/1999/xlink" width="11.67529296875" height="13.361083984375" viewBox="0 0 11.67529296875 13.361083984375" fill="none">
<path d="M5.83762 0L11.4666 3.24991L9.72371 4.25616L9.67001 4.22521C9.72436 4.06251 9.66847 3.90387 9.55959 3.77858L9.32783 3.51203L9.06122 3.28026C8.80917 3.06113 8.44763 3.11888 8.34553 3.46046L5.83762 2.01255L3.20759 3.53101C3.04309 3.39013 2.86617 3.27966 2.78589 3.23919C2.8163 3.40364 2.84725 3.56218 2.86442 3.72914L1.95158 4.25616L0.208687 3.24991L5.83762 0ZM11.6753 3.61134L11.6753 10.1112L6.04636 13.361L6.04636 11.3485L9.9324 9.10486L9.9324 4.61765L11.6753 3.61134ZM5.62898 13.361L0 10.1112L0 3.61134L1.74289 4.61765L1.74289 6.71683C1.56237 6.77201 1.38009 6.84283 1.19924 6.92945C1.38934 7.00568 1.57199 7.09089 1.74289 7.1902L1.74289 9.10486L2.48828 9.53525C2.46378 9.81941 2.45104 10.1066 2.43994 10.3999C2.86092 10.3973 3.38401 10.3836 3.7724 10.2766L5.62898 11.3485L5.62898 13.361ZM2.79623 10.0436C2.82991 9.37163 2.84129 9.07747 3.14951 8.66211C3.44772 8.98357 3.78148 9.23918 4.15866 9.40291C4.24145 9.43884 4.32611 9.47023 4.41262 9.49686C3.8547 9.99529 3.58723 10.004 2.79623 10.0436ZM5.8153 5.54454C5.71665 5.6094 5.62433 5.68515 5.54208 5.76882C5.40908 5.90422 5.30419 6.05877 5.2448 6.21879L5.61072 5.86474C5.68624 5.79173 5.76942 5.64336 5.8153 5.54454ZM6.66515 4.75409C6.51946 4.77755 6.39855 4.81228 6.29147 4.85587C6.40697 4.88994 6.5106 4.92122 6.66427 4.96726C6.6646 4.89617 6.66487 4.82513 6.66515 4.75409ZM7.49711 4.36226L7.60331 4.40715L7.68622 4.32567C7.57039 4.27098 7.44827 4.22258 7.32014 4.18091L7.49711 4.36226ZM7.09023 4.11512C6.8886 4.06492 6.67379 4.03041 6.44629 4.01324C6.5835 3.90638 6.88401 3.84962 7.09373 3.80155C6.75248 3.66346 6.15655 3.64498 5.66869 3.80062C5.64162 3.88298 5.58758 4.01215 5.52185 4.07143C5.43512 4.14963 5.35434 4.21876 5.2827 4.28553C5.83505 4.04058 6.42693 4.02308 7.00683 4.18408L7.09023 4.11512ZM3.25888 4.08772C3.32522 4.51965 3.14962 5.21494 3.11615 5.30348C3.08262 5.39197 3.03844 5.49374 2.8928 5.85785C2.74712 6.22196 2.75876 6.92223 2.85671 7.143C2.61926 6.97593 2.32662 6.88138 2.04761 6.98222C2.51694 7.2217 2.78305 7.75299 3.09471 8.16079C3.81051 9.09754 4.69262 9.53525 5.82504 9.22009C6.38455 9.06439 7.19791 7.97863 6.71836 7.56076C5.88815 8.02938 4.99499 7.42929 4.95988 6.51547C4.93434 5.84986 5.65912 5.1742 6.36262 5.08774C6.07556 5.00177 5.97745 4.9572 5.60858 5.01594C5.94043 4.77263 6.19057 4.58024 6.75795 4.52386C6.79279 4.45867 6.84912 4.41394 6.9049 4.36783C6.19478 4.18392 5.15703 4.20793 4.25644 5.40066C4.52462 4.80894 4.71816 4.5704 5.38836 3.91715C5.56516 3.74483 5.52983 3.49218 5.50774 3.31745C5.31918 3.62715 4.97432 3.79569 4.50428 4.00334C4.14783 4.16079 3.82462 4.42154 3.58662 4.75086C3.52696 4.49575 3.46768 4.26606 3.25888 4.08772ZM6.65361 8.96574C6.73843 8.93074 6.82226 8.8935 6.90561 8.85385C6.66772 9.24027 6.09295 9.67104 5.05433 9.80732C6.1647 10.0996 7.22531 9.93365 7.89337 9.24082C7.83983 9.33482 7.78411 9.43474 7.72286 9.52377C8.54229 9.05029 9.60886 7.65833 8.84472 6.31701C8.97378 6.42201 9.08179 6.54959 9.17328 6.72344C9.17929 6.08573 8.98576 5.50697 8.61727 5.04864L8.40142 5.26837L8.80058 5.65797L8.50276 6.01803C8.3569 6.1944 8.26126 6.19472 8.08057 6.19533L7.82813 6.19631C7.82337 6.28075 7.78755 6.35922 7.72521 6.41654L7.72127 6.60116C7.7175 6.77753 7.61655 6.95083 7.44116 7.00361L7.44122 7.00388C7.2299 7.06677 7.0572 7.19512 6.90605 7.35131C7.0123 7.44499 7.08028 7.5594 7.1161 7.68802C7.17407 7.89633 7.13896 8.13028 7.0438 8.35964C6.95286 8.57882 6.81133 8.78899 6.65361 8.96574ZM5.24409 6.56064L5.77905 6.04313C5.88804 5.93764 6.04707 5.67426 6.1052 5.47887C6.11756 5.43725 6.17066 5.40044 6.24416 5.39886L6.59881 5.39126L6.61833 5.3299C6.62905 5.29621 6.64344 5.29129 6.67362 5.29112L6.902 5.29003C6.91365 5.28997 6.92267 5.2798 6.92273 5.2687L6.92475 4.76645C6.92513 4.66818 6.92333 4.61776 7.00093 4.55355L7.16193 4.4205L7.56727 4.83579L8.60333 3.81806L8.66813 3.56464C8.69345 3.46565 8.76334 3.46899 8.84018 3.53576L9.08835 3.75151L9.30409 3.99968C9.37081 4.07651 9.3742 4.1464 9.27522 4.17172L9.02179 4.23653L8.00401 5.27258L8.41936 5.67793L8.28625 5.83887C8.2221 5.91653 8.17162 5.91472 8.0734 5.91511L7.57115 5.91713C7.56005 5.91713 7.54988 5.92621 7.54983 5.93786L7.54873 6.16623C7.54857 6.19642 7.54365 6.2108 7.50996 6.22152L7.4486 6.2411L7.441 6.59569C7.43941 6.66919 7.40255 6.72229 7.36099 6.73465C7.16559 6.79279 6.90222 6.95182 6.79672 7.06081L6.51552 7.35153C6.19396 7.51111 5.8689 7.49082 5.58058 7.23094C5.41494 7.08159 5.29637 6.87214 5.25558 6.64147C5.2506 6.61347 5.24677 6.58651 5.24409 6.56064Z"   fill="#FFFFFF" fill-opacity="0.5">
</path>
</svg>
