<svg xmlns="http://www.w3.org/2000/svg" xmlns:xlink="http://www.w3.org/1999/xlink" width="48" height="48" viewBox="0 0 48 48" fill="none">
<path d="M26.094 37.022C25.7274 37.0224 25.3614 37.0104 24.9958 36.986C24.63 36.9617 24.2656 36.9251 23.9024 36.876C23.5392 36.8271 23.178 36.7659 22.819 36.6926C22.4598 36.6193 22.1035 36.5339 21.7502 36.4366C21.397 36.3393 21.0474 36.2301 20.7014 36.109C20.3554 35.9881 20.0139 35.8555 19.6769 35.7114C19.3399 35.5674 19.0081 35.4122 18.6816 35.2458C18.3551 35.0794 18.0345 34.9021 17.72 34.714L17.72 41.056L40.086 41.056L40.086 29.16C39.995 29.3092 39.9018 29.4569 39.806 29.603C39.7104 29.7493 39.6124 29.8939 39.512 30.0368C39.4118 30.1799 39.3092 30.3213 39.2044 30.4612C39.0996 30.6009 38.9926 30.739 38.8834 30.8754C38.7742 31.0117 38.6628 31.1462 38.5492 31.279C38.4358 31.4118 38.3202 31.5427 38.2024 31.6718C38.0846 31.801 37.965 31.9282 37.8432 32.0534C37.7214 32.1787 37.5975 32.3021 37.4718 32.4234C37.346 32.5447 37.2184 32.664 37.089 32.7812C36.9594 32.8984 36.828 33.0135 36.6948 33.1266C36.5616 33.2397 36.4266 33.3505 36.29 33.4592C36.1532 33.568 36.0147 33.6745 35.8746 33.7788C35.7343 33.8831 35.5925 33.9851 35.4492 34.0848C35.3057 34.1847 35.1607 34.2821 35.0142 34.3772C34.8676 34.4724 34.7196 34.5652 34.5702 34.6556C34.4207 34.746 34.2698 34.834 34.1174 34.9196C33.9651 35.0052 33.8115 35.0883 33.6566 35.169C33.5015 35.2497 33.3452 35.3278 33.1878 35.4034C33.0303 35.4791 32.8717 35.5523 32.712 35.623C32.5521 35.6935 32.3912 35.7615 32.2292 35.827C32.0673 35.8925 31.9044 35.9553 31.7404 36.0156C31.5764 36.0759 31.4114 36.1335 31.2456 36.1884C31.0797 36.2435 30.913 36.2958 30.7456 36.3454C30.5781 36.3951 30.4098 36.4421 30.2408 36.4864C30.0718 36.5307 29.9022 36.5723 29.7318 36.6112C29.5615 36.65 29.3906 36.6861 29.2192 36.7196C29.0476 36.7529 28.8756 36.7835 28.7032 36.8114C28.5306 36.8394 28.3578 36.8645 28.1846 36.8868C28.0112 36.9092 27.8376 36.9289 27.6638 36.9458C27.4899 36.9626 27.3158 36.9766 27.1414 36.9878C26.9671 36.9991 26.7926 37.0077 26.618 37.0134C26.4433 37.019 26.2686 37.0219 26.094 37.022Z"   fill="#4080FF" >
</path>
<path d="M17.5739 34.628C17.2034 34.4009 16.8424 34.1597 16.4909 33.9042C16.1393 33.6487 15.7984 33.3799 15.468 33.0976C15.1377 32.8152 14.8189 32.5203 14.5117 32.213C14.2046 31.9055 13.91 31.5865 13.6279 31.256L7.91394 36.97L7.91394 41.056L11.3139 41.056L17.5739 34.628Z"   fill="#FFFFFF" >
</path>
<path d="M34.9999 9.834C34.8449 9.70624 34.6871 9.58188 34.5265 9.46092C34.3659 9.33996 34.2029 9.2225 34.0375 9.10856C33.8719 8.99462 33.7039 8.88428 33.5337 8.77758C33.3633 8.67086 33.1907 8.56786 33.0161 8.46858C32.8413 8.3693 32.6645 8.27383 32.4857 8.18216C32.3069 8.0905 32.1261 8.00272 31.9435 7.91882C31.7609 7.83494 31.5765 7.75503 31.3905 7.67908C31.2044 7.60314 31.0168 7.53123 30.8277 7.46337C30.6385 7.3955 30.448 7.33174 30.2561 7.27209C30.0641 7.21242 29.871 7.15691 29.6767 7.10557C29.4825 7.05422 29.2871 7.00708 29.0907 6.96415C28.8945 6.92121 28.6973 6.88253 28.4993 6.84809C28.3013 6.81365 28.1027 6.78348 27.9034 6.75759C27.704 6.73171 27.5043 6.71012 27.3041 6.69283C27.1039 6.67555 26.9034 6.66258 26.7025 6.65393C26.5018 6.64527 26.3009 6.64095 26.1 6.64095C25.899 6.64095 25.6982 6.64527 25.4974 6.65393C25.2966 6.66258 25.096 6.67555 24.8958 6.69283C24.6956 6.71012 24.4959 6.73171 24.2966 6.75759C24.0972 6.78348 23.8986 6.81365 23.7006 6.84809C23.5026 6.88253 23.3054 6.92121 23.1092 6.96415C22.9128 7.00708 22.7174 7.05422 22.5232 7.10557C22.3289 7.15691 22.1358 7.21242 21.9438 7.27209C21.7519 7.33174 21.5614 7.3955 21.3722 7.46337C21.1831 7.53123 20.9955 7.60314 20.8094 7.67908C20.6234 7.75503 20.439 7.83494 20.2564 7.91882C20.0737 8.00272 19.893 8.0905 19.7141 8.18216C19.5353 8.27383 19.3585 8.3693 19.1838 8.46858C19.009 8.56786 18.8365 8.67086 18.6662 8.77758C18.4959 8.88428 18.328 8.99462 18.1625 9.10856C17.9969 9.2225 17.8339 9.33996 17.6734 9.46092C17.5129 9.58188 17.3551 9.70624 17.2 9.834C16.854 10.118 16.522 10.42 16.2 10.736C15.5647 11.3694 14.9954 12.0574 14.492 12.8C14.24 13.1773 14.0093 13.564 13.8 13.96C13.694 14.16 13.6 14.36 13.492 14.56C13.3785 14.7956 13.2718 15.0342 13.1717 15.2758C13.0717 15.5174 12.9786 15.7616 12.8923 16.0084C12.806 16.2552 12.7267 16.5043 12.6545 16.7556C12.5822 17.0069 12.5171 17.26 12.4591 17.515C12.4011 17.77 12.3503 18.0264 12.3067 18.2842C12.2632 18.542 12.2269 18.8009 12.1979 19.0607C12.1689 19.3206 12.1472 19.5811 12.1329 19.8421C12.1186 20.1032 12.1116 20.3645 12.112 20.626C12.1117 21.1039 12.1357 21.5805 12.184 22.056C12.208 22.292 12.238 22.524 12.274 22.756C12.413 23.6725 12.6423 24.5659 12.962 25.436C13.04 25.65 13.124 25.862 13.212 26.072C13.4771 26.6943 13.7858 27.2943 14.138 27.8719C14.3726 28.2587 14.624 28.6313 14.892 28.9899C15.034 29.1899 15.182 29.3659 15.334 29.5479C15.534 29.7979 15.76 30.0399 15.984 30.2739C16.1386 30.4367 16.2966 30.5947 16.458 30.7479C16.7 30.9779 16.946 31.2019 17.204 31.4139C17.376 31.5559 17.55 31.6939 17.73 31.8279C17.91 31.9619 18.094 32.0939 18.28 32.2279C18.612 32.4519 18.956 32.6599 19.306 32.8539C19.35 32.8779 19.392 32.9059 19.434 32.9279C19.7354 33.0911 20.0424 33.2431 20.355 33.3837C20.6676 33.5243 20.985 33.6531 21.3072 33.7703C21.6293 33.8875 21.9554 33.9925 22.2854 34.0855C22.6152 34.1787 22.9481 34.2595 23.284 34.3279C23.9774 34.4681 24.6774 34.5567 25.384 34.5939C25.6213 34.6059 25.8613 34.6119 26.104 34.6119C26.3466 34.6119 26.5866 34.6059 26.8239 34.5939C27.5305 34.5567 28.2305 34.4679 28.9239 34.3279C29.2597 34.2595 29.5924 34.1789 29.9221 34.0857C30.2519 33.9927 30.5777 33.8877 30.8997 33.7705C31.2217 33.6533 31.539 33.5245 31.8515 33.3837C32.1639 33.2433 32.4707 33.0913 32.7719 32.9279C33.1685 32.7143 33.5531 32.4811 33.9259 32.2279C34.2979 31.9759 34.6573 31.7093 35.0039 31.4279C35.2599 31.2159 35.5079 30.9919 35.7479 30.7619C35.9099 30.6079 36.0679 30.4499 36.2239 30.2879C36.6133 29.8815 36.9773 29.4535 37.3159 29.0039C37.5825 28.6439 37.8339 28.2713 38.0699 27.8859C38.4221 27.3083 38.7309 26.7083 38.9959 26.086C39.0839 25.886 39.1679 25.664 39.2459 25.45C39.3099 25.278 39.3659 25.104 39.4219 24.93C39.5913 24.4047 39.7301 23.8713 39.8379 23.33C39.8739 23.1487 39.9059 22.9647 39.9339 22.778C39.9699 22.546 39.9979 22.314 40.0219 22.078C40.0709 21.6025 40.0955 21.1259 40.0959 20.648C40.0963 20.3865 40.0893 20.1252 40.0749 19.8641C40.0607 19.6031 40.0389 19.3426 40.0099 19.0827C39.9809 18.8229 39.9447 18.564 39.9011 18.3062C39.8575 18.0484 39.8067 17.792 39.7487 17.537C39.6907 17.282 39.6255 17.0289 39.5533 16.7776C39.4811 16.5263 39.4017 16.2772 39.3155 16.0304C39.2293 15.7836 39.1361 15.5393 39.0361 15.2978C38.9361 15.0562 38.8293 14.8176 38.7159 14.582C38.6179 14.382 38.5159 14.182 38.4059 13.982C38.1919 13.582 37.9559 13.202 37.7059 12.83C37.2023 12.0851 36.6329 11.3945 35.9979 10.758C35.6699 10.42 35.3399 10.118 34.9999 9.834ZM36.5199 24.92C36.4671 25.0481 36.4119 25.1752 36.3545 25.3012C36.2971 25.4273 36.2375 25.5523 36.1753 25.6762C36.1133 25.8001 36.0489 25.9227 35.9823 26.0442C35.9157 26.1657 35.8469 26.2859 35.7759 26.405C35.7049 26.5239 35.6317 26.6415 35.5563 26.7577C35.4809 26.8741 35.4035 26.9889 35.3239 27.1021C35.2443 27.2157 35.1627 27.3275 35.0791 27.4379C34.9953 27.5483 34.9097 27.6571 34.8219 27.7643C34.7341 27.8715 34.6445 27.9771 34.5527 28.0811C34.4611 28.1851 34.3677 28.2873 34.2723 28.3877C34.1769 28.4881 34.0797 28.5869 33.9807 28.6837C33.8817 28.7807 33.7809 28.8757 33.6783 28.9687C33.5757 29.0619 33.4715 29.1533 33.3657 29.2425C33.2597 29.3319 33.1521 29.4193 33.0431 29.5045C32.9339 29.5901 32.8233 29.6733 32.7111 29.7545C32.5989 29.8359 32.4851 29.9151 32.3701 29.9921C32.2551 30.0693 32.1385 30.1441 32.0207 30.2169C31.9027 30.2897 31.7835 30.3603 31.6631 30.4287C31.5426 30.4971 31.4209 30.5633 31.2979 30.6271C31.175 30.6911 31.0509 30.7529 30.9257 30.8121C30.8005 30.8715 30.6743 30.9285 30.5471 30.9831C30.4198 31.0379 30.2915 31.0901 30.1623 31.1401C30.033 31.1901 29.9029 31.2375 29.7719 31.2827C29.641 31.3279 29.5092 31.3705 29.3765 31.4109C29.244 31.4513 29.1108 31.4891 28.9769 31.5243C28.8429 31.5597 28.7083 31.5927 28.5731 31.6231C28.4379 31.6535 28.3023 31.6815 28.1661 31.7067C28.03 31.7323 27.8934 31.7551 27.7563 31.7755C27.6193 31.7959 27.4819 31.8137 27.3442 31.8289C27.2064 31.8443 27.0685 31.8571 26.9304 31.8673C26.7922 31.8775 26.6539 31.8851 26.5154 31.8903C26.3769 31.8955 26.2385 31.8979 26.1 31.8979L26.1 20.63L37.3679 20.63C37.3677 20.9972 37.3497 21.3635 37.3135 21.7288C37.2775 22.0941 37.2237 22.4569 37.1519 22.817C37.0801 23.1771 36.9911 23.5329 36.8845 23.8842C36.7779 24.2355 36.6545 24.5808 36.5139 24.92L36.5199 24.92Z"   fill="#FFFFFF" >
</path>
</svg>
