<svg width="40" height="40" viewBox="0 0 40 40" xmlns="http://www.w3.org/2000/svg">
    <g clip-path="url(#clip0_621_2215)">
        <path
            d="M25.6199 8.72L22.0799 12.28C20.7231 11.9159 19.2944 11.9155 17.9374 12.2789C16.5804 12.6422 15.343 13.3565 14.3497 14.3498C13.3564 15.3431 12.6421 16.5805 12.2788 17.9375C11.9154 19.2945 11.9158 20.7232 12.2799 22.08L6.7599 27.58C4.1199 25.58 1.9199 22.98 0.399902 20C2.68174 15.5257 6.42587 11.9668 11.0102 9.91482C15.5944 7.86281 20.7428 7.44118 25.5999 8.72H25.6199ZM33.2199 12.42C35.8799 14.42 38.0799 17.02 39.6199 20C37.3365 24.4826 33.5859 28.0472 28.993 30.0998C24.4002 32.1524 19.2426 32.5689 14.3799 31.28L17.9199 27.72C19.2767 28.0841 20.7054 28.0845 22.0624 27.7211C23.4194 27.3578 24.6568 26.6435 25.6501 25.6502C26.6434 24.6569 27.3577 23.4195 27.721 22.0625C28.0844 20.7055 28.084 19.2768 27.7199 17.92L33.2399 12.42H33.2199ZM32.7199 4.44L35.5599 7.28L7.2799 35.56L4.4399 32.72L32.7199 4.44Z"
            fill="currentColor" />
    </g>
    <defs>
        <clipPath id="clip0_621_2215">
            <rect width="40" height="40" fill="currentColor" />
        </clipPath>
    </defs>
</svg>