<svg xmlns="http://www.w3.org/2000/svg" xmlns:xlink="http://www.w3.org/1999/xlink" width="12.885498046875" height="12.419342041015625" viewBox="0 0 12.885498046875 12.419342041015625" fill="none">
<path d="M2.87775 11.8054L6.44275 9.92941L10.0077 11.8034C10.0098 11.8045 10.0119 11.8055 10.014 11.8064C10.0161 11.8073 10.0183 11.8082 10.0204 11.809C10.0226 11.8097 10.0248 11.8104 10.027 11.8111C10.0293 11.8117 10.0315 11.8122 10.0338 11.8127C10.036 11.8132 10.0383 11.8136 10.0406 11.8139C10.0429 11.8142 10.0452 11.8144 10.0475 11.8146C10.0498 11.8147 10.0521 11.8148 10.0544 11.8148C10.0567 11.8148 10.059 11.8147 10.0613 11.8145C10.0636 11.8144 10.0659 11.8141 10.0682 11.8138C10.0705 11.8135 10.0728 11.8131 10.075 11.8126C10.0773 11.8121 10.0795 11.8115 10.0818 11.8109C10.084 11.8102 10.0862 11.8095 10.0884 11.8087C10.0905 11.808 10.0927 11.8071 10.0948 11.8062C10.0969 11.8052 10.099 11.8042 10.101 11.8031C10.103 11.802 10.105 11.8009 10.107 11.7997C10.109 11.7984 10.1109 11.7972 10.1127 11.7958C10.1146 11.7944 10.1165 11.793 10.1182 11.7915C10.12 11.79 10.1217 11.7885 10.1234 11.7869C10.125 11.7853 10.1267 11.7837 10.1282 11.7819C10.1298 11.7802 10.1312 11.7785 10.1327 11.7767C10.1341 11.7748 10.1355 11.773 10.1368 11.7711C10.1381 11.7692 10.1393 11.7672 10.1405 11.7652C10.1416 11.7632 10.1427 11.7612 10.1437 11.7591C10.1448 11.757 10.1457 11.7549 10.1466 11.7528C10.1475 11.7506 10.1483 11.7485 10.149 11.7463C10.1497 11.7441 10.1504 11.7419 10.151 11.7396C10.1515 11.7374 10.152 11.7352 10.1525 11.7329C10.1529 11.7306 10.1532 11.7283 10.1535 11.726C10.1537 11.7237 10.1539 11.7214 10.154 11.7191C10.1541 11.7168 10.1541 11.7145 10.1541 11.7122C10.154 11.7099 10.1539 11.7076 10.1537 11.7053C10.1534 11.703 10.1531 11.7007 10.1527 11.6984L9.47275 7.72841L12.3557 4.91741C12.3574 4.9158 12.359 4.91412 12.3605 4.91239C12.362 4.91066 12.3635 4.90889 12.3649 4.90706C12.3663 4.90523 12.3676 4.90336 12.3689 4.90144C12.3702 4.89952 12.3714 4.89756 12.3725 4.89555C12.3736 4.89355 12.3747 4.89152 12.3757 4.88944C12.3767 4.88736 12.3776 4.88525 12.3785 4.88311C12.3793 4.88097 12.3801 4.8788 12.3808 4.87661C12.3815 4.87441 12.3821 4.87219 12.3826 4.86995C12.3832 4.86772 12.3837 4.86547 12.384 4.8632C12.3845 4.86094 12.3848 4.85866 12.385 4.85636C12.3852 4.85406 12.3854 4.85177 12.3855 4.84947C12.3855 4.84717 12.3855 4.84486 12.3854 4.84256C12.3854 4.84027 12.3852 4.83797 12.3849 4.83569C12.3847 4.83339 12.3844 4.83111 12.384 4.82884C12.3836 4.82658 12.3831 4.82433 12.3825 4.82209C12.382 4.81986 12.3814 4.81764 12.3806 4.81545C12.3799 4.81327 12.3792 4.81111 12.3783 4.80897C12.3774 4.80683 12.3765 4.80472 12.3755 4.80266C12.3745 4.80058 12.3734 4.79855 12.3723 4.79655C12.3711 4.79455 12.3699 4.79259 12.3686 4.79067C12.3674 4.78875 12.366 4.78689 12.3646 4.78506C12.3632 4.78325 12.3617 4.78148 12.3602 4.77977C12.3587 4.77803 12.3571 4.77637 12.3554 4.77477C12.3538 4.77316 12.3521 4.77159 12.3503 4.77011C12.3486 4.76862 12.3468 4.76719 12.3449 4.76581C12.3431 4.76445 12.3412 4.76314 12.3392 4.76191C12.3373 4.76067 12.3353 4.7595 12.3333 4.75839C12.3313 4.7573 12.3292 4.75627 12.3271 4.75531C12.325 4.75436 12.3229 4.75347 12.3207 4.75266C12.3186 4.75184 12.3164 4.75111 12.3142 4.75045C12.312 4.74978 12.3098 4.7492 12.3075 4.74869C12.3053 4.74819 12.303 4.74777 12.3007 4.74741L8.31475 4.16741L6.53275 0.556406C6.53173 0.554302 6.53064 0.552239 6.52948 0.550219C6.52833 0.548198 6.52709 0.546219 6.5258 0.544281C6.5245 0.542344 6.52312 0.540453 6.52169 0.538609C6.52027 0.536766 6.51876 0.534974 6.5172 0.533234C6.51564 0.531495 6.51403 0.529812 6.51236 0.528188C6.51069 0.526563 6.50895 0.525 6.50716 0.5235C6.50537 0.522 6.50355 0.520562 6.50166 0.519188C6.49978 0.517812 6.49784 0.516505 6.49586 0.515265C6.49389 0.514026 6.49186 0.512859 6.4898 0.511765C6.48775 0.510661 6.48566 0.509635 6.48352 0.508687C6.48139 0.507729 6.47923 0.506854 6.47703 0.506063C6.47484 0.50526 6.47262 0.504536 6.47037 0.503891C6.46814 0.503245 6.46587 0.502677 6.46359 0.502187C6.46131 0.501708 6.45901 0.501302 6.4567 0.500969C6.45439 0.500646 6.45208 0.500401 6.44975 0.500234C6.44742 0.500078 6.44509 0.5 6.44275 0.5C6.44042 0.5 6.43809 0.500078 6.43575 0.500234C6.43344 0.500401 6.43111 0.500646 6.4288 0.500969C6.42648 0.501302 6.42419 0.501708 6.42191 0.502187C6.41962 0.502677 6.41737 0.503245 6.41512 0.503891C6.41287 0.504536 6.41066 0.50526 6.40847 0.506063C6.40628 0.506854 6.40412 0.507729 6.40198 0.508687C6.39986 0.509635 6.39777 0.510656 6.3957 0.51175C6.39364 0.512854 6.39162 0.514026 6.38964 0.515265C6.38767 0.516505 6.38573 0.517812 6.38384 0.519188C6.38197 0.520562 6.38012 0.522 6.37834 0.5235C6.37656 0.525 6.37483 0.526563 6.37316 0.528188C6.37148 0.529812 6.36986 0.531495 6.3683 0.533234C6.36675 0.534974 6.36525 0.536766 6.36381 0.538609C6.36237 0.540453 6.36102 0.542344 6.35972 0.544281C6.35842 0.546219 6.35719 0.548198 6.35602 0.550219C6.35486 0.552239 6.35378 0.554302 6.35275 0.556406L4.57075 4.16841L0.584754 4.74841C0.582483 4.74877 0.580223 4.74919 0.577973 4.74969C0.575723 4.7502 0.573499 4.75078 0.571301 4.75145C0.569093 4.75211 0.56691 4.75284 0.564754 4.75366C0.562598 4.75447 0.560473 4.75536 0.558379 4.75631C0.556285 4.75727 0.554228 4.7583 0.552207 4.75939C0.550186 4.7605 0.548202 4.76167 0.546254 4.76291C0.544317 4.76414 0.542421 4.76545 0.540566 4.76681C0.538712 4.76817 0.53691 4.76961 0.53516 4.77111C0.53341 4.77259 0.531712 4.77416 0.530067 4.77577C0.528421 4.77737 0.526832 4.77903 0.525301 4.78077C0.52377 4.78248 0.522301 4.78425 0.520895 4.78606C0.519488 4.78789 0.518145 4.78975 0.516863 4.79167C0.515582 4.79359 0.514369 4.79555 0.513223 4.79755C0.512077 4.79955 0.511004 4.80158 0.510004 4.80366C0.508994 4.80572 0.508061 4.80783 0.507207 4.80997C0.506353 4.81211 0.505572 4.81427 0.504864 4.81645C0.504155 4.81864 0.50352 4.82086 0.502957 4.82309C0.502405 4.82533 0.501926 4.82758 0.50152 4.82984C0.501124 4.83211 0.500806 4.83439 0.500566 4.83669C0.500317 4.83897 0.50015 4.84127 0.500067 4.84356C0.499983 4.84586 0.499978 4.84817 0.500051 4.85047C0.500124 4.85277 0.50028 4.85506 0.50052 4.85736C0.500749 4.85966 0.501061 4.86194 0.501457 4.8642C0.501842 4.86647 0.502311 4.86872 0.502863 4.87095C0.503405 4.87319 0.504025 4.87541 0.504723 4.87761C0.505421 4.8798 0.506197 4.88197 0.507051 4.88411C0.507895 4.88625 0.508816 4.88836 0.509817 4.89044C0.510806 4.89252 0.511869 4.89455 0.513004 4.89655C0.514139 4.89856 0.515342 4.90052 0.516613 4.90244C0.517884 4.90436 0.519223 4.90623 0.520629 4.90806C0.522025 4.90989 0.523483 4.91166 0.525004 4.91339C0.526535 4.91512 0.528119 4.9168 0.529754 4.91841L3.41275 7.72941L2.73175 11.6994C2.73137 11.7017 2.73108 11.704 2.73086 11.7063C2.73064 11.7086 2.7305 11.7109 2.73044 11.7132C2.73037 11.7155 2.73039 11.7178 2.73048 11.7201C2.73059 11.7224 2.73078 11.7247 2.73103 11.727C2.7313 11.7293 2.73164 11.7316 2.73205 11.7339C2.73247 11.7362 2.73297 11.7384 2.73353 11.7406C2.73411 11.7429 2.73477 11.7451 2.73548 11.7473C2.73622 11.7495 2.73702 11.7517 2.73789 11.7538C2.73878 11.7559 2.73973 11.758 2.74075 11.7601C2.74178 11.7622 2.74287 11.7642 2.74403 11.7662C2.7452 11.7682 2.74644 11.7702 2.74773 11.7721C2.74903 11.774 2.75039 11.7758 2.75183 11.7777C2.75327 11.7795 2.75475 11.7812 2.7563 11.783C2.75786 11.7847 2.75947 11.7863 2.76112 11.7879C2.7628 11.7895 2.76452 11.791 2.76628 11.7925C2.76806 11.794 2.76987 11.7954 2.77175 11.7968C2.77362 11.7982 2.77553 11.7994 2.7775 11.8007C2.77947 11.8019 2.78147 11.803 2.7835 11.8041C2.78555 11.8052 2.78762 11.8062 2.78972 11.8072C2.79184 11.8081 2.79398 11.809 2.79616 11.8097C2.79833 11.8105 2.80052 11.8112 2.80273 11.8119C2.80495 11.8125 2.8072 11.8131 2.80945 11.8136C2.81172 11.8141 2.814 11.8145 2.81628 11.8148C2.81856 11.8151 2.82086 11.8154 2.82317 11.8155C2.82548 11.8157 2.82778 11.8158 2.83009 11.8158C2.83241 11.8158 2.83472 11.8157 2.83702 11.8156C2.83933 11.8154 2.84162 11.8152 2.84391 11.8149C2.8462 11.8146 2.84848 11.8142 2.85073 11.8137C2.853 11.8132 2.85525 11.8127 2.85747 11.8121C2.85969 11.8114 2.86189 11.8107 2.86406 11.81C2.86625 11.8092 2.86839 11.8083 2.8705 11.8074C2.87262 11.8065 2.8747 11.8055 2.87675 11.8044L2.87775 11.8054Z" stroke="rgba(128, 128, 128, 1)" stroke-width="1"   >
</path>
</svg>
