<svg id="图层_1" data-name="图层 1" xmlns="http://www.w3.org/2000/svg" viewBox="0 0 240 240">
  <path d="M36.87,47.82c19.57-3.4,36.63,7.47,55.26,10,5,.67,10.63,3.87,14.47-.84,3.67-4.5,2.61-10.92.78-15.84-3-7.94-1.37-15.72,3.54-20.5,5.76-5.63,14.49-6.86,22.72-2.89a5.28,5.28,0,0,0,3,.76c18.43-4.11,18.86,8.18,18.71,20.66-.08,6.17,2.82,7,7.54,4.89,29.75-13.16,45.89-.88,64,16.09,6.72,6.29,2.6,19.67-6.13,21.72C204.44,85.77,187,86,173.28,98.33a33.93,33.93,0,0,0-10.48,19.53c-3.69,20.47-9.53,41.16-3.89,62.13,3.43,12.72,6.26,25.68,12.27,37.65a14.15,14.15,0,0,1-2.11,16c-3.81,4.14-9.09,1.48-12.88-1.24-17.4-12.5-26-30.54-29.81-50.87-1.43-7.68-3.81-11.42-11.89-10.08-6.61,1.09-6,7.15-6.84,11.12-4.08,20.51-16.19,35.68-31.6,48.48-4,3.36-10.81,3.54-14.87-.41-4.24-4.13-3.22-10.21-.88-15.39,9.09-20.07,17.1-40.82,16.65-62.9-.23-11.28-8-22.2-10-33.69C62.53,92.94,39.87,84.11,23.51,69.43c-4.57-4.09-6-9.36-7.35-14.72-1.09-4.28,1.33-6.7,5.61-6.85C26.76,47.69,31.76,47.82,36.87,47.82Zm69.62,74c36.87,6.45,51.2-22.74,71.27-43.5l-6.94-.49c12.83-12.63,27-9.59,41.29-6.77a13.22,13.22,0,0,0-4.32-4.6c-17.51-10.84-33.88-6.73-49.71,3.93a41.58,41.58,0,0,1-5.34,3.35c-2.18,1-6.61,3-5.85-1,1.89-10-1.64-19.73-.53-29.62.52-4.59.09-9.29.09-14.2-6.68-1-11.34,1.94-10.57,7.52,2.05,14.84-3.74,29.51-.17,44.29.33,1.36-1.45,4.1-2.94,4.88-8.57,4.53-17.45,7.81-27.54,6.8C94.54,91.33,78.66,78.26,79.16,69.85l7.1-2.07C67,61.45,48.7,55.77,28.31,58.57l3.82,3.3,5.11-.62c.09,1.49.14,2.28.11,1.8,12.89,4.34,26.31,5.63,36.46,17.47-11-1-19-6.85-27.61-10.41-1.71,2-.56,2.83.48,4.26,6.49,8.94,19,11.1,24.05,21.66,2,4.16,3.36,9.13,6.54,12.1,5.19,4.83,11.62,8.33,17.57,12.43-5.22,3.12-10.36-1.42-15.72-1.3,1,3.11,1.88,5.72,2.72,8.28l3.74.83c-.17,11.29,12.2,17,13.45,28.73,7.91,3.38,39.79-21.11,43.92-35.29C130.87,123.11,119,125.21,106.49,121.82ZM67.88,222.44c14.74-4.94,33.45-41.54,27.72-51.15-3.85,1.35-4.09-4.83-8.38-3.93C83.3,186,78.33,204.39,67.88,222.44Zm95.74.08c-10.93-18.05-13.51-37.89-18.2-56.42-11.47,9.72-7.91,21.94-2.44,33,4.65,9.4,9.42,19.62,20.17,25ZM123.92,23.91c-7.26,5.91-4.28,13-4.87,22.59,3.09-9.29,5.21-15.7,7.49-22.59Z" style="fill: #494949"/>
</svg>
