<svg id="图层_1" data-name="图层 1" xmlns="http://www.w3.org/2000/svg" viewBox="0 0 200 200">
  <g>
    <path d="M131,71.74q2.35-11.38-7.11-13.41c-4.24-.89-5.92.66-5.61,5.19-6.11.24-8.28-1.25-9-6.24,1.63-.31,2.37,1.86,4.8,1.06,3.27-1.61,4.7-5,1.87-7.63-3.47-3.26-6.78-7.52-12.37-6.79-1.91-1.4-1.86-3.16-1.73-5.58,5,.82,8.79,3.34,12.55,6.17l2.31-.76-.12,0c.2,1-1.33,1.59,0,3.38,4.91.64,10.85,1.23,14.25,6.84l.13-.09c-2.66-.27-4.21-2.51-6.42-3.58-1.73-.84-3.41-2.13-5.15-.64-.34,1.14.11,1.75.66,2,5.63,2.68,11.29,5.3,16.94,7.94.29.17.3.3,0,.4l.07-.29L132,54.84l-.13.17c2.43-.53,3.58,1.29,5,2.7,2.91,3,5.83,5.92,9.91,7.24,1.36.24,1.16-1.72,2.42-1.57,1.38,1.24,1.94,2.6.5,4.25-2.61,1.2-4.66-.89-7.14-1.52,5.93,14.27,7,15.63,12.13,15.68,1-.67.23-1.88.77-2.69.31.07.77.05.88.23,1.67,3,1.66,3,0,6.19-2.27,1.34-4.51.3-6.76-.18-.94,1.16-.53,2.55-.66,3.83a32.2,32.2,0,0,1-7.83,18c-3.24,3.8-6.54,7.57-9,12-1.47,2.65-2.6,5.41-2.24,8.54.37,3.32,1.57,4.46,5.48,5.18,2.5-1.35,3.63-3.85,4.6-6.28,2.25-5.72,6.76-7.83,13.48-8.67-2.78,3.35-4.93,6.19-5.74,9.66s-1.27,6.88-2.15,10.26c-3,11.74-10.08,20.53-20.44,26.6-5.3,3.12-10.9,5.73-16.32,8.66-3.82,2.06-7.55,4.28-10.33,8.22-4.33-5.4-10.34-8.2-16.19-11.23-4.73-2.45-9.59-4.63-14-7.74A43,43,0,0,1,50.1,133.57c-1.38-8-1.81-9-6.25-14.9,5.07-.44,9.09,1.42,11.44,5.49,1.41,2.45,2.58,5,3.86,7.54l-.4.57c-.59,3.77,2.09,5.63,4.62,7.27a6.29,6.29,0,0,0,7.51-.2,6.5,6.5,0,0,0,2.7-6.58,20.74,20.74,0,0,0-6.37-12.61c.85,3.76,1.73,6.82.8,10-1.23,4.13-4.48,5.32-8.24,3l.39-.4c4.46.19,6.58-1.61,6.75-5.77a13.79,13.79,0,0,0-1.84-6.65A50.38,50.38,0,0,0,57,109c-5.73-6.42-9.42-13.64-9.3-22.47a5.52,5.52,0,0,0-.43-1.5c-2.57.15-5.14,2.09-7.61,0-1.13-3.26-1.13-3.26.68-6.23,1.2.6.1,2.28,1.92,3.09,3.27.38,5-2.38,6.54-5.07,2-3.59,3.47-7.49,6.25-11.35-3.24.43-5.36,3.22-8.32,2a2.85,2.85,0,0,1,.23-4.38c1.31-.2,1,1.71,2.3,1.68,4.26-1.31,7.28-4.37,10.29-7.45C60.76,56,61.75,54.22,64,55l-.15-.18c-.84,1.81-3.48,2.17-4.07,4.89,3.31-2,6.19-3.64,9.17-5.12,2.77-1.38,6.57-1.35,8.06-5.15-2.3-1.22-4-.26-5.77.69-2.18,1.15-3.77,3.32-6.4,3.67l.13.1c3.61-5.37,9-7.14,15.27-7.19,1-1.19-.36-2.22.06-3.1l-.16.11c1.73.84,2.79-.43,4-1.25A25.22,25.22,0,0,1,94.13,38c1.19,2.08,0,3.6-.81,5.47-2.34.23-4.83.18-7,1.72-2,1.42-3.23,3.8-5.72,4.21-2.74,5.64-2.45,6.67,2.36,9.1,1.72.16,2.45-1.73,4-1.85-.5,5-2,6.2-9,6.84,0-2.49.44-5.41-3.39-5.68-4-.28-8.76,2.65-9.66,6.46-.53,2.24-.82,4.59.86,7.28,12.82.38,22-5,27-17.33V46.59c2.08-2.53,4-5.26,2.94-8.93-3.38-2.91-6.55-5.94-6.48-11.12C92.15,25,95.54,24.32,98,21.41c2.37,2.71,5.39,3.67,8.46,4.84.6,5.17-3,8.13-6,12.1,0,5,4.68,9.9,2.79,14.72,5.52,12.9,14.51,19.26,27.91,18.57.4,1.94-1.11,3-1.94,4.44l.14.13c-.39-.7-.34-1.65-1.35-2.18-10.61-1-19.41-5.13-23.82-15.86a64.57,64.57,0,0,0-11.8-.06C88.2,68.43,79.87,72.74,69.42,73.9A3.31,3.31,0,0,0,66.76,75l.13-.12c-1-.29-1.19-1.36-1.77-2l-.18,0,.32,0c-.83,3.72,1.65,5.63,4.34,6.85A96.75,96.75,0,0,1,86.74,90.14c.22.58.53,1,1.26.72-.14,1.53.88,2.28,2,3l1,2,.52.62.47-.63c.9,2.21,1.94,4.38,1.77,7.23C91.58,101.19,91.25,98,88,97.49v21.26c3,2.55,5.07,5.94,7.72,9.07.15-12.06.86-24-2-36.56,2.74,1.94,2.55,4.78,4.53,6.35,2.14-1.91,2.18-5.25,4.81-6.62l-.1-.1c.82,2.91-1.57,5.69-.47,8.7,2-1.1,1-3.56,2.55-4.75l.5.92.45-.92a2.52,2.52,0,0,0,.93-2c.75.12,1-.31,1.07-1,2.33-1.81,4.6-3.68,7-5.4a83.65,83.65,0,0,1,11.64-6.57C130.56,77.93,131.58,75.86,131,71.74ZM106,123.85a.9.9,0,0,0,1.15-.74c4.47-2.28,8-5.72,11.5-9.23a16.25,16.25,0,0,0,4.3-8.77c.59-3.53-.33-6.5-3.81-9.21.85,3.94,1.87,7.13-.23,10.16a38.25,38.25,0,0,0,0-6c-.63-4.18-3.08-5.41-7.92-4,0,6.32,0,12.76,0,19.21a1.88,1.88,0,0,0,1.13,1.52c-1.13,1.43-2.31,2.8-4.24,3.15.49-.84,1.45-1.71,1.4-2.52-.44-6.71.43-13.48-.56-20.81-4.32,3.28-7,6.87-7.46,11.76a97.85,97.85,0,0,0-.19,10c0,4.19,0,8.33-2.54,12-.52.74-1.07,1.67.15,2.62,2.61-4.21,4-9.24,8.34-12.18-.1.61-.19,1.23-.29,1.85a1,1,0,0,0-.64,1.26Zm22.88-7c.8,0,.94-.55.92-1.2.13-.29.26-.29.36,0,0,0-.16.09-.24.14l-.93,1.17a1.09,1.09,0,0,0-1.14.86c-12.08,6.95-22.07,16-27.82,28.26a3.54,3.54,0,0,1-3.54.1c-5.82-12.23-15.9-21-27.27-28.52-1.05-.69-1.89-2-3.49-1.4l0-.47.11.35a20.67,20.67,0,0,0,4.81,4.28A137.27,137.27,0,0,1,87.3,135.62c.12,3.68-1.19,6.22-4,8,2.8,10.2,6.78,19.45,15.25,26.49,8.44-7.26,12.47-16.38,15.21-26.49-3.39-2.14-4.27-5.36-4.19-9.09,3.39-4.45,7.7-7.81,12.09-11.12,2.23-1.67,4.92-2.82,6.44-5.36C128.74,117.89,129.11,117.55,128.84,116.82ZM76.67,95.63c-4.37,4-4.35,8.68-1.88,13.64,3.3,6.62,9.51,10.07,15.06,14.24-.66-3.1-3.78-4.09-5-6.65,2.22-7.06.63-14.16.8-21.12-5.7-1.3-8.26.44-8.48,5.38a18.13,18.13,0,0,0,.49,3.92c.87,5,4.22,8.44,7.39,12-4.56-1.28-6.09-5.16-7.7-9-1.71-4.07-1.2-8.28-.82-12.48l.33.19Zm61.09,37.16a7.27,7.27,0,0,1-4,1.74c-4.46-1.77-5.88-3.67-5.63-8.07a39.8,39.8,0,0,1,1-5.33c.07-.3.67-.52.15-.91-.51.35-.27.68,0,1-4.27,2.44-7.62,10.68-6,14.89a6.21,6.21,0,0,0,5.22,4.13c4.46.58,8.33-2.66,9.09-7.59l.39.21ZM58.81,67.38c-10.28,11.74-12.44,25-3.75,33.67a37.53,37.53,0,0,1-1.24-14.52c5.46,9.31,8,10.69,13,7.44,1.17-3-.65-4.64-2.65-6.29-5.42-4.48-7.2-10.18-5.63-17C58.79,69.62,59.5,68.55,58.81,67.38Zm83.63,19a24.48,24.48,0,0,1,.12,7.7c-.25,2.23-.7,4.45-1.06,6.67,5.6-7.28,7.66-14.81,2.46-23-1.42-2.24-2.44-4.73-3.82-7-.7-1.15-1.09-2.76-2.84-3-.08.43-.26.78-.18,1.05,2.38,8,.87,14.75-6,20-1.66,1.26-2.69,3-1.92,5.21C134.1,97.76,137.06,96.18,142.44,86.42ZM102.59,28.91l-4.43-3.46L94,29c1.11,2,2.24,3.51,4.21,4.25C100.24,32.58,101.34,31,102.59,28.91Z" style="fill: #24292E"/>
    <path d="M116.73,43.75l-.12,0Z" style="fill: #24292E"/>
    <path d="M64,55c0-.67.39-1,1-1.1l-.13-.1c0,.63-.46.87-1,1Z" style="fill: #24292E"/>
    <path d="M130.9,53.92a1.1,1.1,0,0,1,1,1.09l.13-.17c-.56-.12-1-.35-1-1Z" style="fill: #24292E"/>
    <path d="M59.15,131.7a1.39,1.39,0,0,1,1,1l-.39.4a1,1,0,0,1-1-.87Z" style="fill: #24292E"/>
    <path d="M87.91,91A1,1,0,0,0,87,89.84c-.62-2.21-2.91-3.06-4-4.89l-.14.1c.88-2.54.88-2.54-1.8-2.81L81.9,84l.11-.15a22.5,22.5,0,0,1-6.15-3.38c5-1.1,9.72-1.8,13.67-4.31,1-1.7-1.24-2.29-.72-4.37,2.12-3.28,5.48-6.42,9.46-9.61a45.12,45.12,0,0,1,9.92,10.16l-1.75,3.37c4.22,3,9.13,3.72,14.36,4.67A7.59,7.59,0,0,1,116,82.78l.1.18c-.28-1-.82-1.28-1.67-.61A1.42,1.42,0,0,0,115,84l-.16-.08A19.15,19.15,0,0,1,109.88,88c.87-2.12,1.75-4.25,2.76-6.69l-7.84-3.5c-2.88,2.29-4.08,5.68-6.35,8.74-2.61-2.54-3.54-6.28-6.69-8.71l-6.91,2.94c-.12,4.8,3.74,7.43,5.2,11.2C89.06,92.23,88.77,91,87.91,91Zm12-23a.92.92,0,0,0-1-1c-1.55-.89-2.13-.49-3,2-.76-.09-1,.29-1,1-1.1,0-1.32.68-1.38,1.63,1.44,1.67,2.65,3.64,4.85,4.76,1.38-1.35,3.24-2.24,3.47-4.46,2.18-1.81,0-2.19-1-3A.93.93,0,0,0,99.94,67.92Z" style="fill: #24292E"/>
    <path d="M108,92c-.72,0-1,.4-1,1h-1.15A3.43,3.43,0,0,1,108,89.82C108,90.54,108,91.25,108,92Z" style="fill: #24292E"/>
    <path d="M116,82.78,114.82,84,115,84,116.05,83Z" style="fill: #24292E"/>
    <path d="M83.05,85c-.55-.19-1-.44-1-1.12L81.9,84a1,1,0,0,1,1,1.07Z" style="fill: #24292E"/>
    <path d="M108.87,89a1.07,1.07,0,0,1,1.19-1.19A1.3,1.3,0,0,1,108.87,89Z" style="fill: #24292E"/>
    <path d="M107.86,90c.09-.7.42-1.17,1.2-1.18C109,89.52,108.63,90,107.86,90Z" style="fill: #24292E"/>
    <path d="M106,95h-1.15c.11-.87,0-1.83,1.14-2.18C106,93.55,106,94.28,106,95Z" style="fill: #24292E"/>
    <path d="M91,94H89.88c0-.73,0-1.46,0-2.19C90.89,92.22,91,93.11,91,94Z" style="fill: #24292E"/>
    <path d="M92,96H90.88c0-.73,0-1.46,0-2.19C91.87,94.23,91.82,95.18,92,96Z" style="fill: #24292E"/>
    <path d="M103,91l0-.31c.27.11.22.18-.14.21Z" style="fill: #24292E"/>
    <path d="M108.05,119.85a1.1,1.1,0,0,1-1.2,1.2A1.33,1.33,0,0,1,108.05,119.85Z" style="fill: #24292E"/>
    <path d="M119,105.81c-.45,5-2.37,9-7.15,11.23A54.26,54.26,0,0,0,119,105.81Z" style="fill: #24292E"/>
    <path d="M98.93,67c0,.7.36,1,1.07.89-.07.75.22,1.13,1,1-.29,1.24.9,2,1,3.09-1.64.23-2.08,2.07-3.73,2.71C96.56,73.59,95,72.3,94.9,69.87c.69,0,1-.32,1-1Z" style="fill: #24292E"/>
  </g>
</svg>
