<svg id="图层_1" data-name="图层 1" xmlns="http://www.w3.org/2000/svg" viewBox="0 0 200 200">
  <g>
    <path d="M134,141.49c-1.14,4.77-4.78,5.11-8,7-.32,1.68.63,4.13-1.72,6.15-1.83,0-2.35,3.23-4.84,3.38-2.26,2.86-6,2.53-8.88,3.9-.93.44-2,.43-3.12.92-2.15,1-4.25-.69-6.34-1.28A17.74,17.74,0,0,1,97.9,160c-3.4,2.48-6.62,3.9-11,2.19-3.58-1.4-7.43-2.1-10.79-4.14a16.51,16.51,0,0,1-5.57-5.81c-1-1.65-.44-2.61.54-4.15-3.63.28-5.69-2-8.08-4.58v-67a37.26,37.26,0,0,0-2.12-12.12A31.79,31.79,0,0,0,55.58,54a15.54,15.54,0,0,1-1.53-2.89H63.4A39.66,39.66,0,0,0,77.69,58a63,63,0,0,0,13.65,2.2c2.13.05,4.8.55,6.27,3.08,3.84-2.14,7.89-2.86,12.2-3.43,7.5-1,15.14-2.31,21.4-7.39a5.83,5.83,0,0,1,4.39-1.47A53.71,53.71,0,0,0,142,51c.26,2.45-2.5,2.92-2.34,4.89A27.42,27.42,0,0,0,134,73.05C134,96.2,134,119.35,134,141.49Zm-35.38-9.37c.71-2.86,2.69-3.54,4.91-4.16,4.31-1.18,8.69-2.14,12.63-4.52a15,15,0,0,0,6.27-6.35c.8-1.67,1.69-3.3,2.57-5,0-2.61,0-5.27,0-7.93a84,84,0,0,0-.17-8.57c-1.49,1.74-3,1.89-4.82,2.72,0-2-.07-3.44,0-4.9.14-2.46-.89-4.56-1.8-6.75C114.35,77.35,101.79,71.43,92.05,75c-6.84,2.51-12.25,6.5-14,14.07-2.13,2,.25,5.22-2,7.09-.48.8,1.84.91.42,1.83-1.88-.1-3-2.28-5.39-1.91,0,4.07-.24,8,.09,12a22.74,22.74,0,0,0,2,7.14A18.42,18.42,0,0,0,81.63,124c4.13,2.23,8.72,3.12,13.14,4.29Zm-.24,1c-1.72,2.29-1.89,3.25-.42,4,.84-.62,2.18-.87,2-2.73ZM97,140.51a1.19,1.19,0,0,0,2,0c-.08-.46.21-1-.4-1.34C97.37,138.7,96.88,139.22,97,140.51Z" style="fill: #444"/>
    <path d="M70.74,155.18c3.52,4.36,8.5,6.28,13.69,7.82,4.26,1.26,8.46,2.63,11.36,6.31.88,1.12,1.61,2.34,2.59,3.78,3-5.67,8-8.38,13.58-10,4.43-1.32,8.72-2.66,11.91-6.32a7.43,7.43,0,0,1,3.26-1.7,13.1,13.1,0,0,0,6-4.76,10.58,10.58,0,0,0,1.91-6.69c-.05-13.15,0-26.31,0-39.47,0-9.16.17-18.32-.08-27.48-.1-3.63,1.16-7,1.09-10.58a1.87,1.87,0,0,1,.31-.86c2.67-4.73,4.56-9.91,8-14h2.87c-4.47,5.11-6.74,11-8.83,17a12.62,12.62,0,0,0-.32,4.35q0,35.48,0,71a15.7,15.7,0,0,1-.94,6.11c-1,2.56-2.16,4.71-4.92,5.93a37.82,37.82,0,0,0-9.16,5.79,22.74,22.74,0,0,1-9.5,4.59,23.81,23.81,0,0,0-14.75,9.22c-3.21-2.55-5.44-6-9.42-7.39-2.29-.83-4.68-1.62-7-2.45A56.22,56.22,0,0,1,76,162.43c-2-1-4.1-1.88-5.27-4.09a3.44,3.44,0,0,0-2.39-1.29c-4.56-.54-6.93-3.4-8.36-7.41a4.9,4.9,0,0,0-1-1.19V73.59c0-6.48-2.4-12.24-5.68-17.61-.94-1.55-1.43-3.58-4-4.55,2.61-.92,3.51.71,4.15,1.7A51.07,51.07,0,0,1,60.05,66.4a20.8,20.8,0,0,1,1,6.1q-.08,35,0,70a13.53,13.53,0,0,0,3.83,9.9A9,9,0,0,0,70.74,155.18Z" style="fill: #444"/>
    <path d="M151.9,137.58c-3.1,4.49-5.51,9.51-10.73,12.35V66.22c1.36-.49,3-.17,4.83-.16v5c0,19,.05,38-.05,57,0,2.83,1.07,5.19,1.91,8.19l-2.4,4.71c-1.58.16-1.74-.79-1.75-2.09-1.05,2.48-.47,4.76-.79,7,.82.07,1.34.23,1.43.1,1.58-2.31,3-4.7,4.67-7,2-2.76.69-5-1-7.78,0-1.37,0-3.18,0-5,.08-12.87-1.47-25.68-1.1-38.58.2-7.18,2-14.24,1-21.21a1.66,1.66,0,0,1,2.07-.07v4.14c0,18.16,0,36.33,0,54.49,0,2.45,0,4.91,1.1,7.05A9.26,9.26,0,0,1,151.9,137.58Z" style="fill: #444"/>
    <path d="M54.9,150.3c-2.17-2.31-4.53-4.29-6.39-7.07-1.76-2.62-2.79-5.57-4.53-8,.08-1.31,1.18-1.68,1.75-2.48,2.05-6.86,1.19-13.94,1.24-20.94.1-15.14,0-30.29,0-45.23.44-.74,1-.55,1.44-.59A1.27,1.27,0,0,1,49,67.24c0,20.16-.06,40.32.07,60.47a17.23,17.23,0,0,1-1.47,5.94c-.46,1.3-1,2.83-.5,3.67,1.71,3,2.81,6.34,5.51,8.66.17.15.62,0,1.16-.06v-6.69l-.44-.39-1.07,3.47L49,136.14c.92-2.61,2-5.14,2-8.12-.1-20.49,0-41,0-61.71,1.5-.62,3.1-.24,4.82-.26v83.8Z" style="fill: #444"/>
    <path d="M75.21,52.17h45.64c-3.62,1.38-7.21,2.69-11.08,2.82-1.49,0-3-.06-4.49,0-3.2.18-6.35-.14-9.61.85-3.73,1.12-7.62-.68-11.39-1.27A27.46,27.46,0,0,1,75.21,52.17Z" style="fill: #444"/>
    <path d="M130,51.39c-8.74,5.13-18.26,7-28.49,7.8l-3,1.6c-.79-.8-2.36-.53-2.88-1.64-10.12-.61-19.71-2.59-29.08-7.47,1.45-.76,2.34-1,3.37-.25a18.5,18.5,0,0,0,8,3.37c2.83.38,5.57,1.86,8.54,1.2,6.59,2.13,13.41,1.17,20,.81a51.19,51.19,0,0,0,20.23-5.2A3.13,3.13,0,0,1,130,51.39Z" style="fill: #444"/>
    <path d="M96,46c-.08-3-2.28-4.75-4.18-6.68,2.53-4.42,3.3-9.51,6.68-13.38l6.24,12.56c-1.53,3.64-4.87,6.45-6,10.49-.75-.25-.91-1.15-1.72-1C96.85,47.24,97.5,46.09,96,46Zm2.67-13.11c-2.42,1.84-1.64,5-4,6.89,2.53.46,1.88,3.4,4,4.1,0-1.7,1.57-2.33,2.16-3.34C101.71,37.52,99.39,35.66,98.67,32.89Z" style="fill: #444"/>
    <path d="M151,59.52v-8c1.28-2,3.84-1.22,5.6-3.11.65,2.64.34,4.77.39,6.86s0,4.29,0,6.81C154.56,61.83,153,60.18,151,59.52Z" style="fill: #444"/>
    <path d="M46.82,59.65l-5.5,2.67c-.57-2.35-.26-4.48-.31-6.57s0-4.29,0-6.94l5.82,2Z" style="fill: #444"/>
    <path d="M39.84,58.91H36.53l-3.2-3.72c.52-2.12,2.21-3.67,5-4.22l1.49,1.31Z" style="fill: #444"/>
    <path d="M158.16,52.28l1.5-1.32c2.59.63,4.5,1.82,4.94,4.42L161,58.91h-2.85Z" style="fill: #444"/>
    <path d="M149.6,51.35c.68,2.84.24,5.09.46,7.46h-6.44C145.33,56,146.58,53.32,149.6,51.35Z" style="fill: #444"/>
    <path d="M102,164.47,99.55,167c-2.28-.29-3.25-.7-5.71-2.54,1.69-.62,3.44-.5,4.55-1.73Z" style="fill: #444"/>
    <path d="M52.67,58.91H48.19v-7C50.84,53.57,50.35,57.14,52.67,58.91Z" style="fill: #444"/>
    <path d="M97,48v2.62a5,5,0,0,1-4.44-.22L96,46C96.15,46.76,95.5,47.91,97,48Z" style="fill: #444"/>
    <path d="M101.47,46c1,.71.2,1.85.71,2.72l1.64.62c.06.88-1,1.4-3.44,1.7a7.73,7.73,0,0,1-.37-1.27C99.81,48.24,101.28,47.36,101.47,46Z" style="fill: #444"/>
    <path d="M72,45c-1.42,2.39-3.79,2-6,2A7.9,7.9,0,0,1,72,45Z" style="fill: #444"/>
    <path d="M116.29,42.27c2.61-.74,4,.45,5.92,1.26C119.76,44.69,118.49,43,116.29,42.27Z" style="fill: #444"/>
    <path d="M86.27,40.19c1.67-1.55,2.65-1.45,3.69-.76C89.13,40.55,88,39.77,86.27,40.19Z" style="fill: #444"/>
    <path d="M108,39c1,.38,2.53-.93,3,1C110,39.62,108.47,40.93,108,39Z" style="fill: #444"/>
    <path d="M84,41c.47-1.93,2-.62,3-1C86.53,41.93,85,40.62,84,41Z" style="fill: #444"/>
    <path d="M114,41c-1-.38-2.53.93-3-1C112,40.38,113.53,39.07,114,41Z" style="fill: #444"/>
    <path d="M114,41c1,.38,2.53-.93,3,1C116,41.62,114.47,42.93,114,41Z" style="fill: #444"/>
    <path d="M78,43c.47-1.93,2-.62,3-1C80.53,43.93,79,42.62,78,43Z" style="fill: #444"/>
    <path d="M134,48c1,.38,2.53-.93,3,1C136,48.62,134.47,49.93,134,48Z" style="fill: #444"/>
    <path d="M63.73,47.81c-1.67,1.55-2.65,1.45-3.69.76C60.87,47.45,62,48.23,63.73,47.81Z" style="fill: #444"/>
    <path d="M131,47c1,.38,2.53-.93,3,1C133,47.62,131.47,48.93,131,47Z" style="fill: #444"/>
    <path d="M63,48c.47-1.93,2-.62,3-1C65.53,48.93,64,47.62,63,48Z" style="fill: #444"/>
    <path d="M131,47c-1-.38-2.53.93-3-1C129,46.38,130.53,45.07,131,47Z" style="fill: #444"/>
    <path d="M125.85,44.88H123C124.69,44,124.69,44,125.85,44.88Z" style="fill: #444"/>
    <path d="M72,45c.47-1.93,2-.62,3-1C74.53,45.93,73,44.62,72,45Z" style="fill: #444"/>
    <path d="M81,42c.47-1.93,2-.62,3-1C83.53,42.93,82,41.62,81,42Z" style="fill: #444"/>
    <path d="M75,44c.47-1.93,2-.62,3-1C77.53,44.93,76,43.62,75,44Z" style="fill: #444"/>
    <path d="M126,45c.76.15,1.91-.5,2,1C127.24,45.85,126.09,46.5,126,45Z" style="fill: #444"/>
    <path d="M137,49a.71.71,0,0,1,.89.6c0,.07-.22.31-.29.29A.71.71,0,0,1,137,49Z" style="fill: #444"/>
    <path d="M108,39a.71.71,0,0,1-.89-.6c0-.07.22-.31.29-.29A.71.71,0,0,1,108,39Z" style="fill: #444"/>
    <path d="M98.12,90.68c2.67,2.38,3.35,5.24,4.59,7.69a77.29,77.29,0,0,1,3.94,10.8c.88,2.71,0,5.55.38,7.86-2.6,4.18-5,8.21-10.13,6.91a11.64,11.64,0,0,1-6.89-7C88.88,107.61,94.15,99.61,98.12,90.68Z" style="fill: #444"/>
    <path d="M118,90.52c-.7,3.67,3,7.57-.6,11.39-.79-1.23-.32-2.67-.34-4a18.56,18.56,0,0,0-10-16,14.51,14.51,0,0,0-8.19-2,44,44,0,0,1-4.41,0c-7.13,2.41-12,6.53-14.44,13.35v10c-1.25-1-.86-2.5-1.92-2.82a24,24,0,0,1,3-13.71c1.81-3.42,4.76-5.8,8-7.81,4.54-2.83,9.65-1.87,14.42-2C114.05,83,113.87,83.77,118,90.52Z" style="fill: #444"/>
    <path d="M85,113c.6,1.59,1.75,2.79,2.32,4.55a12.52,12.52,0,0,0,6.58,7.16c-4.47-.33-8.79-.88-11.81-5.35-.6-2.36.91-5.4-1.25-7.62.82-1.06,1.55-.61,2.16-.74v2Z" style="fill: #444"/>
    <path d="M114,111c.17,0,.47,0,.48,0a12.45,12.45,0,0,1-1.08,10.27c-3.22,1.58-6.34,3.59-10.26,3.46,2.4-1.14,3.76-3.37,5.88-5.19-.7-3.41,2.58-5,4-7.55A.85.85,0,0,0,114,111Z" style="fill: #444"/>
  </g>
</svg>
