<svg id="图层_1" data-name="图层 1" xmlns="http://www.w3.org/2000/svg" viewBox="0 0 200 200">
  <g>
    <path d="M43.71,151c-1.57-1.06-1.92-2.74-2.41-4.43-6.73-23.46-13.42-46.93-20.37-70.32-1.35-4.52,1.07-8,1.36-11.59,1.5-1,2,1.36,3.08.06,1.24-1.07,0-2.69,1.05-4.19,2.75-.77,5.46-3.16,9.21-1.14,1.77-4.49,6-2.65,9.14-3.78,2.38.66,2.14,5.87,6.64,2.22,10,28.59,19.51,56.55,29.2,84.47.28-6.34-2.86-11.83-4.65-17.63s-4-11.78-6-17.66Q66.83,98,63.72,88.91c-2-5.84-3.92-11.7-5.87-17.52,5.55-2.27,6.84-2.18,11,.74,3.45-3.26,7.29-4.64,11-.92,2.26.42,2.08-1.8,3-2.3h6c2,.55,1.86,4.14,4.6,3.28,1.59,0,.27-2.15,1.77-2.13,3.5.9,7,1.7,9.4,5.29,2.88-2.54,5.85-2.71,9.41-1-1.63,1.6-3.47,0-4.77.92l1,6.46c-2.5-.94-1.43-5.23-5.19-4.42-.24,3.45,2.59,6.15,2.88,10.63-4.14-5.08-3.83-11.73-10-15.75-.45,8.28,4.67,14.12,5.88,21.91-2.39-2.5-2.69-5-3.64-7.21-1-2.37-1.69-4.92-2.79-7.25-1-2.06-.77-5.32-5.36-5.4L100.94,98l-1.18.46C95.57,89.18,92.86,79.24,88,70l-3.35-.16C87.09,81.58,92.84,92,96.06,103.58c-2.08-.57-2.16-2-2.6-3.16q-4.53-11.88-9-23.76c-.64-1.69-.91-3.79-4.33-3.1,4,10.83,7.91,21.38,12.22,33-2.88-1.69-3-3.7-3.57-5.24-3.17-8.22-6-16.58-9.38-24.72-1-2.38-1-6.53-6-5.74,3,14.15,9.52,27.06,13.51,41.64-2.1-1-2.27-2.35-2.69-3.51Q78.52,93.15,72.84,77.27c-.68-1.93-1.14-4.15-4.58-2.73,4.57,12.91,9.09,25.67,13.83,39-2.59-.55-2.55-2.35-3-3.54-3.6-9.92-7.18-19.84-10.58-29.82-1-3-2.75-5.64-4.43-8.92-.9-.33-2.27.21-4.09,1.29,8.5,23.79,16.14,47.91,25.22,71.65a9.07,9.07,0,0,0,4.94-2.18c-2.41-7.1-4.78-14.21-7.27-21.28-.59-1.67.43-1.65,1.42-1.87l-.18-.18c1.93,5.53,3.84,11.07,5.8,16.59.59,1.67,1.16,3.56,3.91,1.43-1.57-4.67-3.18-9.48-4.79-14.29l1.17-.43c2.83,5.8,4.17,12.25,7.42,18a8.12,8.12,0,0,0,3.91-1.23c-.33-5.74-3.48-10.8-5-17.51,4.67,4.36,3.4,11.26,8.07,14.12l1.47-.8L101,120.47c5.47,5,3.91,14.78,13.47,18l-9.16-25.24,1-.36c3.77,7,5,15.24,9.47,22,.25.37,1.23.25,2.71.51-3.46-9.29-6.71-18-10-26.71l1-.39c4.7,10,7.49,20.87,13,31.21l4.36,1.43c-4-14.21-10.38-27-15.24-41.17,2.72,1.54,2.77,3.61,3.42,5.23,3.86,9.61,7.57,19.29,11.35,28.94.71,1.82.91,4.21,4.68,3.81-5.7-14.58-11.29-28.86-16.88-43.14l1-.39c7.12,15.51,12,32,19.79,47.42l4.71-1.07c-1.87-2.87-1.58-6.2-2.89-9.05l.57-.51c2,1.46.83,6.32,5.9,5l-9.6-22.9c3.41,3.12,4.21,7.53,6.34,11.23,2.24,3.88,2,9.13,6.63,11.72,1,.57-1.58,1.63,0,2.62,1.77.13,3.15-.91,4.67-1.87-8.11-21-17.62-41.33-26.31-62.29,2.89-3,3.92-7.88,9.16-8.55,1.74-.21,1.45,2.74,2.61,2.52,3.21-.66,1.56-2.37,1.83-3.51a15.82,15.82,0,0,1,7.29-1.3c1,0,1.25,2.51,3.05,2.25,1.72.24,1.46-1.77,2.18-2h7.17l30.37,60.65c-2,2-4.67,2.1-6.64,2.71-2.38.08-2.45-3.89-4.53-2.41-2.13,1-.51,2.62-1.81,3.84L169.32,131c-2.11-.12-1.78-3-3.12-2.75-3,.75-.81,3.11-3,4.55l-5,2.42c-1.67,0-2.39-4.1-4.34-2-2,1.65-.18,3.16-1.38,4.84l-5.63,3c-2.19-.28-1.84-4-4.6-2.75-1.91.86.37,2.58-1.06,3.91l-6.55,1c-2.26-.54-2-4.21-5.32-3.29-1.24.43.82,2-.24,2.92-4.61-.63-8.75-1.84-10.7-5.77-2.56-.07-1.7,2-2.77,2.57-3.65-.11-7.41.89-9.37-2.5-2.77.06-1.47,2-2.77,3.11l-5.7,1.51c-2.5.08-2.55-2.8-4.39-2.12-2.66.73-.14,2.9-2,4.46L86,146.58c-2.77.78-2.61-1.86-4.18-1.76-1.86.71-.24,2.59-1.77,4.11l-5.74,3.36c-1.91.15-1.59-2-3.2-2-1.23.69-.06,2.16-.94,3.41-3,.63-6,4-9.34.27-3,3.05-6,3-9.07.08-3.29,2-5.48,1.14-8.18-3.06,2.27-1.37,2.21,3,4.48,1.75,0-2,.6-4.19-1-6.26A6,6,0,0,0,43.71,151ZM158,117.6c-2.85-3.13-3.84-7.22-5.61-10.9C146.17,93.84,141,80.49,134,67.92c-1.38.63-3.06.64-3.61,2.44l2.35.93-1.28.56c2.7,10.73,8.33,20.39,12.71,30.48,4.5,10.33,8.45,20.94,14.54,30.53,1.41-.56,3-.86,3.41-1.89-.07-5-3.42-8.83-4.3-13.54,3.25,2.31,2.65,7.25,6.67,9.19-.47-7-4.45-12.76-7-19-2.77-6.69-5.72-13.33-8.93-19.82-3-6-4.57-12.84-9.69-18.74-1.24,3.21.16,4.79.87,6.39,5.55,12.45,11.2,24.85,16.76,37.3C157.17,114.29,158.39,115.71,158,117.6ZM174.53,127c-9.55-21-18.73-41.77-29.19-61.84l-4.33.64c8.8,21.44,18.5,42.1,28.49,62.71C171.08,128.7,172.48,128.15,174.53,127ZM154,64.8c2.53,11.19,8.68,20.56,13.3,30.57,4.71,10.2,9.2,20.52,15.3,30.39,1.1-.82,3.07-.25,4.51-2.18L159,67.32C158.08,65.39,156.57,64.52,154,64.8Zm1.07,65.82C149.93,119,145,107.79,140,96.6c-3-6.78-6-13.57-9.1-20.33-.74-1.64-1.47-3.83-4.16-1.32q12.36,28.6,24.78,57.31Zm23.13-8.4Q165.56,95.73,153,69.45c-.74-1.53-1.79-2-3.29-1-.06.38-.27.77-.15,1q12.15,26,24.35,52C174.63,123,175.62,124.14,178.23,122.22ZM56.52,132.65l1.41-.43c.71-4.51-18.94-68.61-22.84-70.55Q45.8,97.16,56.52,132.65Zm-9.8,5.69,1.5-.36c-6.95-23.5-13.9-47-21.09-71.34C25.33,70.79,42.45,131.09,46.72,138.34Zm23.64-8,1.61-.57c-1.28-9.81-20.52-66-24-68.34C55.57,84.9,63,107.62,70.36,130.34Zm-3.47,20.07c2-5.29-1.84-9.36-2.61-14.14-1.4,0-2.59.33-3.38-.09-1-.53-1.66-1.86-3.25-.35,2.73,5.76,3,12.55,6.92,18.54,1.12-1.53,3.43-.45,4.2-2.39C68.62,150.69,67.28,151.18,66.89,150.41ZM79,147.61c-2.47-5.05-1.12-11.31-6.49-14.57a4.82,4.82,0,0,0-3.44,2.23c1.78,4.07,1,9.32,5.14,11.82.82,1.38-1.66,1.66-.12,3A9.14,9.14,0,0,0,79,147.61Zm-28.5-4.84c0,4.63,2.75,8.2,4.39,12.21,1.07-.17,2.31.7,2.59.36.55-5.79-1-10.32-2.84-14.75A5.93,5.93,0,0,0,50.54,142.77Zm19.79,4.41c-.62-4.09-1-8.28-4-11.54C67,139.71,67.54,143.81,70.33,147.18Zm-13.76-7.52A27.55,27.55,0,0,0,60,150.71C59.63,146.79,58.86,143,56.57,139.66Z" style="fill: #444"/>
    <path d="M133.18,51.23c-1,1.81,0,3.29,1.2,4.9-11.56,17-21.53,34.7-28.82,54.66-2.11-2.73-3.23-5.57-7.15-5.36,10-13.66,16.72-28.51,23.26-43.07,2.36-.8,3.91.89,5.9,1-.69-2.65-3.17-2.26-4.61-3.71l2.79-7c.9-1.53,2.83-.18,3.83-1.45,1.1-2.23-1.4-3.66-1.43-5.7A3.88,3.88,0,0,1,131,43a3.26,3.26,0,0,1,3.55,2c1,2.43.71,4.7-1.53,6.43,1-6.56,1-6.6-3.6-6.17C131,47.29,129.63,50.46,133.18,51.23Z" style="fill: #444"/>
    <path d="M84.32,118.91,82.62,116c5-.18,6.64-4.8,10-7.48.74,2-1.7,2.79-1,4.73,3.1-.19,3.86,1.66,2.94,4.51,3.39-.07,3.39-.07,6.58-2.42-1.71,4-5.17,5.87-10.08,5.14a72,72,0,0,1-7-1.72Z" style="fill: #444"/>
    <path d="M128.61,100.78q-3.95-9.25-7.9-18.52l1.19-.52,7.9,18.37Z" style="fill: #444"/>
    <path d="M137,131.47l-8-18,1.27-.54q3.64,9,7.3,18.08Z" style="fill: #444"/>
    <path d="M119.25,86.9q2.93,7,5.84,14A27.86,27.86,0,0,1,119.25,86.9Z" style="fill: #444"/>
  </g>
</svg>
