<svg id="图层_1" data-name="图层 1" xmlns="http://www.w3.org/2000/svg" viewBox="0 0 200 200">
  <g>
    <path d="M71.25,66.68c-2.3,23.58-3.46,47.24-6.14,70.79-1.14-4.08-.66-8.16-.35-12.2.85-10.8,1.89-21.58,2.82-32.37.7-8.14,1.34-16.28,2-24.42.07-.89.13-1.78.17-2.67.22-5.68,0-6.05-5.7-6.58a48.63,48.63,0,0,1-8.64-1.6c7-5.15,13.46-10,20-14.76,2.3-1.67,2.77.35,3.09,1.88,1.25,6.09,2.39,12.2,3.57,18.3.37,1.92.72,3.84,1.11,5.76.92,4.48,1.38,4.92,5.77,5.56,4.21.61,8.48-.31,12.72.85,2,.56,2.91-1.73,3.89-3.13,6.77-9.58,13.48-19.21,20.22-28.82a118.36,118.36,0,0,1,10.45-13.43c-.9,1.42-1.77,2.86-2.71,4.27Q121.28,52.53,109,71c-.79,1.19-1.55,2.39-2.28,3.61s-.55,2.46.85,3.08c6.84,3,13.69,6,20.55,8.91,2.23,1,2.93-.58,3.2-2.26.57-3.5,1-7,1.43-10.55.82-6.63,1.62-13.25,2.62-19.85.35,5.88-.94,11.63-1.44,17.44-.36,4.24-1.09,8.46-1.46,12.7-.33,3.77.24,4.31,4,4.51a25.8,25.8,0,0,0,3.73,0c15.07-1.49,28.35,5.16,42.55,8.85-1.08,1.78-2.57,1.87-3.82,2.3Q157,107.2,135,114.62a10.68,10.68,0,0,1-3.59.91c-4.29-.13-4.56,1.3-4.51,5.34,0,.88,0,1.77,0,2.66,0,1.62-.74,2.18-2.32,2.06-2.3-.19-4.64-.09-6.92-.36-14.57-1.75-28.19,2.06-41.62,7-1.33.49-2.62,1.09-4,1.6s-2.11.19-2-1.38c1.38-13.64.23-27.37,1.31-41A131.31,131.31,0,0,0,71.25,66.68Zm105.2,30.77c-.32-.77-1-.94-1.69-1.17-11.23-3.89-22.48-7.64-34.67-6.28a9.87,9.87,0,0,1-2.66,0c-7.87-1.32-11,5.15-15.39,9.43-.84.81-.09,1.61,1,1.78a18.57,18.57,0,0,0,2.12.12A306.07,306.07,0,0,0,173.35,99C174.53,98.83,175.89,98.89,176.45,97.45Zm-82.8-20c-1.43,1.18-3,2.58-4.7,3.86a5.83,5.83,0,0,0-2.36,6c.76,4.71,1.44,9.44,2.18,14.15.1.69.24,1.51,1.1,1.57s1-.77,1.18-1.45q1.71-9.39,3.41-18.78c.25-1.39.57-2.77.72-4.17C95.25,78,94.89,77.32,93.65,77.45Zm25.27,36.68-32.78-3.67c7.11-2.48,13.46-3.16,19.17-5.88-8,.64-15.71,2.59-23.47,4.26a3.26,3.26,0,0,0-1,.42c-.61.39-1.19.89-1.09,1.68s.83,1.09,1.51,1.23a28.63,28.63,0,0,0,4.2.65c4.43.2,8.85.86,13.25,1C105.44,113.93,112.08,115.75,118.92,114.13ZM92.24,75.6a13.33,13.33,0,0,0-5.53-.37c-1.11.11-2,.53-2.11,1.86a3.25,3.25,0,0,0,1,2.84c.86.7,1.68.08,2.37-.39C89.43,78.57,91,77.81,92.24,75.6Z" style="fill: #24292E"/>
    <path d="M62.3,115.52c-2.74,2.34-6.44,2.06-8.9,5,2.05.47,3.52-.47,5.05-.84,2.21-.55,3.52.2,3.45,2.59-.09,3-.27,6-.45,9.05s-.55,6-.57,9c0,2.77.73,3.15,3.15,1.5A74.88,74.88,0,0,1,92,130.39a130.12,130.12,0,0,1,29.68-2.59c1.24,0,2.49.1,3.73.07,3.5-.08,3.5-.1,3.48-3.52a6.12,6.12,0,0,1,8.37-5.63c1.57.66,1.45,1.79.53,3s-3.58,2.09-2.43,4.17,3.69,2,5.79,1.94c13.28-.19,24.64-4.86,33.6-14.81,3.23-3.58,6.47-7.06,11.3-8.89-2.08,3.36-4.5,6.51-6.25,10s-3.38,7-5.9,10.11c-4.21,5.11-9.66,8.33-15.77,10.54A129.68,129.68,0,0,1,129,141.36a50.85,50.85,0,0,0-10.44,2,10,10,0,0,0-4.15,2.31c-2,2-1.38,4,1.34,4.62.69.16,1.43.08,2.13.2,1.57.27,3.54.38,4,2.07.66,2.23-1.19,3.6-2.8,4.66-3.94,2.62-8.52,3.5-13.07,4.27A97,97,0,0,1,96,162.61a12.59,12.59,0,0,0-5.39,2.07,47.45,47.45,0,0,1-34.46,5.4,34.94,34.94,0,0,1-13.38-6.38,10.51,10.51,0,0,1-3.23-3.5c-1.44-2.82-.37-4.95,2.8-5.34,2.11-.26,4.27-.12,6.39-.33,1.41-.15,3-.51,3.23-2.23s-1.35-2.4-2.61-2.93c-3.11-1.31-6.32-2.37-9.42-3.7a34.93,34.93,0,0,1-6.12-3.21c-5.08-3.53-5.57-7.87-1.62-12.68A23.12,23.12,0,0,1,37,125.64c7.13-4.88,15.1-7.88,23.29-10.34C60.77,115.16,61.32,115.4,62.3,115.52Zm78.89,22.56a2.07,2.07,0,0,0-2.13-1.65c-8.84-.57-17.71-1.18-26.53.19-3.85.6-7.7,1.5-10.78,4.16-2.79,2.41-3.78,6.38-2.38,9.12,1.16,2.28,5.31,3.95,8.38,3.37,1.13-.22,1.9-.61,1.73-2.08-.59-5.21.41-6.92,5.2-8.54a45.48,45.48,0,0,1,11-1.93C130.88,140.29,136.16,139.89,141.19,138.08Zm-79.57,30a1.17,1.17,0,0,0-.67-1.52c-3.79-2.16-8-3.8-9.61-8.5-.09-.28-.49-.48-.78-.67-1.76-1.12-5.68-.64-6.26.92-.78,2.11.82,3.31,2.25,4.28C51.12,165.69,56.28,167.18,61.62,168.09Zm18.48-32c-5.22,1.11-10.11,2.83-14,6.59-1.81,1.76-1.79,4.1-.19,5a3,3,0,0,0,4.5-1.41C72.38,141.59,76.32,139,80.1,136.05Z" style="fill: #24292E"/>
    <path d="M63.47,105c-1.47,0-2-1.32-2.78-2.17-3.62-3.9-7-8-10.77-11.75C43.21,84.45,39.24,76.15,35.09,68c-1.29-2.57-.9-3.18,2-3A193.09,193.09,0,0,1,63.3,69c1.88.38,2.63,1.24,2.49,3.28-.7,10.59-1.26,21.19-1.88,31.78A3,3,0,0,1,63.47,105Zm0-15.78c0-1.59-.05-3.18,0-4.77A4.77,4.77,0,0,0,61.14,80,154.69,154.69,0,0,0,39.42,67.8c-.62-.29-1.38-.64-2-.14s-.24,1.29,0,1.93c4.77,12,13.72,20.85,22.5,29.81,1.16,1.18,2.13,1.15,2.57-.7A53.18,53.18,0,0,0,63.45,89.2Z" style="fill: #24292E"/>
  </g>
</svg>
