<svg id="图层_1" data-name="图层 1" xmlns="http://www.w3.org/2000/svg" viewBox="0 0 200 200">
  <g>
    <path d="M95.57,132.8a1.54,1.54,0,0,0,.1-1.63c-10.1,10.75-22.54,18.77-33.86,28.12-4.27,3.53-7.4,3.36-11.36.05,1.54-1,2.86.17,4.28.4,4.28.67,7.1-1.44,7.7-5.75a17.08,17.08,0,0,0-1-7.87,33.24,33.24,0,0,0-11.64-15.89,14.32,14.32,0,0,0-6.36-2.77,7.6,7.6,0,0,0-9.18,6.31c-.26,1.24.33,2.68-.95,3.94-1.41-4.26-.19-7.62,2.67-10.55,1.26-1.29,3-2.19,3.58-4l2.81-1.21L74.45,97.64C70,98.27,66,99.7,61.78,100.51a17.61,17.61,0,0,1-9.36-.32A10.56,10.56,0,0,1,47,83.93q3.14-4.67,9.69-6.42a3.75,3.75,0,0,1,.14,4c-.89.44-2,.87-2.94,1.47-3.18,1.93-4.89,5.73-4.1,8.94.75,3.05,3.62,5,7.73,5.08,4.56,0,8.85-1.39,13.11-2.86,1.57-.54,3.12-1.16,4.5-1.67,4.19,1.22,8.19,2.33,12.12,3.73,3.67,1.29,7.19-.29,10.35-1.85,11,7.72,15,19,12,26.7-2.27,2.66-5.49,4.5-8.55,7.32,6.18,5.8,12.69,10.14,21.66,8.52l2,1.47c.63,1.74,0,2.87-1.64,3.6-6.56,3-13.33,5.32-20.65,4.88-9-.54-11.69-6.2-6.87-14-1,4.23-1.85,8.45,1.69,11.85,3.06-.07,4.34-3.76,7.76-2.59-3-1.15-2.06-3.38-2-5.29.06-3.11-.42-5.91-3.5-7.39C97.61,130.16,96.77,131.67,95.57,132.8ZM73.43,148.09c3.28-11.74-5.83-27.33-17.35-30-2.11-.49-4.32-.77-6.21.72-2.32,1.82-4.83,3.43-6.87,5.76,13.24,4.57,20.31,14.27,21.86,30.13Z" style="fill: #444"/>
    <path d="M113,61.27c2.07-.05,3.19-1.61,4.5-2.85l13-12.39a11.81,11.81,0,0,1,.31,5.71L110.26,69l.62.77,11-8.3c3.45-2.62,7.12-5,10.29-7.93,4-3.71,8-3.32,12.38-1l3.9,2.1c.65-1.63,0-3.38.84-4.74a12.59,12.59,0,0,1,4.46-3.67c8.46.29,15.63,7.89,15.28,16-.15,3.46-2,5.45-5.54,6-1.29.18-2.66-.45-3.85.24-.16.4-.45.75-.38,1,2.31,7.18.58,12.52-5.84,17.18-10.5,7.63-20.4,16.1-30.58,24.17-1.27,1-2.35,2.37-4.54,2.75a27.57,27.57,0,0,0-4.8-15.26,38.87,38.87,0,0,0-11.52-11.47c-.32-3.17.67-6.16-.42-9.12A8.49,8.49,0,0,0,99.88,75c3.48-3.24,6.89-6.37,10.23-9.58,1.29-1.23,3-2.19,3.1-4.32Zm16.59-2.69c11.27,2.49,21.15,13.94,21.4,27.31,2.42-2.08,4.94-3.62,6.69-5.79,1.54-12.57-9.06-25.63-21.64-26.71A34.56,34.56,0,0,0,129.6,58.58ZM163,66.43c2.67-2.92,2.86-4.4,1-7.84-3.09-5.7-7.68-8.44-12.62-7.48-.78,1.1-1.3,2.24-.09,3.68L154,53.16C160.34,55.78,163,59.73,163,66.43Z" style="fill: #444"/>
    <path d="M113,61.27l.2-.16c-2,.65-2.53-1.19-3.44-2.22a82.15,82.15,0,0,0-16.1-14.14,42.91,42.91,0,0,0-14.21-5.88C70.06,36.69,62.56,43,60.07,50c-2.73,7.68-2.33,15.38-.13,23a3.64,3.64,0,0,1-2.77,2.41,1.17,1.17,0,0,1-1.23-.88,40.7,40.7,0,0,1-.87-24.12c3.28-12.09,13.78-18.5,26.09-16.08,9.27,1.82,16.9,6.83,23.93,12.85a57.4,57.4,0,0,1,9.72,10.65C115,59.42,113.72,60.2,113,61.27Z" style="fill: #444"/>
    <path d="M36.22,138.15c4.38-.67,8.75-2.32,12.68,1.43,3.38,3.22,5.72,6.83,6,11.88-2,2.44-4.12,5-6.28,7.48-1.89,2.17-4.21,2.5-6.77,1.31a18.45,18.45,0,0,1-10.81-14C30.22,142.28,32.84,140.16,36.22,138.15Zm-1.48,4.13c-2.15,4-1.39,7.43,2.35,11.73,3.47,4,5.46,4.71,9.17,3.3A12.93,12.93,0,0,0,34.74,142.28Z" style="fill: #444"/>
    <path d="M78.16,87.05c.57,1.5.63,2.6-.3,3.84a35.52,35.52,0,0,1-12.14-.45,7.59,7.59,0,0,1-5.49-3.93c-2.49-4.82-1.43-9.39,1.52-13.59a10.44,10.44,0,0,1,11.32-4.51,19.62,19.62,0,0,1,11.84,7.74c-.65,1.55-1.94,1.73-3.39,2-4.15-3.36-8.31-7.57-14.45-4.49-2.9,1.47-3.69,6-2.43,10.84C68.52,88.09,73.51,86.12,78.16,87.05Z" style="fill: #444"/>
    <path d="M112,119.22c1.91-6.22-.27-11.12-3.52-15.7-5.38-7.59-11.68-14-21.41-16.23.48-3.08,2.34-3.62,4.68-3.15a21.9,21.9,0,0,1,8.11,3.7,46.33,46.33,0,0,1,15,17.69C117.51,110.8,116.66,114.44,112,119.22Z" style="fill: #444"/>
    <path d="M42.33,121.9l-2.81,1.21a29.28,29.28,0,0,0-8.2,7c-.58-3.74-.83-6.44,1.89-8.25,10.5-7,21.08-13.88,31.63-20.78.24-.16.64-.07,1.35-.13-.12,1.34-1.14,1.83-1.93,2.44q-9,7.06-18.06,14.1C44.64,118.75,42.88,119.79,42.33,121.9Z" style="fill: #444"/>
    <path d="M91.85,79.74l-.21,1.71c-2,1.1-5,0-6.66,3.2-.1,2.83,1.27,4.83,4.62,5.49,2.05.4,4.44.42,5.09,3.38-4.07,2.17-8,1.93-11.57-.9a8.08,8.08,0,0,1-3-8c.7-4,3.38-5.9,6.23-6.21,2.8-.15,3.93,1.53,5.66,1.56Z" style="fill: #444"/>
    <path d="M132.19,134.27l-1-2.9c5-7.28,6.27-15.43,5-24.13-.44-2.87-.36-2.88,1.59-4.81,4.74,7,1.78,25.24-5.68,31.68Z" style="fill: #444"/>
    <path d="M124.7,138.32l-2-1.47c.32-4.07,2.85-6,6.25-4.73a18,18,0,0,1,3.24,2.15l-.15-.16c-.22,5.6-.53,6-5.19,7.27C125.29,141,125.77,139.09,124.7,138.32Z" style="fill: #444"/>
    <path d="M66.64,81.39a3.1,3.1,0,0,1,.52-4c1.42-.73,7,1.18,11.48,3.88.93,1.11.29,2.14-.17,3.85A54.86,54.86,0,0,0,66.64,81.39Z" style="fill: #444"/>
    <path d="M131.25,126.85a93.8,93.8,0,0,0-3.2-16.13,2.69,2.69,0,0,1,2.35-2.24C134.16,116.06,134.58,122.12,131.25,126.85Z" style="fill: #444"/>
    <path d="M92,79.94c-.12-1.45-2-1.8-2.07-3.26,5-2.76,8.29-1.4,10.35,4.29-1.49.81-1.46-.89-2.14-1.35a4.09,4.09,0,0,0-3-1.16c1.06,2.09,3.78,3,3.67,5.72-3.47.28-4.79-2.81-7-4.44Z" style="fill: #444"/>
  </g>
</svg>
