<svg id="图层_1" data-name="图层 1" xmlns="http://www.w3.org/2000/svg" viewBox="0 0 200 200">
  <g>
    <path d="M142.79,75.94c-1.43,0-2.94-.41-4.49.89,2.76,3.78,5.31,7.62,5.34,12.89-2.28-2.34-2.81-5.63-5.94-7.43-.75,2.6,0,4.8.07,7.16l6.39,5.24C141.55,94.51,141,92,138.63,92c-1.76.36-1.3,3-2.85,4a7.71,7.71,0,0,1-4.24,1.28c3.1-2,5-4.39,3.15-8.17-.83,2.76-4.43,4.53-3,8.1-8.44,3.91-17.65,5.63-26.36,9.23L104,111.22c-4.22-.46-5.25,3.92-8.62,5.53-1.91-.24-4-1.32-6.17-1-1-.87.25-1.61-.41-2.62-5.41,2.13-10.81.24-16.31-.65,3.53,3,7.94,3.07,12,4.45a103,103,0,0,1-23.51-6c4.62-.3,9.56,1.3,14.74-2.21-4.92-1-8.91-1.33-12.46-3,.36-3.87-3-4.21-5.13-5.72-5-3.8-6.75-9.18-7.24-15.2,0-1.47,1.68.11,2.4-1.77.57-2.22-1.25-5-1.35-7.95,1.53-1,2.39.83,3.71.75,2.2-1.33-.31-3.33.61-5.12l3.7.43c1.27,4.27,3,2.46,5,.68-1.66-3-3.41-1.33-5.11-.54,0-2.2,3-3.08,2.22-5.84,6.33.3,10.71-2.75,14.42-7.38C71.11,57,65.93,57.94,61.38,58c-2.13,1.17-1,2.88-1.8,3.94-1.82,1.1-2.89-1.6-4.47-.89-2.38.27-2.48,2.31-2.79,4-6-2.65-6.94-4.48-4.21-7.23,0,1.76.37,3.31,2.3,4A5.21,5.21,0,0,0,53.86,59c-1.11-1.24-1.51-3.39-4-2.74a9.53,9.53,0,0,1,1.55-4c9.94-1.4,9.94-1.4,11.23-7A24.08,24.08,0,0,1,72,40.05l-.14.11c4.61-2.13,9.48-3.9,11.46-9.31.57-1.57,2-2.08,4.85-2.66-4,2.53-3.24,6.47-6.05,8.89,2.24.18,2.71-2.69,5.08-1.52-1.43,3.28-6.46,3-6.8,7.45,2-.69,2.8-3,4.77-3.61a7.31,7.31,0,0,0,4.73-4.25c3.66.52,6.38-1.06,8.79-3.58a25,25,0,0,1-7.4,8.86c1.7,1.75,3.36.74,5.07.74A8.43,8.43,0,0,1,98.74,36c8.49-2.54,16.89-.57,25.28-.33-4.64,0-9.11,1-13.72,1.67.23.62.32,1.15.46,1.17a30.65,30.65,0,0,1,11.92,4.18c4.26,2.42,9.19,2.76,13.81,2.76-2.71,1.51-6.08,1-10,1.74,4.68,3.38,8.2,6.89,10.17,12-2,.19-2.93-2-5.1-1.55,3.47,6.27,10.16,10,12,17-3.25-2-5.09-6-9.69-6.86a21.14,21.14,0,0,0,2.33,7.18Zm-46-31.24c-2.64.59-2.73,2.84-3.56,4.94,6.11,2.47,11.93.67,17.84.47C106.09,46.25,100,53,95.32,48.53c0-1.85,1.28-2.34,1.89-3.28l6.69-.79C101.06,43.77,98.86,43.3,96.74,44.7ZM96.05,59c.6,1.85-2,1.14-2,2.5,5,2.62,7.36,2.19,10.64-2,.09-.12-.19-.54-.34-.92l-3.25,1.55L96,59.05c.1-2.26,1.9-1.71,3.25-2,5.2-1.27,10.37-2.63,15.55-4l-.33-1.27c-7.48.68-14.55,3.48-22.07,4.3C93.43,57.82,94.42,58.88,96.05,59ZM107.94,68a8.55,8.55,0,0,0,2.77,5.72c2.74-.81,5.25-1.86,6.51-4.68-.8-2.17-1.55-4.14-3.57-5.39-2.18,1.25-3.21,3.94-5.84,4.49-1.08-1.39-2.38-.49-3.65-.41-6.59.44-12.23-1.83-17.12-5.64.28-5,.28-5-2.36-7.34.08,1.48.16,3,.22,4.24-3,4.42-3,4.32-7.64,6a44.4,44.4,0,0,0-6.17,3.17c-.81.46-1.2,1.19.09,1.69-1.11,4.29-5.81,4.25-7.83,6.77-2,.26-3.5-1.61-5.61.48l3.57,3c6.14-2,10.23-5.66,13.71-10.64L71,70c4.16-3.72,10.07-3,14.53-6.18C92.44,69.19,99.63,71.93,107.94,68Zm2.24,7.71c-.37,3.75-1.05,7.43-4.31,10.65,3.68.81,6.89,1.75,9-.79,3.18-3.76,4.1-8.35,2.8-13.6ZM84,88.87c5.74,6.67,21.43,6.3,27.17-.37-2.94-.59-5.8-1.35-8.35-.32C96.79,90.61,90.8,91.43,84,88.87Zm15.51-1.41C95.28,81.81,87.85,80.78,83.94,85,86.64,90,92.65,91,99.51,87.46ZM79.09,69.23c2.7,1.42,4.86-.3,7.19-.26C92,72.15,98,74.41,104.62,73.31a12.49,12.49,0,0,1,.76,5.85c-.24,1.9-2.24,2.62-2.91,4.53,5.45-1.93,6.23-5.62,2.81-13-7.36,2.73-13.77-.65-20-3.87C83.12,67.42,81.15,67.73,79.09,69.23ZM112,60.11c-1.66.52-2.86-.6-4.39-1.31-.62,2.08-3.06,2.59-3.25,5.18C107.66,63.9,110.24,63,112,60.11ZM94,77.53c-3.56,1.38-7.54-.24-11,1.31C86.57,77.58,90.76,81.63,94,77.53Zm8.35,1.17L96,80.5a5.42,5.42,0,0,0,4.53,2.12C102,81.76,102.88,80.76,102.34,78.7ZM66,50c3,.18,4.33-1.58,6.56-2.78C68.8,45,67.17,46.24,66,50ZM55,88.6c1.75,2.32,3.22,5,7.29,6C60.1,91.34,57.15,90.4,55,88.6ZM87.53,48.69c-.8-.58-1.61-1.15-1.93.1Z" style="fill: #24292E"/>
    <path d="M152.24,106.76v55l-51.62,21L40.5,162.6v-25c-.72-1.42-2.54-1.4-3.12-2.7.34-.05.64-.19.87-.11,3.57,1.27,5.74,3.49,6.29,7.53.32,2.35,1.86,4.53,3,7.13,2.06-1.48,1.18-3.91,2.23-4.63,1.43-1.26,2.23.4,3.31-.26a3.78,3.78,0,0,0,.34-1.28c-.3-4.74-1.89-8.63-6.44-11-3-1.56-5.11-4.17-7.18-7.12l1.06-5.78L99.1,136.05v43.81h1.47V136.31l51-17.94-.62-2c-5.42,1.32-10.63,3.45-15.93,5.23-5.68,1.91-11.31,4-17,5.81-5.5,1.77-10.83,4.11-16.62,5.33a16.76,16.76,0,0,1,.06-8.61ZM46.5,161.1c12.86,5.09,25.3,10.19,38.48,13.18,2.75.62,4.54-.18,5-3.21-1.23-1.9-4.19-2.73-2.93-5.76-4.71-1.4-6.11-5.23-7.62-9.16-4.68-1.69-9.88-1.75-13.35-4.14C58.61,153.55,50.64,152.52,46.5,161.1Zm84.1-8.4c-1.54,2.27,0,4.92-.88,7.26-1.24,3.22-3.85,3.06-7,2.16a8.54,8.54,0,0,0,5.57,6.35,118,118,0,0,0,21.8-8.38c-.33-9.7,2-19.44-2.52-28.42-2.33-.1-3.79,0-5,1.51-2.09,4,3.53,7.9.46,12.22a35,35,0,0,1-9.08,8.78C132.07,155.25,132.27,152.06,130.6,152.7ZM76.33,140c4.81-4.67,8.23,2.28,12.91,2.16C77.92,130.75,72,129,64.9,134.65c1.18,7.94,6.77,13.06,13.73,12.49C78.1,144.9,75.63,143.41,76.33,140Zm39.61-5c-3.39,1.17-5.17,3.54-6.33,6.73,2.46-1.6,4.65-3.71,7.79-2.4A4.13,4.13,0,0,0,115.94,135.07Zm13-4.83c-1.19.07-1.82.3-1.52,1.35C128.2,131.62,128.67,131.32,129,130.24Z" style="fill: #24292E"/>
    <path d="M98.57,124.34a21.35,21.35,0,0,1-.27,8.86L41.16,116.84c-1.23-3-.65-5.65-.59-9Z" style="fill: #24292E"/>
    <path d="M102.14,121.1c4.73-5.92,4.73-5.92,6.41-13.21l31.56-11.36c2.35,2.89,5.76,5.06,5.7,9.9-3.51,1.22-7.05,2.51-10.63,3.69-11,3.62-21.87,7.89-33.11,10.91Z" style="fill: #24292E"/>
    <path d="M31,104c-3.15,4-7.49,7.49-6.95,14,1.9-1.87,1.94-4.39,4.32-5.86l.69,4.78c.9,1.16,1.66.43,2.54.24,1.93,6.76,9.52,9.48,11.94,16.61-6.42-.35-11.65-3.86-17.72-4.52-6.41-8.37-3.82-21.12,5.29-25.14Z" style="fill: #24292E"/>
    <path d="M72,40.05c-1.78-2.94,1.55-4.41,2-6.77.76-3.71,4.75-6.33,2.91-11.51,4.22,3,4.22,3-.12,13.87-1.43,1.69-4.25,2-5,4.52Z" style="fill: #24292E"/>
    <path d="M31.07,104.06c.28-2.16-2.58-3.11-2-5.91,3.4,2.07,7.38.49,11.15,2.24-2.32,3.66-6.47,1.93-9.29,3.58Z" style="fill: #24292E"/>
    <path d="M37.62,105.82c.4,4.45-2.18,8.08-3.4,12.51-3.49-4,1.39-7.42.24-11.07l3.27-1.36Z" style="fill: #24292E"/>
    <path d="M53,98a3.44,3.44,0,0,1-2.72-1.83l-4.56,1.21c-1.43,1.29-1.07,2.94-1.69,4.23-.17-1.75-1.33-3.52.33-5.46,1.37-2.11,4.83.15,6.16-2.77A13.18,13.18,0,0,1,53,98Z" style="fill: #24292E"/>
    <path d="M98,119.13c.45,2.57,2.65,1.5,4.11,2l-.07-.07c-2.6,2.14-5.07.14-7.54-.33a31.89,31.89,0,0,1-7-2.39c3.67-1.12,7,1.78,10.64,1Z" style="fill: #24292E"/>
    <path d="M43,104.15a1.89,1.89,0,0,0,2.33,1.3c1.79-1,1.54-3,2.1-4.69,1.43,2.13-.53,4.24.17,6.28-3.42.49-6.49-1.84-9.93-1.22l.11.08C39.1,104.21,41,104.22,43,104.15Z" style="fill: #24292E"/>
    <path d="M49.93,107.45c3.67,1.34,7.67,1.69,11.16,3.59C57.16,110.49,53.18,110.11,49.93,107.45Z" style="fill: #24292E"/>
    <path d="M98.14,119.26c.12-1.84,1.72-2.31,2.86-3.2-.26,1.74-1.51,2.51-3,3.07Z" style="fill: #24292E"/>
    <path d="M71.38,158.37a5.16,5.16,0,0,1-5.2-2.17C68.62,156,70,157.27,71.38,158.37Z" style="fill: #24292E"/>
  </g>
</svg>
