<svg id="图层_1" data-name="图层 1" xmlns="http://www.w3.org/2000/svg" viewBox="0 0 200 200">
  <g>
    <path d="M62.79,61.76c6-4.74,13-7.3,20.14-9.54a65.37,65.37,0,0,0,8.6-3.63c4.6-2.21,4.63-7.05,5.35-11a32.72,32.72,0,0,0-1.85-19c11.54,6.28,21.65,12.9,33.23,17.68-2.25,1.43-5,0-6.58,2.25,2.21.92,4.36.4,6.45.4,27.1.11,38.56,28.34,29.7,46.47-6.45,13.18-14.78,23.15-30,25.81-1.49.26-2.82,1.47-4.57,2.44,11.26,1.12,18.26,9,26.65,14.4l.16-.07a22.42,22.42,0,0,0-7.92.12c-21.11,4.8-38.63,15.61-52.91,31.75C87,162.41,85,165.34,85,169.08l.12-.11c-1.69-9.95-1-20-2.27-29.86,7.31-2.49,8.88-4.09,8.74-9.13a10.53,10.53,0,0,1-7.19,6.81c-2.91-1.75-3.08-5.17-4.23-7.95-.52-1.27.09-2.66,2-2.35,2.4-.35,4.33,1.38,6.54,1.62,2.39-1.25,3.74-2.87,2.7-5.6-.08-.2-.54-.27-.86-.42-1,1.08.09,3-1.87,4l-6.54.43.27-2c1.58-1.14,3.81,1.48,5.49-.81-1.12-2.15-3.33-.4-5.1-1.32,3.4-6.22,8.49-10.37,14.31-13.89a50.09,50.09,0,0,1,12.21,16.46c-5.55-.8-10.39.56-15.18,2.52,4.59.46,9,2.53,14.11.46-1.44,3.74-4.1,5.85-4.89,9,4-.77,8.32-5.31,10.57-11-5.32-5.47-8.92-12.19-14.57-18.49,4.85-.38,8.41-2,11.75-3.25,2.21.3,2,3,4,3.08,1.53-.41.66-1.58.75-2.45L118,105a30.39,30.39,0,0,0,7.15,5.29c9.38-2.14,18.62-5,24.71-13.67,3.62-5.19,6.77-10.7,8.4-16.82a31,31,0,0,0-3.63-24.87c-4.24-6.93-13.1-10.1-19.72-7.5,1,.56,1.83,1,2.65,1.52s2.16.92,2.57,2.17c-11.27-6.51-22.28-1.77-33.19.2,2,11.3.61,22.19,2.14,33.3l-5.17-1.84.17.18c-2.14-9.23-6.2-17.36-14.27-23.31,6-2.77,11.63-.19,17.21-.94-.86-2.91-2.75-2.5-4.26-2.88-6-1.47-11.88.38-17.83.23,6.86-3.85,14.22-1.43,21.73-1.25-1.45-2.35-3.43-2.33-5.14-2.5a48,48,0,0,0-17.28,1.15,94.32,94.32,0,0,0-21,8.88Zm48.84,51.66c1.94,5.86,3.4,7.75,7.44,9.82C118,119,115.28,116.17,111.63,113.42ZM81.84,127.93c-.19,2.8,1.66,3.6,2.86,4.89,1.45-.35,3,0,4.36-1.41C87.45,128.71,85,128.07,81.84,127.93Z" style="fill: #444"/>
    <path d="M68.73,106.67l-2.3-2.06c-2.12-.37-2.92,1.21-4.55,2.06l-21-16.21c1.52-14,11-21.91,21.9-28.7l.46.55c-2.62,2-5.33,4-7.85,6.1-6,5.13-11.16,10.91-13,18.92-.28,1.17-.69,2.33,1.22,2.51,1.77-6.29,4.05-12.26,9.86-16.06-3,4.74-6.82,9-8,14.78-.38,1.82-1.09,3.63,1.76,4.23C53.47,73.2,68.34,64.21,87.12,59.23c3.37,7,8.65,12.05,11,19.87a90,90,0,0,0-26.24-4L91,80c1.56,2.76,4.92,4.81,5.09,8.77,2.27.24,2.87,2,3.66,3.72-4.29,2.57-7.76,6.1-13.91,5.32l3.15,2-6.14,5.8c-2.17-.9-2.72-3.37-4.88-3.75l.18.12c-.52-.9-1.14-1.54-2.26-.93-1.41,1.36-.13,4-2.41,4.9C71.76,105.52,70.29,106.42,68.73,106.67Z" style="fill: #444"/>
    <path d="M66.5,123.6l-.25,1c-1.49.5-.72-1.7-1.2-1.62-1,0-1.37-.12-1.61,0-6.93,4-13.73,8.12-16,16.74-1,3.92-.79,7.35,2.09,10.13s6.29,2.58,9.78,1.09,6.37-4.2,9-7a47.55,47.55,0,0,1,5.21-5.12,81.73,81.73,0,0,1-17.37,19.59l7.39,5.19c-3.83.34-5.33-3.36-8.81-3.68-.82.16-2.12.43-3.43.63-10.29,1.58-16.63-4.91-14.9-15.34,1.3-7.78,6-13.2,12.44-17.28a54.16,54.16,0,0,1,15.85-6.59c1.55.21.9,1.84,1.88,2.27Zm-17.58,30c-3.55.24-6.12-1.54-8.43-4C41.85,154.13,45.15,154.46,48.92,153.59Z" style="fill: #444"/>
    <path d="M68.73,106.67c1.56-.25,3-1.15,4.7-.68,1.06.88,1.92,1.82,1.73,3.36-.3,2.51,1.31,3.18,3.45,3.84-.06-2.74-2.5-4-2.49-6.64a6,6,0,0,1,2-4.53l-.18-.12c.58,2.41,2.44,4,3.37,6.06,5.3-.25,5.3-.25,6.7,1.62a18.3,18.3,0,0,1-3.68,5.28l-3,1.16c1.28,2.85-.25,5.34-.4,7.83-2.18,1.7-4.17,1.51-6.41.19l-3.18,1.68c-2.48.31-3.13-1.89-4.81-2.12l0,0c.87-.35,1.12-1.13,1.35-2.06a22.56,22.56,0,0,0-6.8-6.3c-1.29-4.11,4.55-5,3.23-8.49C66,105.58,67.39,105.67,68.73,106.67Z" style="fill: #444"/>
    <path d="M84.31,114.86A18.3,18.3,0,0,0,88,109.58a4.21,4.21,0,0,0,.57-3.19c-.55-1.15-2.08,0-2.59-1.71,8.11-6.33,15.37-14.7,28.14-11.48-1.08,4.37,3.84,5.39,4,8.93-1.16-.6-1.76-2.41-3.57-1.65-.72.78-.42,1.76-.44,2.68-1.53-.28-1.47-2.15-3.49-3.07-11.35,1-18.35,10.25-26.92,17C83,115.92,84,115.52,84.31,114.86Z" style="fill: #444"/>
    <path d="M75.27,130.28A2,2,0,0,1,75,133c-2.94,3.8-5.75,7.73-9.43,10.86-4.79,4.08-10.25,3.88-13.4-.74,5.72-8,16.48-9.08,22.39-16.71,1.73,1.85.25,2.45.15,3.32-5.9,5.65-14.81,7.22-20.51,14.69,5.46,1.47,8.91-.81,11.83-3.65C69.38,137.52,72.22,133.79,75.27,130.28Z" style="fill: #444"/>
    <path d="M155.13,131.06c-18.59-1.29-33.7,7.39-48.42,17.05a72.42,72.42,0,0,0-19.38,19.17A9.93,9.93,0,0,1,89.85,162c15-17.22,33.3-28.68,56.18-32.1,1.58-.24,3.45.27,4.09-1.92L150,128Z" style="fill: #444"/>
    <path d="M109.94,177.56c.92-1.93,2.93-2,4.58-2.65,14.82-6.06,28.33-14,38.71-26.56,3.24-3.9,5.81-8.16,4.81-13.7l-3.13-3.73c3.63.72,4.27,3.66,5,6.76-.75,4.77-3.14,8.86-6.33,12.56C141.82,163.83,126.73,172.06,109.94,177.56Z" style="fill: #444"/>
    <path d="M82.11,151.72c-5.86-2.21-7.5-15-3.44-25C79.94,135.48,76.13,144.23,82.11,151.72Z" style="fill: #444"/>
    <path d="M87.51,167c-1.29,3.79-2.06,7.56.59,11.14-4.65-1.84-2.91-5.79-3-9.13l-.12.11Z" style="fill: #444"/>
    <path d="M87.87,177.93a31.58,31.58,0,0,0,13,1.11C96.42,180,92,180.72,87.87,177.93Z" style="fill: #444"/>
    <path d="M152.85,138.77c.31,3.34-1.53,5.39-3.34,7.27-13,13.46-28.34,22.94-46.64,27.33-3.91.93-4.1.8-7.59-.91-.93-2.79.76-4.84,2.39-6.6,12.82-13.82,27.91-24,46.5-28.39C148,136.55,149.49,136.91,152.85,138.77Z" style="fill: #444"/>
    <path d="M133.16,97c-2.61,3-6.34,3.84-9.86,5-2,.69-4,1.42-5.38,3.14v-3.2C123.55,102,128,98.42,133.16,97Z" style="fill: #444"/>
    <path d="M139.9,50.91c7.3,4.05,11.53,14.5,8.56,21.17.87-6.84-1.56-12.61-5.72-17.83C141.83,53.1,140.32,52.47,139.9,50.91Z" style="fill: #444"/>
    <path d="M103.9,82.75c.07,2.68,2.28,5.06,1.21,8.29-2.26-1-3.08-3.08-4.64-4.41.92-1.67,1.37-3.54,3.6-3.7Z" style="fill: #444"/>
  </g>
</svg>
