<svg id="图层_1" data-name="图层 1" xmlns="http://www.w3.org/2000/svg" viewBox="0 0 200 200">
  <g>
    <path d="M72.29,93.8c3.88-.92,5.21-4.78,8.1-7.34,7.84,10.69,19.69,10.76,31,10.79s23.21-.37,30.93-11.19c10.45,12.51,12.13,20.43,5,33.07l-4.16-2.85c-6.86.72-12,2.85-10.71,11.31-4.44.54-6.13,4.19-8.94,7.14-12.33,1.7-24.82,2.23-36.89-2.32-1-10.29-3.6-13.29-14.62-17.19C68.26,108.39,68.84,101.42,72.29,93.8Z" style="fill: #444"/>
    <path d="M116.78,73.62c7.64-1.33,18.26,2.27,20,8.84-.65,3.51-3.35,5.23-6.36,6.32a55.12,55.12,0,0,1-38.53.07c-3-1.08-6.22-2.69-6.27-6.35s3.21-5.28,6.15-6.46c4-1.61,8.17-3.34,12.18-2.6,1.74,1.87-.45,3,1.48,5.73,2,2.19,6.06,1.47,9.87.4,1.69-.48,3.37-2.09.7-3.91l.22-1.64Z" style="fill: #444"/>
    <path d="M134.5,142.27c2.06,6.58,6.57,6.62,11.69,4.91-.78,5.89-4.81,8.3-12.06,7.32-12,7.22-24.29,14.64-36.6,21.95-6.21,3.68-11.36,2.28-15-4.53Z" style="fill: #444"/>
    <path d="M123.31,135.72l5.94,7.08-26.12,14.67c-7.55,4.23-15,8.59-22.66,12.66-5.92,3.16-10.57,1.11-12.21-5.53Z" style="fill: #444"/>
    <path d="M55,157.25a7.48,7.48,0,0,1,1.38-1.15c12.29-5.09,23.76-11.91,35.85-17.38,6-2.7,12.79.13,19.19-.62.43,2.08-1.24,2-2.08,2.47q-20.53,10.89-41.14,21.66C62.12,165.43,58,163.91,55,157.25Z" style="fill: #444"/>
    <path d="M72.12,90.24C67.43,98,66.92,106.07,69,114.31a7.71,7.71,0,0,1-5.25.22c-4-3.25-6.23-7.73-7.47-12.59C54.69,95.71,50.93,91,46.8,86.37c-2.87-3.22-7.16-2.09-10.48-3.87,5.37-7.8,14-8.7,20-2.17A32.61,32.61,0,0,0,72.12,90.24Zm-21-11.88c-5.23-1.2-8.67-.07-12.24,3.44C43.37,81.55,47.06,81.5,51.12,78.36Z" style="fill: #444"/>
    <path d="M10.87,124.86l44.86-16.63,4.15,5.93a298.36,298.36,0,0,1-39.23,17.5C15.4,133.48,11.78,131.24,10.87,124.86Z" style="fill: #444"/>
    <path d="M76.42,140.7c-1,6.28-5.78,7.72-11,8s-10-.77-12.39-6.36a19.88,19.88,0,0,0-4.84-6.84c-4.62-4.4-4.16-10.2.82-14.23,7.43-6,23.63-6,31.08.11,4.92,4,5.3,9.21,1.06,13.86-1.66,1.82-3.24,3.73-4.86,5.6-.46-.72-.38-2.12-1.91-1.48-6.7,2.81-13.5,2.2-20.64.2,1.48,5.53,4.77,7.41,9.87,7.71C69.38,147.58,73.08,144.69,76.42,140.7ZM64.51,120.45c-3.7.09-7.33.54-10.49,2.68-4.84,3.27-4.81,8.54,0,11.84,5.48,3.73,16.61,3.57,21.89-.33,4.37-3.23,4.39-8,0-11.18C72.52,121,68.56,120.53,64.51,120.45Z" style="fill: #444"/>
    <path d="M88.94,48.76c-9.79,3.53-20.09,15.82-18.07,22.05-1.54,1.06-3.1,2.06-2.79,4.43,2.14,2.84,6.39,3.59,7.78,7.22-.73,2.91-3,5.28-2.41,8.93,2.85-2.7,4.27-6.37,8.23-8.08l.08-.94a2.06,2.06,0,0,1,0-1,35.07,35.07,0,0,0-8.71-8.23c1.06-1.67,1.93-3.07,2.73-4.34C74.48,59.23,85,56.72,88.94,48.76Z" style="fill: #444"/>
    <path d="M81.76,82.37l.08-.9-.07-.09A2.06,2.06,0,0,0,81.76,82.37Z" style="fill: #444"/>
    <path d="M157.77,140.29l-9.14-.79c.29-1.87.58-3.71.9-5.77l26.12-14.82,10.12,4.43Z" style="fill: #444"/>
    <path d="M91.8,52.23l-3.07-6.3c8.68-7.18,34.91-7.36,44.45-.25,0,2-1.42,3.25-2.5,5.2C117.78,47.23,104.79,46.38,91.8,52.23Z" style="fill: #444"/>
    <path d="M43.27,124.4c-.22,3.71-.68,6.67.81,9.32-13,7.14-21.1,10-23-.89Z" style="fill: #444"/>
    <path d="M146.23,131c2.59-2.23,3.32-5.16,2.93-8.91l15.31-8.16,9.36,3.86c-9.12,5.07-17.45,9.73-25.84,14.31-1,.54-1.44-.35-1.6-1.26Z" style="fill: #444"/>
    <path d="M146.39,130.83l-4,1.37c-1.9-2.74-6.58-.19-7.68-3.58-1.51-7.34,1.28-10.6,8.57-10.34l4.53,6.41c0,2.49-2.7,3.9-1.63,6.3Z" style="fill: #444"/>
    <path d="M50.84,142.7c-10,7.28-17.28,6.84-17.89-1.09,1.45-2,3.95-2.17,6-3.18s4-1.64,6-2.47C47.92,137.4,50.21,139.32,50.84,142.7Z" style="fill: #444"/>
    <path d="M63.15,150.37c-12.63,8.5-17.6,6.08-19.19-1.68L51.52,145C54.15,148.4,57.67,150.28,63.15,150.37Z" style="fill: #444"/>
    <path d="M133.55,50.23c3.87-3.67,13.93,5.39,18.7,16.84-2,1.82-2,1.82-4.81,1.4C146.85,62.24,146.85,62.24,133.55,50.23Z" style="fill: #444"/>
    <path d="M151.6,69.63c2.13,1,3.1,2,3.41,3.85-2.45,3.34-7.68,4.14-8.91,9.08.32,3.06,3.31,5.56,2.78,9.86l-7.52-11.06C143.58,76.07,148.64,73.7,151.6,69.63Z" style="fill: #444"/>
    <path d="M130.05,129.91l6.24,1.83,1.62,5c-1.26,3.06-4.59,2.44-6.27,4.27-3.24-.85-3.93-3.58-5.62-5.81Z" style="fill: #444"/>
    <path d="M152.44,143l-4.39,3c-1.4-1.22-.16-1.7.43-2.5-.56-1.13-2.59-.27-2.91-2.23H155c2.07,1.34,3.21,3.66,3.95,6.1-2.48,5.74-5.73,7.56-10.12,5.42,2.69-1.23,5.59-1.76,7.23-4.5A5.36,5.36,0,0,0,152.44,143Z" style="fill: #444"/>
    <path d="M116.78,73.62l-.54.39c-3.38-2.69-7.28-2.48-11.23-2-2.36-1.88-1.37-3.76.65-4.5,4.23-1.56,8.53-1.86,11.52.79C118.47,71.08,116.84,72.17,116.78,73.62Z" style="fill: #444"/>
    <path d="M105,72.06c3.95-.53,7.85-.74,11.23,2-.07.55-.15,1.1-.22,1.65-2.11,6-6.3,2.16-9.94,3.16C106.17,75.77,107.34,73.51,105,72.06Z" style="fill: #444"/>
    <path d="M150,119.22c1.22-3.87,2.1-6.68,3.19-10.11l8.95,3.7Z" style="fill: #444"/>
    <path d="M78.31,143.78c.92-4.68,3.93-6.82,6.49-9.47l6.44,3Z" style="fill: #444"/>
  </g>
</svg>
