<svg xmlns="http://www.w3.org/2000/svg" xmlns:xlink="http://www.w3.org/1999/xlink" width="24" height="24" viewBox="0 0 24 24" fill="none">
<path   fill-rule="evenodd"  fill="#BFB8AC"  d="M14.5098 6.61205C12.1504 5.60633 9.4184 6.10623 7.56811 7.88246L6.7705 6.44634C8.22218 5.18853 10.0794 4.49736 12.0002 4.5C16.4184 4.5 20.0001 8.08166 20.0001 12.4999C20.0001 14.2088 19.464 15.7927 18.5521 17.092L16.0001 12.4999L18.4001 12.4999C18.4004 9.9352 16.8693 7.6179 14.5098 6.61205ZM7.99997 12.5L5.59999 12.5C5.59972 15.0648 7.13078 17.3821 9.49028 18.3879C11.8497 19.3937 14.5817 18.8937 16.432 17.1175L17.2296 18.5536C15.7779 19.8115 13.9207 20.5026 11.9999 20.5C7.58165 20.5 4 16.9183 4 12.5C4 10.7912 4.53606 9.20724 5.44798 7.908L7.99997 12.5Z">
</path>
</svg>
