<svg xmlns="http://www.w3.org/2000/svg" width="15" height="15" viewBox="0 0 15 15" fill="none">
  <path d="M6.56455 15C6.29961 15 6.07769 14.91 5.89878 14.73C5.71987 14.55 5.63011 14.3275 5.62948 14.0625V8.4375L0.206103 1.5C-0.0276636 1.1875 -0.0625727 0.859375 0.101375 0.515625C0.265324 0.171875 0.549584 0 0.954155 0H14.0451C14.4503 0 14.7348 0.171875 14.8988 0.515625C15.0627 0.859375 15.0275 1.1875 14.7931 1.5L9.36974 8.4375V14.0625C9.36974 14.3281 9.27998 14.5509 9.10044 14.7309C8.92091 14.9109 8.69899 15.0006 8.43468 15H6.56455ZM7.49961 7.78125L12.1282 1.875H2.87104L7.49961 7.78125Z" fill="white" fill-opacity="0.4"/>
</svg>

