<svg id="图层_1" data-name="图层 1" xmlns="http://www.w3.org/2000/svg" viewBox="0 0 200 200">
  <g>
    <path d="M55.13,123.85c-.81-1-2.45-1.21-2.81-3.22.38-3.85,3.49-6.14,6.58-8.39,2.15-1.56,4.57-2.78,6.58-4.49a21.65,21.65,0,0,0,7-10.89c-.17-2.36-2.52-2.94-3-5.1a83.21,83.21,0,0,1,11.71-7.42c4.24,4.76,9,8.86,12,14.55-2.63,5-6.57,8.58-10,12.76A37.33,37.33,0,0,0,83,122c12.25-12.62,22.84-25.52,34.81-37.41a99.21,99.21,0,0,1,12,7.43l-3.43,4.09a22.29,22.29,0,0,0,9.91,13.71,45.48,45.48,0,0,1,6.54,4.55c1.85,1.72,3.5,3.56,3.81,5.82,0,2.3-1.82,2.57-2.78,3.62-3.66.52-4.5,4.07-6.58,6.36a27.24,27.24,0,0,0-12.41.94,38.7,38.7,0,0,1-5.67-24.62c-3.59,8.09-2.46,16.5-2.17,24.55,4.71,6.24,5.77,6.61,12.24,3.86A38.49,38.49,0,0,1,141.53,132c-1.76-3.68.65-5.66,2.73-7.77,3.82.57,5.58,3.91,8.68,6.29-6.34,6.18-1.41,11.11,1.8,16.23,0,5.38-2.2,9.21-7.06,11.67-6.53,3.32-12.91,6.91-20.93,7-1-5.21-.28-10.71-3.28-15.53,3.55-2.25,4.93-5.5,6.37-9.33-2.48.71-3.22,2.54-4.48,3.75-3.24,3.1-5.09,3.24-8.73.62-1.3-.94-2.39-2.24-4.74-2.94,1,3.25,3.21,4.76,5.34,6.06,3.83,2.32,5.81,5.77,5.46,10-.56,6.86,1.34,12.11,7.72,15.53H69.73c0-.21,0-.65.11-.73,5.52-3,8.15-7.35,7.44-13.89A10.71,10.71,0,0,1,82.85,148a13.47,13.47,0,0,0,5.63-6.12c-3.75,1.17-5.4,4.06-8.22,4.85-4.74.63-6.2-4.23-10.27-6.7,1.57,4.43,3.05,7.64,6.35,9.74-2.4,5-2.43,10.19-2.87,15.46-4,.45-7.45-.67-10.86-1.85A77.2,77.2,0,0,1,51,157.67c-4.26-2.33-5.57-6.32-5.73-10.68,1.56-2.89,3.72-5.11,4.51-8.62,0-2.64-1.42-5.2-3.66-7.54,2.81-2.66,4.82-5.83,8.72-6.6,1.3,1.67,3.28,2.9,3.38,5.52.14,1-1.89,1.33-1.08,2.9,5.3-1.06,10.31.4,14.84,2.85,5.5,3,10.31-1.17,10.28-6.44,0-5,.34-10-.08-15-.23-2.69-.55-5.41-3-8.42a35.69,35.69,0,0,1-5.28,25.85c-4.23-2.22-8.4-1.69-12.37-1.36C59.67,127.43,58.6,124.39,55.13,123.85Zm28.11,9.34c11,2.44,21.84,3.19,32.6-.27.36-2.27.81-4.06-.58-5.84-5.22.45-10.42,1.66-15.74,1.73s-10.72-1.55-16-1.57C82.54,129.15,82.75,130.76,83.24,133.19Z" style="fill: #d2d3d4"/>
    <path d="M99,80.54c-7.28-3.16-8.85-10-13.39-14.64a14.75,14.75,0,0,0,3.48-7.51c1.22-5.58,4.37-8.1,9.67-8.2,5.8-.1,9.07,2.21,10.53,7.82.7,2.71.88,5.56,3.74,7.78C108.06,70.75,106.41,78.35,99,80.54Zm-5.73-18c3.93,3.91,8.43,2.35,12.55.08,1.4.57,1.38,2.29,3.19,2.13a17.76,17.76,0,0,0-2.52-5.81c-2.61.94-4.64,2.89-7.46,2.86s-4.66-2.36-7.56-2.67c-.47,2.05-2,3.64-2,5.85C91.44,65.12,91.06,63.13,93.23,62.53Z" style="fill: #d2d3d4"/>
    <path d="M92.2,37.49C76.37,41.65,63.33,49.73,55.64,64.4s-6.66,29.73,0,44.69C48.13,103.22,45.16,80,53.41,63.71,61.24,48.28,81.84,33.83,92.2,37.49Z" style="fill: #d2d3d4"/>
    <path d="M106,37.42c.82-2,2.47-1.21,3.81-1,19.09,3.63,35.8,21,39.05,40.24a51.38,51.38,0,0,1-2.78,27.91c-.57,1.46-.83,3.18-2.72,4.09-1-2.27.48-3.75,1-5.35,6-17.57,3.63-33.78-8-48.35-7.06-8.8-17.18-12.64-27.45-16.11C107.87,38.54,106.45,39,106,37.42Z" style="fill: #d2d3d4"/>
    <path d="M31.23,147.85c1.46-2,3.49-2.28,4-4.08-4.44-2.81-4.57-3.48-2.12-10.67,6.91-3.27,11.9-2,14.75,4.05C44.21,142.9,38.35,145.59,31.23,147.85ZM34.56,139c3.75-1.1,4.82-2.26,4.17-4.37a2.32,2.32,0,0,0-3.3-.78C34.22,136.13,34.22,136.13,34.56,139Z" style="fill: #d2d3d4"/>
    <path d="M166.85,147.4c-6.53-1.67-11.8-4.67-15.52-9.93,1.91-6.08,6.59-7.55,14.21-4.72,3,6.45,2.66,8.29-1.73,10.66C163.77,145.41,166.16,145.5,166.85,147.4Zm-2.28-8.4c.17-3.23.17-3.23-1.59-5.43-1.47-.25-2.5.27-3,2C160.51,137.68,161.56,139.26,164.57,139Z" style="fill: #d2d3d4"/>
    <path d="M88.7,81.37c3.6,3,6.85,7.2,10.68,11.15,4.37-3.75,7.33-8.84,12.75-11.15L99.62,94.64c-5.08-4-7.87-10.31-14.27-13.37,0,.39.46.17.89,0A2.27,2.27,0,0,1,88.7,81.37Z" style="fill: #d2d3d4"/>
    <path d="M90.92,80c3.14-.25,3.74,1.59,4.84,2.66s2,2.6,3.64,3.36c3.2-1.19,4.18-5.32,7.76-6-1.44,4-4.75,6.44-7.42,9.64A44.46,44.46,0,0,1,90.92,80Z" style="fill: #d2d3d4"/>
    <path d="M99.26,30a6.28,6.28,0,0,1,3.39,4.29c-.3,2.15-1.63,3.5-3.72,4.61a7.08,7.08,0,0,1-3.62-4.25C95.82,32.25,96.86,30.53,99.26,30Z" style="fill: #d2d3d4"/>
    <path d="M103.86,45.41c-3,3.72-6.83,3.66-9.32.12C98.27,42.7,99.34,42.66,103.86,45.41Z" style="fill: #d2d3d4"/>
  </g>
</svg>
