<svg width="24" height="24" viewBox="0 0 24 24" fill="none" xmlns="http://www.w3.org/2000/svg">
<path d="M10.2879 4.8357C11.0657 3.54735 12.9343 3.54735 13.7121 4.8357L14.8613 6.73898C15.1402 7.20089 15.5939 7.53051 16.1193 7.65301L18.2846 8.15778C19.7502 8.49946 20.3276 10.2765 19.3427 11.4144L17.8877 13.0955C17.5346 13.5035 17.3613 14.0368 17.4072 14.5744L17.5962 16.7897C17.7242 18.2892 16.2125 19.3875 14.8259 18.8024L12.7775 17.9381C12.2804 17.7283 11.7196 17.7283 11.2225 17.9381L9.17407 18.8024C7.78749 19.3875 6.27583 18.2892 6.40379 16.7897L6.59282 14.5744C6.6387 14.0368 6.4654 13.5035 6.11229 13.0955L4.65727 11.4144C3.67235 10.2765 4.24975 8.49946 5.71542 8.15778L7.88066 7.65301C8.40614 7.53051 8.85983 7.20089 9.13871 6.73898L10.2879 4.8357Z" fill="#FEDAA3" stroke="#FEDAA3" stroke-width="1.5"/>
</svg>
