<svg width="25" height="24" viewBox="0 0 25 24" fill="none" xmlns="http://www.w3.org/2000/svg">
<path fill-rule="evenodd" clip-rule="evenodd" d="M10.0384 2.61121C9.59771 2.42887 9.10268 2.42887 8.66199 2.61121L3.76119 4.63921C3.43262 4.7753 3.15173 5.00568 2.95397 5.30126C2.7562 5.59684 2.65043 5.94438 2.64999 6.30001V19.3524C2.64996 19.6484 2.72294 19.9399 2.86246 20.201C3.00198 20.4621 3.20374 20.6847 3.44987 20.8492C3.696 21.0137 3.97889 21.1149 4.27349 21.1439C4.56809 21.173 4.8653 21.1289 5.13879 21.0156L9.35079 19.2732L14.4628 21.3876C14.9031 21.5696 15.3977 21.5696 15.838 21.3876L20.7376 19.3596C21.0662 19.2238 21.3472 18.9937 21.5452 18.6983C21.7432 18.403 21.8492 18.0556 21.85 17.7V4.64641C21.8499 4.35054 21.777 4.05924 21.6375 3.79829C21.4981 3.53734 21.2964 3.3148 21.0505 3.15035C20.8045 2.9859 20.5218 2.88462 20.2273 2.85546C19.9329 2.82631 19.6358 2.87019 19.3624 2.98321L15.1504 4.72561L10.0384 2.61121ZM9.34599 6.00001C9.58469 6.00001 9.81361 6.09483 9.98239 6.26362C10.1512 6.4324 10.246 6.66132 10.246 6.90001V14.7C10.246 14.9387 10.1512 15.1676 9.98239 15.3364C9.81361 15.5052 9.58469 15.6 9.34599 15.6C9.1073 15.6 8.87838 15.5052 8.7096 15.3364C8.54081 15.1676 8.44599 14.9387 8.44599 14.7V6.90001C8.44599 6.66132 8.54081 6.4324 8.7096 6.26362C8.87838 6.09483 9.1073 6.00001 9.34599 6.00001ZM16.054 9.30001C16.054 9.06132 15.9592 8.8324 15.7904 8.66362C15.6216 8.49483 15.3927 8.40001 15.154 8.40001C14.9153 8.40001 14.6864 8.49483 14.5176 8.66362C14.3488 8.8324 14.254 9.06132 14.254 9.30001V17.1C14.254 17.3387 14.3488 17.5676 14.5176 17.7364C14.6864 17.9052 14.9153 18 15.154 18C15.3927 18 15.6216 17.9052 15.7904 17.7364C15.9592 17.5676 16.054 17.3387 16.054 17.1V9.30001Z" fill="#FEDAA3"/>
</svg>
