<svg id="图层_1" data-name="图层 1"  xmlns="http://www.w3.org/2000/svg" viewBox="0 0 256 256">
    <path fill="currentColor" class="cls-1" d="M114.2,171.14c-20.33,4.3-22.22,28.45-25.82,44.73-.85,3.85-2.36,13.49-6.85,14.91-8.16,2.57-4.4-18.14-4.27-21.91a525.52,525.52,0,0,1,6.46-64c2.11-13.48-.62-27.41-4-40.43-2-7.54-2.9-16.5-8.21-22.61-2.93-3.37-6.78-4.37-10.84-5.66A124.51,124.51,0,0,0,40,72c-.24,0-.52,0-.62-.27s.15-.41.31-.57c7-7.34,20.48-15.44,30.88-14.44,5,.48,13,4.84,17.89,2.26C95,55.46,93.13,44.78,92.8,38.8c-.26-4.69-.66-6.6,5.07-6.5,1.45,0,3.16.18,3.92,1.42a4.36,4.36,0,0,1,.44,2.18c.23,8.07-1.09,16.22.61,24.21,2,9.29,11,16.15,20.64,11.94,4.78-2.08,8-6.06,12.17-9,12.83-8.85,28.41-13.26,43.87-14.14,17.77-1,36.11,1.37,49.66,13.94,1.23,1.14,2.48,2.51,2.53,4.19.09,3.41-5.88,3.27-8.12,3.5C209,72.05,193.72,75.25,181.09,83c-13.82,8.47-20.93,20.72-22.86,36.66-2.28,18.84-.6,37,3.65,55.31,2.56,11,2.46,21.16,2.55,32.4,0,5.43.31,6.4-.16,12-.25,2.95-.61,9.3-2.91,11.41-4.54,4.15-8.07-19.31-8.7-21.73-3.34-12.94-10.15-25.37-20.48-33.94C127.42,171.19,120.17,169.88,114.2,171.14Z"/>
</svg>
