<svg width="25" height="24" viewBox="0 0 25 24" fill="none" xmlns="http://www.w3.org/2000/svg">
<path d="M16.25 14H15.46L15.18 13.73C16.194 12.5541 16.7512 11.0527 16.75 9.5C16.75 8.21442 16.3688 6.95772 15.6546 5.8888C14.9403 4.81988 13.9252 3.98676 12.7374 3.49479C11.5497 3.00282 10.2428 2.87409 8.98192 3.1249C7.72104 3.3757 6.56285 3.99477 5.65381 4.90381C4.74477 5.81285 4.1257 6.97104 3.8749 8.23192C3.62409 9.49279 3.75282 10.7997 4.24479 11.9874C4.73676 13.1752 5.56988 14.1903 6.6388 14.9046C7.70772 15.6188 8.96442 16 10.25 16C11.86 16 13.34 15.41 14.48 14.43L14.75 14.71V15.5L19.75 20.49L21.24 19L16.25 14ZM10.25 14C7.76 14 5.75 11.99 5.75 9.5C5.75 7.01 7.76 5 10.25 5C12.74 5 14.75 7.01 14.75 9.5C14.75 11.99 12.74 14 10.25 14Z" fill="#FEDAA3"/>
</svg>
