<svg width="24" height="24" viewBox="0 0 24 24" fill="none" xmlns="http://www.w3.org/2000/svg">
<path d="M14.0464 3.375H14.0932C14.42 3.375 14.7333 3.50481 14.9643 3.73589C15.1953 3.96696 15.3251 4.28036 15.3251 4.60714C15.3251 4.93393 15.1953 5.24733 14.9643 5.4784C14.7333 5.70947 14.42 5.83929 14.0932 5.83929C12.4979 5.83929 11.3018 5.83929 10.352 5.91568C9.39973 5.99207 8.83676 6.13623 8.45733 6.3383C7.61458 6.79637 6.93777 7.50867 6.52326 8.3738C6.31261 8.80998 6.17833 9.36691 6.10688 10.2812C6.04283 11.0919 6.03543 12.0998 6.03297 13.4601L6.88667 12.6074C7.11766 12.3762 7.43102 12.2463 7.7578 12.2462C8.08458 12.2461 8.39803 12.3758 8.62918 12.6068C8.86034 12.8379 8.99026 13.1513 8.99038 13.4781C8.99049 13.805 8.86079 14.1185 8.6298 14.3497L5.67326 17.3068C5.55519 17.4252 5.41428 17.5183 5.2591 17.5804C5.10392 17.6426 4.93772 17.6725 4.77061 17.6683C4.60351 17.6642 4.43899 17.6261 4.28709 17.5563C4.13518 17.4865 3.99906 17.3866 3.88701 17.2625L1.21381 14.3053C1.10526 14.1854 1.0214 14.0452 0.967014 13.8928C0.912631 13.7404 0.888792 13.5788 0.896856 13.4171C0.904921 13.2555 0.944732 13.0971 1.01402 12.9509C1.0833 12.8047 1.1807 12.6735 1.30066 12.5649C1.42061 12.4564 1.56077 12.3725 1.71314 12.3181C1.8655 12.2637 2.02709 12.2399 2.18867 12.2479C2.35025 12.256 2.50865 12.2958 2.65485 12.3651C2.80104 12.4344 2.93215 12.5318 3.0407 12.6518L3.57042 13.2383C3.57165 11.984 3.58274 10.9514 3.65049 10.0902C3.73303 9.03177 3.90426 8.12861 4.30709 7.29814C4.94844 5.96492 5.99437 4.86832 7.29566 4.1648C8.12103 3.72246 9.0893 3.54504 10.1561 3.46002C11.2155 3.375 12.5103 3.375 14.0464 3.375ZM19.192 6.33214C19.3589 6.3366 19.5232 6.37494 19.6748 6.44484C19.8264 6.51473 19.9623 6.61473 20.0741 6.73875L22.7485 9.69589C22.8656 9.81423 22.9574 9.95506 23.0186 10.1099C23.0797 10.2647 23.1089 10.4303 23.1042 10.5967C23.0996 10.7632 23.0613 10.9269 22.9917 11.0781C22.922 11.2293 22.8225 11.3648 22.699 11.4764C22.5756 11.5881 22.4308 11.6736 22.2734 11.7277C22.116 11.7818 21.9493 11.8035 21.7833 11.7914C21.6173 11.7793 21.4555 11.7337 21.3076 11.6573C21.1597 11.5809 21.0288 11.4753 20.9228 11.347L20.3931 10.7617C20.3907 12.016 20.3796 13.0486 20.3118 13.9098C20.2293 14.9682 20.0581 15.8714 19.6552 16.7019C19.0139 18.0351 17.968 19.1317 16.6667 19.8352C15.8413 20.2763 14.873 20.455 13.8062 20.54C12.7468 20.625 11.4533 20.625 9.91713 20.625H9.86785C9.54113 20.625 9.2278 20.4952 8.99677 20.2641C8.76575 20.033 8.63596 19.7196 8.63596 19.3929C8.63596 19.0661 8.76575 18.7527 8.99677 18.5216C9.2278 18.2905 9.54113 18.1607 9.86785 18.1607C11.4644 18.1607 12.6606 18.1607 13.6103 18.0843C14.5626 18.0079 15.1256 17.8638 15.505 17.6617C16.3477 17.2036 17.0246 16.4913 17.4391 15.6262C17.6497 15.19 17.784 14.6331 17.8554 13.7188C17.9195 12.9081 17.9281 11.9002 17.9294 10.5399L17.0757 11.3926C16.8433 11.617 16.5321 11.7412 16.2091 11.7384C15.8861 11.7356 15.5772 11.606 15.3488 11.3775C15.1204 11.1491 14.9908 10.8401 14.988 10.517C14.9852 10.1939 15.1094 9.88269 15.3338 9.6503L18.2903 6.69316C18.4083 6.575 18.5491 6.48207 18.7041 6.42001C18.8591 6.35795 19.0251 6.32805 19.192 6.33214Z" fill="currentColor"/>
</svg>
