<svg width="25" height="24" viewBox="0 0 25 24" fill="none" xmlns="http://www.w3.org/2000/svg">
<path d="M17.5 12C18.0967 12 18.669 12.2371 19.091 12.659C19.5129 13.081 19.75 13.6533 19.75 14.25V15C19.75 17.9565 16.96 21 12.25 21C7.54 21 4.75 17.9565 4.75 15V14.25C4.75 13.6533 4.98705 13.081 5.40901 12.659C5.83097 12.2371 6.40326 12 7 12H17.5ZM12.25 2.25C13.344 2.25 14.3932 2.6846 15.1668 3.45818C15.9404 4.23177 16.375 5.28098 16.375 6.375C16.375 7.46902 15.9404 8.51823 15.1668 9.29182C14.3932 10.0654 13.344 10.5 12.25 10.5C11.156 10.5 10.1068 10.0654 9.33318 9.29182C8.5596 8.51823 8.125 7.46902 8.125 6.375C8.125 5.28098 8.5596 4.23177 9.33318 3.45818C10.1068 2.6846 11.156 2.25 12.25 2.25Z" fill="#FEDAA3"/>
</svg>
