<svg width="121" height="120" viewBox="0 0 121 120" fill="none" xmlns="http://www.w3.org/2000/svg">
<path d="M104.048 83.1821L70.1258 24.2711C69.1433 22.5908 67.7379 21.197 66.0495 20.2283C64.3611 19.2597 62.4485 18.7501 60.5019 18.7501C58.5554 18.7501 56.6428 19.2597 54.9544 20.2283C53.266 21.197 51.8606 22.5908 50.878 24.2711L16.9559 83.1821C16.0025 84.8127 15.5 86.6676 15.5 88.5565C15.5 90.4454 16.0025 92.3003 16.9559 93.9309C17.9275 95.6196 19.331 97.0194 21.0222 97.9867C22.7134 98.954 24.6315 99.4539 26.5797 99.4352H94.4241C96.371 99.4526 98.2876 98.952 99.9773 97.9848C101.667 97.0175 103.069 95.6185 104.04 93.9309C104.995 92.3009 105.499 90.4464 105.5 88.5575C105.501 86.6686 105 84.8134 104.048 83.1821ZM95.9796 89.2722C95.8219 89.541 95.5944 89.7622 95.3213 89.9124C95.0482 90.0626 94.7395 90.1363 94.428 90.1255H26.5797C26.2682 90.1363 25.9596 90.0626 25.6865 89.9124C25.4134 89.7622 25.1859 89.541 25.0281 89.2722C24.8943 89.0546 24.8235 88.8042 24.8235 88.5487C24.8235 88.2933 24.8943 88.0429 25.0281 87.8253L58.9503 28.9143C59.1183 28.6558 59.3482 28.4433 59.6192 28.2962C59.8902 28.1491 60.1936 28.072 60.5019 28.072C60.8103 28.072 61.1137 28.1491 61.3847 28.2962C61.6557 28.4433 61.8856 28.6558 62.0536 28.9143L95.9719 87.8253C96.1069 88.0421 96.179 88.2922 96.1804 88.5476C96.1818 88.8031 96.1123 89.0539 95.9796 89.2722ZM55.8471 63.7481V51.3352C55.8471 50.1006 56.3375 48.9166 57.2105 48.0437C58.0834 47.1707 59.2674 46.6803 60.5019 46.6803C61.7365 46.6803 62.9205 47.1707 63.7934 48.0437C64.6664 48.9166 65.1568 50.1006 65.1568 51.3352V63.7481C65.1568 64.9826 64.6664 66.1666 63.7934 67.0396C62.9205 67.9125 61.7365 68.4029 60.5019 68.4029C59.2674 68.4029 58.0834 67.9125 57.2105 67.0396C56.3375 66.1666 55.8471 64.9826 55.8471 63.7481ZM66.7084 79.2642C66.7084 80.4918 66.3444 81.6917 65.6624 82.7124C64.9804 83.733 64.0111 84.5285 62.8771 84.9983C61.743 85.468 60.4951 85.5909 59.2911 85.3514C58.0872 85.112 56.9813 84.5209 56.1133 83.6529C55.2453 82.7849 54.6542 81.679 54.4147 80.4751C54.1753 79.2711 54.2982 78.0232 54.7679 76.8891C55.2377 75.755 56.0332 74.7857 57.0538 74.1038C58.0745 73.4218 59.2744 73.0578 60.5019 73.0578C62.148 73.0578 63.7266 73.7117 64.8906 74.8756C66.0545 76.0395 66.7084 77.6182 66.7084 79.2642Z" fill="currentColor" />
</svg>
