<svg id="图层_1" data-name="图层 1" xmlns="http://www.w3.org/2000/svg" viewBox="0 0 32 32">
  <path d="M11,17.8A7.2,7.2,0,0,0,3.82,25v.17a1,1,0,0,1-.89,1H2.82A1.37,1.37,0,0,1,2,25a9.14,9.14,0,0,1,5.6-8.39,5.9,5.9,0,0,1-2.4-4.78A5.79,5.79,0,0,1,11,6a1,1,0,1,1,0,2h0a4,4,0,1,0,0,8,.92.92,0,0,1,1,.8,1,1,0,0,1-.89,1Z" style="fill: #fedaa3"/>
  <path d="M30,27a1,1,0,1,1-2,0,9.12,9.12,0,0,0-9-9.18h-.4A9.21,9.21,0,0,0,9.81,27a1,1,0,0,1-.89,1H8.81A.92.92,0,0,1,8,27,10.64,10.64,0,0,1,15,16.8,7.29,7.29,0,0,1,12,11a6.9,6.9,0,0,1,6.78-7,7.08,7.08,0,0,1,7,7,7.28,7.28,0,0,1-3,5.79A10.82,10.82,0,0,1,30,27ZM18.79,16a5.09,5.09,0,1,0-5-5.19V11a4.94,4.94,0,0,0,4.89,5Z" style="fill: #fedaa3"/>
</svg>
