<svg id="图层_1" data-name="图层 1" xmlns="http://www.w3.org/2000/svg" viewBox="0 0 240 240">
  <path d="M227.1,82.75a107.72,107.72,0,0,0,3.54-17.43,32.42,32.42,0,0,0,.25-4.06c-.89-4.4-4-7.73-10.87-8.46-18.94-2-37.6-6.42-56.85-5.83-9.44.29-16.5,2.29-20.49,12.17-4.09,10.12-4.06,28.18-13.65,28.48-14.42.46-13.47-19.49-21.31-29.21-2.12-2.62-3.38-6.09-4.45-9.36-3.46-10.54-9.67-12-20.1-9C65.75,45.13,47.8,48.44,30,52.32c-11.4,2.49-17.54,4.59-19.84,9a16.17,16.17,0,0,0-1.08,5.46,38,38,0,0,0,1.64,8.84c.64,1.79,1.42,3.62,2.3,5.5C22.2,100.57,31,120.2,41.66,139c1.51,2.65,6.25,6.23,4.7,9.5,4,8.82,2.52,15.34-10.12,20.16-7.51,2.87-15.16,6.37-22.58,15.86a28.48,28.48,0,0,0,3.26,2.29l.39.24c12-2.94,22.3-1.55,30-10.72,6.34-7.53,13.28-3.63,19.22,2.45.21.14.43.3.65.48a425.59,425.59,0,0,0,40.54,30.55c5.75,3.76,11.32,8.05,16.66,8.29,3.93-1,7.28-4.34,10.27-10.2a38.18,38.18,0,0,1,4.4-6.44c8.72-10.78,17.19-21.79,26.43-32.1,3.63-4,8.69-11.28,14.81-5.23,5.08,5-1.52,9.07-5.17,12.27-5.52,4.87-6.57,12.1-10.19,17.94-1.83,2.94-3.92,7.2-1.29,9.55,6.75,6.07,15.82,6.41,24.38,7.32h.51c6-.63,10.93-3,12.82-10.36,2.53-9.73,4.41-19.62,6.87-29.36a11.93,11.93,0,0,1,1-2.52q8.88-40.58,17.55-81.19A10.1,10.1,0,0,1,227.1,82.75ZM94,76.3c1.6.57,3.92.65,4.7,1.78,4.65,6.83,9.62,13.56,13.24,20.94,8.94,18.25,25.7,26.83,42.26,35.88,2.71,1.48,6.53,2.57,5.94,6.55s-4.13,4.42-8.72,4.71a158.83,158.83,0,0,1-36.15-21.94C101.39,113,96,97.57,93.08,80.86,92.83,79.44,93.67,77.83,94,76.3Zm-19.07-.08c8,3.34,10.75,11.56,13.59,18.77,9.5,24.14,27.22,39.54,50.07,50.16,3.6,1.67,7.81,4.26,7.46,8.72-.48,6-5.3,10-9.84,13.25-3.38,2.44-6-1-8.85-2.76-28.2-17.73-44.31-44.89-57.43-74.17C68,85.86,61.62,77.41,74.93,76.22ZM51.87,79.69c6.69,4.68,10.76,13.1,15.43,20.87,15.59,25.9,31.05,51.83,58.72,67.19,3.19,1.77,6,4.54,3.31,8.64-3.61,5.44-5.22,12.6-15.48,6.45-33.84-20.28-50.47-53-65.66-87A68.48,68.48,0,0,1,44.8,86.4C43.35,81.3,44.76,79.64,51.87,79.69ZM185.27,134c1.41.67,3.22,2.42,3.19,3.65S186.31,140,185,141c-1.51,1.17-3.9,1.82-4.61,3.32-5.45,11.42-19.63,12.34-26.27,22.81-8.51,13.4-18.5,25.87-28.18,38.49-2.84,3.7-5.44-.19-7.74-1.68-14.67-9.46-28.38-20.14-42-31.1C63.89,163,59.87,148.78,52.72,136.26,43.89,120.81,36,104.8,28.17,88.83c-2-4.06-2.51-8.88-3.56-13.38-.13-.54.65-1.3,1-2,1.12.74,2.71,1.22,3.29,2.26,8.81,15.89,17.35,31.93,26.24,47.77,15.58,27.77,35.64,51.37,63.73,67.32,2.81,1.6,5.06,1.29,6.88-1.68,11.06-18.1,26-32.83,41.38-47.12,2.56-2.37,2.64-4.25-.9-6.24-19.22-10.82-40.71-19-49.52-42.09a114,114,0,0,1-4.07-12.33c-.48-1.84,0-4,.1-5.93,1.21,1.57,3.09,3,3.53,4.72,4.18,16.7,18.32,24.33,30.53,33.6,2.82,2.14,4.31-.94,4.89-3.46,2.73-11.94,4.76-24.08,8.21-35.8,3.74-12.76,14-4.52,21.33-5.2,3.92-.37,8.86.36,9.76,6.61-3.57,16.39-7,33.18-11,49.82C178.69,131.15,181.7,132.27,185.27,134Z" style="fill: #494949"/>
</svg>
