<svg id="图层_1" data-name="图层 1" xmlns="http://www.w3.org/2000/svg" viewBox="0 0 32 32">
  <g>
    <path d="M29.48,3.9a.94.94,0,0,0-1.1-.18L21.05,7.43a1,1,0,0,0-.51.7.93.93,0,0,0,.27.82L22,10.19l-5,5L14.88,13a1,1,0,0,0-1-.21.85.85,0,0,0-.32.21L8.14,18.38a1,1,0,0,0,1.35,1.34L14.2,15l2.19,2.18a.94.94,0,0,0,1.34,0l5.66-5.66,1,1a1,1,0,0,0,.67.28h.15a1,1,0,0,0,.7-.51L29.66,5A1,1,0,0,0,29.48,3.9Zm-4.64,6.4L23.08,8.53l3.57-1.8Z" style="fill: #fedaa3"/>
    <path d="M25.57,14a1,1,0,0,0-.95.95V25.13a1,1,0,0,1-.95.95H6.54a1,1,0,0,1-1-.95V8a1,1,0,0,1,1-1H18.65a.95.95,0,0,0,0-1.9H6.54A2.86,2.86,0,0,0,3.69,8V25.13A2.86,2.86,0,0,0,6.54,28H23.67a2.86,2.86,0,0,0,2.85-2.85V14.92A1,1,0,0,0,25.57,14Z" style="fill: #fedaa3"/>
  </g>
</svg>
