<svg xmlns="http://www.w3.org/2000/svg" width="18" height="18" viewBox="0 0 18 18" fill="none">
  <path fill-rule="evenodd" clip-rule="evenodd" d="M8.1041 3.03342e-08C6.80944 0.000140216 5.53366 0.310422 4.38354 0.90487C3.23342 1.49932 2.24244 2.36063 1.49356 3.41672C0.744675 4.4728 0.259678 5.69292 0.0791677 6.97493C-0.101342 8.25694 0.0278881 9.56354 0.45604 10.7854C0.884193 12.0072 1.59881 13.1086 2.54006 13.9976C3.48132 14.8865 4.62183 15.537 5.86611 15.8946C7.11039 16.2522 8.42224 16.3066 9.69184 16.0531C10.9614 15.7996 12.1519 15.2457 13.1634 14.4377L16.4729 17.7472C16.6428 17.9112 16.8703 18.002 17.1064 18C17.3425 17.9979 17.5684 17.9032 17.7354 17.7362C17.9023 17.5693 17.997 17.3434 17.9991 17.1073C18.0011 16.8711 17.9104 16.6437 17.7463 16.4738L14.4368 13.1643C15.3896 11.9718 15.9863 10.5346 16.1582 9.01794C16.3301 7.5013 16.0703 5.96694 15.4086 4.59147C14.747 3.21599 13.7103 2.05531 12.4181 1.24303C11.1258 0.430742 9.63045 -0.000132001 8.1041 3.03342e-08ZM2.70078 8.10498C2.70078 7.39541 2.84054 6.69278 3.11209 6.03722C3.38363 5.38166 3.78163 4.786 4.28338 4.28426C4.78512 3.78251 5.38078 3.38451 6.03634 3.11296C6.6919 2.84142 7.39453 2.70166 8.1041 2.70166C8.81368 2.70166 9.5163 2.84142 10.1719 3.11296C10.8274 3.38451 11.4231 3.78251 11.9248 4.28426C12.4266 4.786 12.8246 5.38166 13.0961 6.03722C13.3677 6.69278 13.5074 7.39541 13.5074 8.10498C13.5074 9.53803 12.9381 10.9124 11.9248 11.9257C10.9115 12.939 9.53715 13.5083 8.1041 13.5083C6.67105 13.5083 5.2967 12.939 4.28338 11.9257C3.27006 10.9124 2.70078 9.53803 2.70078 8.10498Z" fill="#24292E"/>
</svg>

