<svg xmlns="http://www.w3.org/2000/svg" width="15" height="15" viewBox="0 0 15 15" fill="none">
  <path fill-rule="evenodd" clip-rule="evenodd" d="M6.75342 2.52785e-08C5.67454 0.000116846 4.61138 0.258685 3.65295 0.754058C2.69452 1.24943 1.8687 1.9672 1.24463 2.84726C0.620563 3.72733 0.216398 4.7441 0.0659731 5.81244C-0.0844519 6.88078 0.0232401 7.96962 0.380034 8.98779C0.736827 10.006 1.33234 10.9239 2.11672 11.6646C2.9011 12.4054 3.85152 12.9475 4.88842 13.2455C5.92533 13.5435 7.01854 13.5888 8.07654 13.3776C9.13454 13.1663 10.1265 12.7047 10.9695 12.0314L13.7275 14.7893C13.869 14.926 14.0586 15.0017 14.2553 15C14.4521 14.9983 14.6403 14.9193 14.7795 14.7802C14.9186 14.6411 14.9975 14.4528 14.9992 14.2561C15.001 14.0593 14.9253 13.8697 14.7886 13.7282L12.0307 10.9702C12.8246 9.97653 13.3219 8.77881 13.4652 7.51495C13.6084 6.25108 13.3919 4.97245 12.8405 3.82622C12.2891 2.67999 11.4253 1.71276 10.3484 1.03586C9.27151 0.358952 8.02538 -0.000110001 6.75342 2.52785e-08ZM2.25065 6.75415C2.25065 6.16284 2.36712 5.57732 2.59341 5.03102C2.81969 4.48471 3.15136 3.98833 3.56948 3.57021C3.9876 3.15209 4.48398 2.82042 5.03028 2.59414C5.57659 2.36785 6.16211 2.25138 6.75342 2.25138C7.34473 2.25138 7.93025 2.36785 8.47655 2.59414C9.02285 2.82042 9.51923 3.15209 9.93735 3.57021C10.3555 3.98833 10.6871 4.48471 10.9134 5.03102C11.1397 5.57732 11.2562 6.16284 11.2562 6.75415C11.2562 7.94836 10.7818 9.09365 9.93735 9.93809C9.09292 10.7825 7.94763 11.2569 6.75342 11.2569C5.55921 11.2569 4.41391 10.7825 3.56948 9.93809C2.72505 9.09365 2.25065 7.94836 2.25065 6.75415Z" fill="#1C1C1C" fill-opacity="0.4"/>
</svg>
