<svg id="图层_1" data-name="图层 1" xmlns="http://www.w3.org/2000/svg" viewBox="0 0 200 200">
  <g>
    <path d="M56,85.9c4,3.72,9.4,3.86,14.23,5.43,5.19,1.69,10.47,3.12,16.08,4.39-7.67-8.19-13.33-17-10.67-28.8C78.18,55.49,86,48.71,96.18,44.06l-.66-10.13c2.12-1.61,4.46-1.48,6.74-1.68,2.74,2.62.86,6.46,3.07,10.34,3-5.55.52-11.33,2.91-16.22a20.06,20.06,0,0,1,9.56,0c-.79,4.7-1.55,9.24-2.3,13.73.85,1.27,1.94,1.2,3.16.84,2-3.06,1.32-7.21,4-10.13A12.27,12.27,0,0,1,131,32.18c-.46,3.91-4.6,6.57-3.78,10.8.08.42,1.06.66,2.05,1.23l6.2-10.74c3.24-.22,5.47,1.41,8,2.85-2.3,3.84-5.16,6.94-6.38,10.91.71,1.62,2.06,2.26,3.66,3.05l5.45-4.21a11.89,11.89,0,0,1,5.39,8.34l-4,2.81c1,3.12,3.62.88,5.46,2.18,1.54,2.13,1.94,4.43-1,6.58,3.93,11.49,1.8,21.66-7.28,30.53,3.13,0,5.23-1.76,7.74-2.41,2.28,1.59.5,4,1.25,6.38l15.38,3.82c-4,7.56-12.87,8.38-17.27,14.28,7.65,4.14,13.75,19.5,10.65,28a12.89,12.89,0,0,1-5.41,6.4c-9.83,6.13-24.1,12-38.34,2.09-1.24,3.07-2.35,6.16-3.71,9.13-3.78,8.23-11.36,11.78-19.6,9.3s-12.13-8.83-10.89-18.23c.13-1,.25-2,.37-2.92-.3-1.57-1.86-1.87-2.16-2.26-7.9,4.65-16.74,6-25.19,8.16-9.43,2.43-14.88-.51-19-9.25C34.12,139.21,40.5,129.06,51.2,129c6.43,0,12.85,0,19.1,0,.9-3.21-1.9-4.05-2.1-6.4A3.22,3.22,0,0,1,70.34,120c2,1-1.14,2.34.15,3.48l6.72,5.94L84.65,116,72.41,118c-.23-2.58,1.57-3.35,3.36-4.52-4.42-1.78-8.77-1.31-13-1.4-1.47,1.27-.08,5.39-4.32,3.45l-1.26-3.6c-11.72-4.47-13.65-13.08-4.6-21.14,1.65-1.48.47-4.64,3.49-4.77Zm84.35,22.95c-.46.55-.93,1.09-1.88,2.2,4.21.49,6.83-3.5,10.44-1.43,0-4.4-3.68-1.15-4.81-3.05.58-2.09,2.62-3.12,4.13-5-2.34.35-3.38,1.8-4.68,3s-.62,4.18-3.32,4.43c-.76-2.72-2.85-5.23-.57-8.93a69.86,69.86,0,0,1-12.78,4.8C131.77,105,136.45,105.56,140.31,108.85Zm-40,63.08c7.14,0,12.46-4.9,12.54-11.44.08-7.2-6.48-13.51-13.9-13.35-7.08.15-12.16,5.08-12.16,11.79A13.19,13.19,0,0,0,100.28,171.93Zm-40.44-26.2c0-7.38-5.41-13.72-11.67-13.71-5.11,0-8.91,4.86-8.79,11.24.12,7.2,5.79,13.71,11.88,13.67C56.65,156.9,59.85,152.73,59.84,145.73Zm50.23-29.64c-2.63,7-5.24,13.95-8,21.33l18.9,4.86c-.68-9.19-1.29-17.58-1.91-25.95A21.48,21.48,0,0,0,110.07,116.09Zm-22.59,0c-4.65,6.53-1,12.2.59,18.54l14.54-5.39c1.68-4.52,4.09-8.63,4.88-13.6-5.53,0-10.67,0-15.8,0C90.22,115.71,88.75,116,87.48,116.12Zm36.72,30.36c6.26,6.5,17.45,5.28,21.71-2.38-1.61-5.5-3.8-6.8-10.44-6.2C128.27,138.56,124.74,141.24,124.2,146.48Zm.71-69.74c.09,2.49.15,5.33,3.84,5.6,3.27.24,6.49-3.46,6.52-7.47,0-3-.68-5.8-4.34-6.18C127.78,68.36,125,72.06,124.91,76.74ZM97,59.11c-3.89.84-5.88,3.7-6.41,7.57-.38,2.85.6,5.24,4,5.92,4-1,6-3.78,6.35-7.79C101.13,62.06,100.29,59.91,97,59.11Zm-14.26,48.1c11.11-.83,21-1.62,30.85-1.69-5.93-1.26-11.89-2.31-16.83-4.33-3.16,1.07-3.38,4.81-7.1,4.73l3.54-5.62A3.6,3.6,0,0,0,89.49,99ZM77.24,73c-.74,6.78,2.28,11.84,6.61,16.71C88.79,82.1,85.66,74.3,77.24,73ZM113.4,46.9a117.62,117.62,0,0,1,2.23-18.63,7.75,7.75,0,0,0-6.43.14,133.05,133.05,0,0,0-.31,18.5,13.23,13.23,0,0,0,2.2.42A14.65,14.65,0,0,0,113.4,46.9Zm29,48.29c-8.81-4.87-16.91-1.33-17,7C131.66,101.75,137,99.3,142.37,95.19ZM119.46,47c1.63.95,2.83,1.19,4,.33,1.77-4.88,3.51-9.65,5.35-14.72-2.07-.52-3.77-.91-5.78-.12C121.14,37,120.54,41.93,119.46,47Zm16.85-11.77c-3.13,4.14-4.84,9.11-6.93,13.91a5.76,5.76,0,0,0,3.86,1.34c2.63-4.53,5.25-9,7.91-13.61C139.4,36,138.16,35.14,136.31,35.22Zm-81.51,57c-4,2.43-5.78,5.13-5.15,9,.59,3.69,2.41,6.44,7.19,6.76ZM97.44,35.29c1,3.68.25,7.66,1.68,11.23a3.08,3.08,0,0,0,3.82-.63c-.37-3.6-.76-7.48-1.15-11.25C100.44,34,99.36,34.29,97.44,35.29Zm48.82,13.85a32.45,32.45,0,0,0-7.07,6.34c.54,1.36,1.11,2.31,2.76,2.35l7.32-4.15C148.58,51.68,147.87,50.23,146.26,49.14ZM59.32,92.06c.67,5,.55,9.51,2.14,13.8C65.86,101.09,65.21,95.89,59.32,92.06Zm-.08,22.64,1.62-.11L57.34,88.91l-1.43.19Z" style="fill: #444"/>
    <path d="M56.09,86c-2.26-2.14-5.27-3.51-6.53-6.64-2.6,1.7-5.05,3.39-7.6,4.93a25,25,0,0,1-8.31,3.75c2.82-8.78,1.51-18.36,10.41-23.75-1.57-2.85-4.55-4.34-5.22-7.43,4.52,3,7.43,8.38,13.89,9.39-.16-4.17.48-8.08-1.23-11.86-4.63-1.81-9.42-1.45-14.39-2.31L39,57c-2.29-1.48-3.61-3.61-4.68-7,9.14,1.74,18.71-.59,25.29,8.24,3.81-3.6,7.28-7.5,12.69-10.91-1.46,9.71,3.15,19.43-6.22,26.31A92.77,92.77,0,0,1,77.6,86.91c-7.78.43-14.72.43-21.64-1Zm-3-14.88c-5,0-8.91-1.42-13.07-.16a63.5,63.5,0,0,0-4.15,15.15C42.9,82.34,48.64,78.38,53.14,71.13Zm7,13.7,14.75.88c-5.07-6.39-9.68-11.48-17.29-13.95C57.8,76.69,57.34,80.83,60.19,84.83ZM57.82,66.46c4.69.89,8.55.31,12.12-2.19a41.36,41.36,0,0,0,.84-14C64.93,55,60.05,59.37,57.82,66.46Z" style="fill: #444"/>
  </g>
</svg>
