<svg id="图层_1" data-name="图层 1" xmlns="http://www.w3.org/2000/svg" viewBox="0 0 200 200">
  <g>
    <path d="M90,75V73.52c7.86-4,15.77-8,24.56-11.54.82,0,1,2,2.44,2,.15.76-.5,1.91,1,2,.15.76-.5,1.91.81,2.1,10.12,20.74,20.43,41.38,30.72,62l1.39-.34c-2.66-5.19-5.31-10.34-7.91-15.51s-5.09-10.22-7.62-15.33-5-10.59-7.81-15.74-4.67-10.7-8.77-15.05c0-.86.69-2-.81-2.1-.15-.76.5-1.91-1-2,.13-.62-.32-1.34.34-1.85A195.29,195.29,0,0,1,143.48,69l4.63,9c2.94-.22,5.44-2.06,9.14-.28,1.59,1.71,2.49,5.08,4.09,8.06,4.66,8.72,9.52,17.33,13.74,26.49a8.9,8.9,0,0,1-3.63,5.56L152,79.13h-2.77c-.11.43-.35.81-.25,1q10.26,20,20.57,39.93a2.06,2.06,0,0,0,.39.4c-1.91,1.8-3.81,3.61-5.73,5.43l-13.43-2.1a9.35,9.35,0,0,0,2.29,4.82c1.53,1,3.31-.22,4.76.68l.17,1.33c-2.13.82-4.45,0-6.21.41-2.88,1.35-4.9,3.43-7.65,4.26-.33.53,0,1.34-.64,1.64-1.06.34-1.53-.47-2.26-1.13l-21,13c-2-2.14-2.56-5.21-4.28-7.58.09-1.73,2.71-2.18,2-4.22.63.11.86-.27,1.07-1-1.79-2.67-2.63-6-4.1-9-3.69-7.57-7.11-15.26-10.55-22.95-2.75-6.15-5.71-12.21-8.55-18.31C94.17,82.05,92.85,78.07,90,75Zm25,1a.71.71,0,0,0-.6-.89c-.07,0-.31.22-.29.29a.71.71,0,0,0,.89.6.71.71,0,0,0,.6.89c.07,0,.31-.22.29-.29A.71.71,0,0,0,115,76Zm11,22a.71.71,0,0,0-.6-.89c-.07,0-.31.22-.29.29.1.46.41.68.7-.13.42,1.7-.36,2.86.76,3.69A1.87,1.87,0,0,0,126,98Zm3,27a.71.71,0,0,0-.6-.89c-.07,0-.31.22-.29.29a.57.57,0,0,0,.91.44,2.71,2.71,0,0,0,1.73,3.12C131.45,126,130.11,125.58,129,125Zm16.11.83c-4.66,2.55-9.1,5.08-13.44,7.83s-9.19,4.44-12.63,7.79c-.16,2.28,1,3.33,1.54,4.93,4.94-3,9.47-5.69,14-8.44s9.48-4.79,13.51-8.36C146.83,128.54,147,126.7,145.11,125.83ZM93.54,78.11l22.83-10.47c-2.13-.74-.83-2.57-1.83-3.65a44.35,44.35,0,0,0-11.28,5c-3.64,2.2-8.22,2.62-12,6.18C93,75.66,92.75,77,93.54,78.11Zm29-9c2.42-1,4.47.91,6.9,1.11,2.13.17,4.52,1.16,6.69,1.55s4.38,2.5,7,.68A5.15,5.15,0,0,0,139.67,69c-4.57-1.38-9.37-2-13.77-4-2,.72-3.75-2.07-5.75-.71Zm-8,24.9c-.47.32-.47.66,0,1C115,94.67,115,94.33,114.5,94Zm2-16c-.47.32-.47.66,0,1C117,78.67,117,78.33,116.5,78Z" style="fill: #d2d3d4"/>
    <path d="M47,78a.76.76,0,0,1-1-.79c-.05-1.64,0-3.28,0-4.67,1.66-2,3.85-2.08,5.77-2.45,2.16-.43,4.52.24,6.56-1.09,3.62.64,7-1.51,10.58-1,1.8.25,3.2-1.28,5.09-1.07a7.51,7.51,0,0,0,4.67-.74c1.56-.83,3.89-.18,5.84-.18,2.65,2.55,2.86,6.52,5.49,9a9.82,9.82,0,0,0,.6,3.24c2,4.29,4.28,8.48,6.13,12.87,2.57,6.06,5.72,11.87,8.3,18,.77,1.83,2.32,3.43,2.73,5.31.92,4.19,3.74,7.44,5.15,11.31s3.37,7.56,5.09,11.32c-1.79,1.45-4.13,1.26-6.17,1.87-4.76,1.41-9.74,2.09-14.62,3.14-4.55,1-9.09,2.08-13.83,3.17-.71.93-2.27,1.52-2.47,3.23a3.76,3.76,0,0,0,3.69.43,72.51,72.51,0,0,1,12.22-2.93c2.89-.38,5.59-2,8.63-1.91,1.56-1.93,3.71-.6,5.55-1,1,1.37,2,1.37,3,0h1.53l2.82,5.65a21.24,21.24,0,0,1-6.08.33c-8.2-.08-16.32,1.72-24.54,1-2.91,1.39-6,.93-9.16,1-4-7.06-6.48-14.86-10.06-22.17-2.57-5.22-4.6-10.74-7.2-16-.49-1-.13-1.93-.31-2.87,2.09,2.49,2.72,5.71,4.17,8.44,3.92,7.37,6.46,15.34,10.46,22.64,1.23,2.25,1.34,5,3.22,7.2,1.44-.61,1.16-2.18,2-2.89-1.57-1.58-1.69-3.72-2.52-5.53Q73.75,129.8,69.2,119.7c-3-6.6-5.83-13.23-8.82-19.81C56.63,91.63,52.79,83.41,49,75.15c-.18-.39-.09-.89-.62-1.05L47,75.5Zm9.86-2.11C58.25,81.53,61.14,86,63,90.82c2.52,6.45,5.72,12.6,8.4,19C75,118.33,79.07,126.64,83,135c.7,1.46.87,3.48,2.22,3.83l25-5.34c-1-2.31-1.91-4.43-2.81-6.56-2.41-5.67-5.48-11-7.92-16.7-3.39-7.91-7.68-15.45-11.18-23.34-2.06-4.65-4.46-9.15-6.71-13.74A.93.93,0,0,0,81.2,73c-2.08.24-4.31-.64-6.25.57S70.29,72.8,68.53,75C64.6,74.39,61,76.76,56.86,75.89ZM109.5,144c-.47.32-.47.66,0,1C110,144.67,110,144.33,109.5,144Z" style="fill: #d2d3d4"/>
    <path d="M49.39,88.89,45.45,85c-1.9.47-3.29-1.79-4.73-.86S38,85,36.16,85c.39-2.55-1.52-4.69-1.14-7.54-2.61-2-4.76-4.57-7.43-6.75-2.38-1.94-4.25-4.84-6.45-7.08V59.9c1.85.39,3.68-.55,5.37,1,4.15-3.1,8.23-6.36,10.94-11.07,3.79.76,7,3,10.9,3.17,2.36,1.6,3.87,4.22,6.54,5.71-.79-1.58-1.21-3.94-2.47-4.55-2-1-1.7-2.69-2.81-4.12,1.29-1.44,2.15-3,4.19-3.31C54,45.37,54,43.83,55.57,43H57.5l1.87,1.88h4.09L66.07,48c.09.38-.34.86-1.29,1.6L67,50.81v3.66l-2.41,2.68c3.82-.41,4.1-3.38,5.71-4.95a17.25,17.25,0,0,1,5.34-4.06c1.46,2.16,4.57-.46,6,1.89,2.42-.72,4.53-2.25,7-2,.86,1.62.14,2.68-.63,3.72.65,2.39,1.66,4.47,4.49,5a7.13,7.13,0,0,0,7.26-2c1.34-2.35-1.2-3.12-1.82-4.55l1.45-3.08,2.31-.27.65-1.8c.87,0,1.72-.37,2.42.23A6.32,6.32,0,0,0,108,47.13c2.3.39,2.42,1.61,1,4.38.37.5,1.12.77.94,1.84-1.92,2.83-5.36,4.23-7.82,6.69-1.68,1.68-4.29,0-5.72,2-2-.31-4,.14-6.17-.8-2-.87-4.36-2.32-6.41-1.12-1.92-1-1.91-2.34-1.91-3.66L79,55c-1.51,1.53-4.42.34-5.17,2.83-3.83.7-7.58-.46-11.23,1.13-3.3,1.43-6.58,2.78-9.54,5.19-2.24-1.63-4.66-3.25-7.6-3.06-2.32.15-4,1.73-5.44,3.49L45.7,70.2c-1.37,2.9-.39,6-.74,8.86C46.44,82.06,48.26,84.78,49.39,88.89ZM35,56a.85.85,0,0,0-1,1,.85.85,0,0,0-1,1,2.44,2.44,0,0,0-2,2,.71.71,0,0,0-.89.6c0,.07.22.31.29.29A.71.71,0,0,0,31,60h2V58a.85.85,0,0,0,1-1,.85.85,0,0,0,1-1,.85.85,0,0,0,1-1,.71.71,0,0,0,.89-.6c0-.07-.22-.31-.29-.29A.71.71,0,0,0,36,55,.85.85,0,0,0,35,56Zm71-5a.71.71,0,0,0,.6.89c.07,0,.31-.22.29-.29A.71.71,0,0,0,106,51l1-2a13.87,13.87,0,0,1-3.94-.6c.19.21.48.59.52.57.44-.27,1.53.6,1.32-.42-.16-.8-1.14-.77.09.45C105.15,49.76,104.5,50.91,106,51ZM51,59a.71.71,0,0,0,.6.89c.07,0,.31-.22.29-.29a.87.87,0,0,0-.64-.72c-1.08-1.6-2.61-.66-3.83-.76-.38,0-.45.41,0,.76C48.5,58.88,49.75,58.88,51,59Zm9.15-7.88c1.16.93,1.16.93,2.82,0a23.81,23.81,0,0,0-3.38.17c.35-1.23,2.26-1.61,1-3.24C59.71,48.87,58.29,49.44,60.15,51.12ZM35,73a.71.71,0,0,0,.6.89c.07,0,.31-.22.29-.29-.1-.46-.41-.68-1-.14.47-2.74-1.86-3.27-2.65-4.76a39.38,39.38,0,0,1-1.81-4.81c-2.07.39-4.28-.26-7.12.64C28.46,66.52,30.5,71.35,35,73Zm1.15-6.8c3.5,2.06,4.91,5.57,6.28,8.73a1.33,1.33,0,0,0,1.72-.86A27.53,27.53,0,0,1,40.49,68C39.28,66.66,37.75,66.5,36.15,66.2Zm46.9-12.7a2.32,2.32,0,0,0-3.1,0A2.32,2.32,0,0,0,83.05,53.5Zm-26.19-.42.33,1.78a3.25,3.25,0,0,0,2-1.78Zm.6-6.12c-.6.9-.9,1.54.32,2C58,48.26,58.28,47.7,57.46,47ZM102,56.54c.9.6,1.54.9,2-.32C103.26,56,102.7,55.72,102,56.54Zm4-1c-.32-.47-.66-.47-1,0C105.33,56,105.67,56,106,55.5ZM103.5,53c.47-.32.47-.66,0-1C103,52.33,103,52.67,103.5,53Z" style="fill: #d2d3d4"/>
    <path d="M46.09,104.76v-3.41l3.63-1.6c1.19-1.55,1.43-3.58,2.15-6.12a12.12,12.12,0,0,1,.9,1.66c2.51,7.12,5.84,13.91,8.78,20.86,2.7,6.38,5.75,12.61,8.44,19,.76,1.8,1.42,3.65,2.39,6.13-2.32-.64-4-1.08-5-2.48-1.84-2.35-4.4-3.87-6.74-5.55s-5-2.43-7.39-3.56c-.91-1.65.45-2.8.86-4.08,1.92-6,1-10.75-3.67-15.68C48.84,108.27,48.23,105.89,46.09,104.76ZM66,134a.71.71,0,0,0,.6.89c.07,0,.31-.22.29-.29a.65.65,0,0,0-.83-.58c-2.81-3.11-5.36-6.42-9.11-8.42,1.81-1.84.82-3.74.51-5.62.14,3.18-2,5.72-2.39,8.81C59.54,129.05,62.28,132.53,66,134Zm-9.52-19.07c-.62.93-.92,1.57.18,1.95C57.15,116.26,57.19,115.7,56.48,114.93Z" style="fill: #d2d3d4"/>
    <path d="M121.28,159.78a12.19,12.19,0,0,1-9.35,9.08c-4.31,1.12-8.16-1.42-12-3.41,1.91-1.1,4.18.22,6.69-1.22-3.11-.45-5.81.31-8.3-1l-2.8-3.44a22.29,22.29,0,0,0-8.32-.78c2.37-3.08,2.49-2.72,6.77-4.15a13.23,13.23,0,0,1,7.92-.43,25.36,25.36,0,0,1,7.75,3.52h7.59C118.65,158.58,118.94,160.67,121.28,159.78Z" style="fill: #d2d3d4"/>
    <path d="M47.28,90.52c2.35,2.48,3.16,4,2.53,6.18L46.34,100H44.58c-1.07.73.2.93.11,2.31,0-.19-1.08.13-.69,1.09-2.27,2-5,1.77-7.57,1.5-1.45-.8-1.56-2.08-1.46-3.76-1.17.42-2.18,1.35-3,1-1.88-.78-1.7-2.64-2.8-3.51V94.79C29.89,92.35,32,93.54,33,92.5c-1.16-.57-2.44-.9-3.12-2.33.8-2.49,3.13-3.21,5.64-4.35l1.74,2.76,1.27-2.19c3.59-.89,6.21-.27,8.38,2.06A3.2,3.2,0,0,0,46,90c1-.09,1.34,1.58,1.28.52-2-.37-3.19-1-3.28.48a.71.71,0,0,0-.89.6c0,.07.22.31.29.29A.71.71,0,0,0,44,91C44.76,90.85,45.91,91.5,47.28,90.52ZM40,94.19c1.15,1.23,2.56.73,3.84.73.28-1,.28-1.55-.41-1.92-1.29-.24-2,1.6-4,1.07,1.41-1,2.06-2.22,1.34-3.74-.45-.5-.91-.31-1.52-.22A4,4,0,0,0,40,94.19ZM37,92.73c-.11-.68.17-1.22-.45-1.6a1.18,1.18,0,0,0-1.53.29C34.78,92.9,35.41,93.25,37,92.73Zm2.4,4.21a2.83,2.83,0,0,0,0,3.11L41,98.5ZM37,95.5c.32.47.66.47,1,0C37.67,95,37.33,95,37,95.5Z" style="fill: #d2d3d4"/>
    <path d="M38,133.14c0-1.22.11-2.88,0-4.52-.44-5.63,2.62-9.52,6.75-12.5,1.56-1.12,2.87-3,5.26-2.93,1.14-.28,1.22,1.07,2.27,1.3-1.13,3.3-4.69,2.87-6.35,5S42,123,41.16,125.73c-1.49,5,1.69,8.86,4.05,12.94.91,1.56,3.16,1.6,4.14,3.18,3.28.33,6.09,2.49,9.58,2.21,3.31-.27,6.65-.09,10,0,1.17,0,2.26,0,2.63-1,1.27-.18,1.49.62,2,1s.48.8.44,1.58c-2.34.45-4.52,1.66-7.18,1.44-1.85-.15-3.92-.67-5.58.92-.17.16-.69-.08-1,0-1.49.63-2.28-1-3.58-1a31,31,0,0,0-4,0c-1.41.18-2.53-.73-3.51-1.19-3.29-1.53-6.39-3.59-8.18-7C40.07,137.06,39.13,135.28,38,133.14Z" style="fill: #d2d3d4"/>
    <path d="M178.83,110.15v8.48c-1.72,1.24-2.44,3.5-4,5.17-6.2,6.58-13.59,11.36-21.68,15.24a43.23,43.23,0,0,1-8.27,2.9,30.17,30.17,0,0,0-15.26,8.95L127,149.38a3,3,0,0,1,.19-1c2.24-3.35,5.86-5.15,9.16-6.85,2.44-1.26,5.63-1.59,8.41-2.53,11.17-3.79,21-9.75,28.54-18.92C175.57,117.25,177.87,114.1,178.83,110.15Z" style="fill: #d2d3d4"/>
    <path d="M175.89,132.76c-7.47,4.85-16.09,7.22-23.69,11.71.08.11.27.52.37.5,3.55-.75,7.27-.52,10.74-1.78a1.9,1.9,0,0,1,.92-.17c3.63.73,7-1.71,10.56-.94,1.61.35,2.25-1.28,3.54-1.11.76.41.8,1,.48,1.79l-31.32,4.13c-1.37-.26-1.7-1.68-1.4-3.69,1.39.51,2.49,1.08,4.18.19,5.32-2.77,11-4.86,16.29-7.63,1.43-.75,3.73-.12,4.32-2.39-.71-.84-1.89,0-3.27-.89l2.21-1.25c1-.77,1.46,1.5,2.8.65,1.79-1.48-1.58-2.07-.54-3.48.27-.41.76-.42,1.37-.39C174.19,129.44,175,130.94,175.89,132.76Z" style="fill: #d2d3d4"/>
    <path d="M132.67,56a6.46,6.46,0,0,1,3.79-1c1.67,1.58,3.69,3,4.2,5.63a7,7,0,0,1-7.6.4,12.46,12.46,0,0,0-7.54-1l-1.82-2h-7.15a10,10,0,0,0-5.25-3.23c-.61-1.36-.19-2.58-.23-3.89a6,6,0,0,1,4.07,1.76A8,8,0,0,0,120.7,55c1.83-.07,2.46,2.82,4.66,2a3.42,3.42,0,0,0,4,.89c1.44-.64,3.19-1.17,3.3-1.86-.75,1.45-.53,1.76-.07,1.86.07,0,.31-.22.29-.29A2.4,2.4,0,0,1,132.67,56Zm3.4,2.45c-.93-.62-1.57-.92-1.95.18C134.74,59.15,135.3,59.19,136.07,58.48Z" style="fill: #d2d3d4"/>
    <path d="M178.83,98.13v7.74c-1.13-3.05-2.85-4.41-4.4-5.85-3.27,0-5.19-1.79-6.5-5.11C171.93,95.78,175.77,96.07,178.83,98.13Z" style="fill: #d2d3d4"/>
    <path d="M119.81,153.78c1.42-1.33,2.22-3.22,4.79-2.71l2.39,2.55c.59,2.31-1.44,3.07-2.52,4.38C121.66,158.23,120.44,156.61,119.81,153.78Z" style="fill: #d2d3d4"/>
    <path d="M61,110c-1.46-1.53-2.14-3.47-3.06-5.32-1.36-2.72-1.87-5.83-3.88-8.27-.4-.49-.06-1.59-.06-2.41,3.51,4.27,4.54,9.74,7,14.54C61.17,108.93,61,109.51,61,110Z" style="fill: #d2d3d4"/>
    <path d="M178.4,130.87,176,126c-.14-1.4,1.17-.71,1.6-1.1,1-.8-.18-2,.76-2.76.22.14.61.28.61.43,0,2.74,0,5.48,0,8.23Z" style="fill: #d2d3d4"/>
    <path d="M50,88V85c1.59,1.65,2.24,3.85,3.39,5.75.69,1.15.46,2.17.61,3.25-1.63-1.39-2.24-3.36-3-5.25C50.82,88.28,50.6,87.89,50,88Z" style="fill: #d2d3d4"/>
    <path d="M50,85c-1.81-2-3.17-4.16-3-7C48.81,80,50.17,82.16,50,85Z" style="fill: #d2d3d4"/>
    <path d="M111,143c1-1.37,2-1.37,3,0Z" style="fill: #d2d3d4"/>
    <path d="M50,88c-.12.61.29,1.31-.36,1.86-1.16-.28-.43-1.25-.64-1.86Z" style="fill: #d2d3d4"/>
    <path d="M81,103.59l1.7,1.55c.94-2.77-1.64-2.66-2.7-3.66l1.77-1.77c0-.85-1.4-1.36-.15-3-.07.1.44.32,1,.33l.62,1.74c1.51.26,3.25.19,3.73,2.23.16.79-.77.94-.92,1.57.69,1,1.93-.09,2.69.67-.13,1.67-1.72,1.49-2.66,2.12.7,2.46,4.06.84,4.78,3.25-1,.83-2.16.16-3.3.39l-2.12-2c-.68,1.35-1.36,2.69-2,4l-1.33-.19c.2-1.15,1.69-2.06.7-3.4-.7-.76-1.63-.48-2.56-.19-1.32,2,1.67,3.47.45,5.64-2.45-1.16-1.71-4-3.11-5.81l-1.21,1c-1.41-3.1,1.84-5.75.53-8.48.78-.72,1.35-.73,2.21,0-1.49,2.19-1.52,4.46.59,6.44C81.45,106.17,80.93,104.9,81,103.59ZM84.48,101c-.63.87-.92,1.51.28,2A1.48,1.48,0,0,0,84.48,101Z" style="fill: #d2d3d4"/>
    <path d="M89,118c.59-2,1.91-2.4,3.73-1.77.79,1.13-.32,2.61.66,3.68,1.6.6,2.69-2.31,4.65-.22l-2.7.94L97,122.49l-1.93,2L96.45,126h4.91c-3.64,2.18-3.64,2.18-7,1.12-.74.66-.41,1.54-.36,2.3,0,.39.58.74.89,1.12-.64.62-1.1,1.57-2.16,1.57-1.48-.85-.79-1.58.2-2.53-1.48-.27-.24-2.36-2-2.53v-2.46c-2.43-.44-2.43-.44-5.82,1.31L85,124.5c2.29-1.47,5.17-1.83,7-4-.67-.79-1.37-.38-2-.5-.15-.79.69-.92.9-1.54C90.5,117.65,89.67,118.11,89,118Zm4.51,7,1.33-2.74c-1-.41-2.06-.78-2.83.33C91.82,123.93,93,124.25,93.51,125Z" style="fill: #d2d3d4"/>
    <path d="M72,87H69.56c-.92.37-.17,1.62-1.34,2-.82-2.83,1.36-5,1.42-7.85L69,80.49l1.4-1.4c.84.23.47,1,.73,1.58.67.91,1.91-.21,2.66.62.22.25.46.47.69.7l1-1c1.8,1.45,2,3.87,3.42,5.51-.31.48-.79.49-1.49.43l-1.78-3.81c-1.1-.78-3.17.73-4.19-1.21l-1.33,2.73c1.29,1,1.73-.5,2.57-.65.65-.12,1.35,0,1.27,1A2.44,2.44,0,0,0,72,87Z" style="fill: #d2d3d4"/>
    <path d="M80.85,88.66c-1.77-3.76-1.74-8.15-5.26-10.54.72-1,1.13-1.21,2.06-1,1.71,3.94,3.55,8.12,5.32,12.32.16.38-.08.92-.15,1.46H80.41C79,89.67,80.62,89.21,80.85,88.66Z" style="fill: #d2d3d4"/>
    <path d="M91,127l-2.46,5-1.66-.18c.4-1.9,1.69-3.52,1-5.32,1.06-.78,1.1.44,1.61.5A14.79,14.79,0,0,0,91,127Z" style="fill: #d2d3d4"/>
    <path d="M74,85c1,0,1.19,1,1.93,1.37v3.26C75.19,90,75,91.05,74,91Z" style="fill: #d2d3d4"/>
    <path d="M74,91a4.91,4.91,0,0,1-4.08,3.13c.47-1.53,2-1.91,2.08-3.13Z" style="fill: #d2d3d4"/>
    <path d="M72,91a2.69,2.69,0,0,1-1.91-1.64c.5-.53,1-.49,1.79,0Z" style="fill: #d2d3d4"/>
    <path d="M88,121c.09-1.5,1.24-.85,2-1C89.91,121.5,88.76,120.85,88,121Z" style="fill: #d2d3d4"/>
    <path d="M87,119c.09-1.5,1.24-.85,2-1C88.91,119.5,87.76,118.85,87,119Z" style="fill: #d2d3d4"/>
    <path d="M87.4,118.88c-1,1.43-1.65,1.07-2.41,1C85.46,118.54,86.36,119.18,87.4,118.88Z" style="fill: #d2d3d4"/>
    <path d="M72,87a.71.71,0,0,1,.89.6c0,.07-.22.31-.29.29A.71.71,0,0,1,72,87Z" style="fill: #d2d3d4"/>
    <path d="M88,121a.71.71,0,0,1-.6.89c-.07,0-.31-.22-.29-.29A.71.71,0,0,1,88,121Z" style="fill: #d2d3d4"/>
    <path d="M81,104a.71.71,0,0,1-.89-.6c0-.07.22-.31.29-.29A.71.71,0,0,1,81,104Z" style="fill: #d2d3d4"/>
  </g>
</svg>
