<svg id="图层_1" data-name="图层 1" xmlns="http://www.w3.org/2000/svg" viewBox="0 0 200 200">
  <g>
    <path d="M168.62,76.85,174,69l6.73-3.94c0,.33.24.86.11,1-7.75,5.57-11.19,16.15-21.61,18.61-.8.19-1.87.32-2.29.87-6.61,8.61-16,8.26-25.4,8.18-4.47,0-9.6-.82-11.64,5.21-1.88,5.56.8,9.17,4.69,12.52,9,7.69,17.83,15.49,26.77,23.21,7.47,6.44,12.46,15.09,19.55,21.87a4.53,4.53,0,0,1,.64,1.26,5.39,5.39,0,0,1-1.75-.34q-9.66-5.58-19.28-11.26l5.8,1.2c1.07.22,2.18,1.06,3.19.09.15-.14-.38-1.18-.77-1.66-1-1.25-2.07-3.29-3.3-3.44-2.6-.32-2.71.11-3.55-2.07s-2.75-3.71-4.49-5.23c-7.62-6.64-17.3-10.3-24.81-17.14-1.78-1.63-4.42-3.44-6.54-1.17s-.66,5.44.9,7.76a13.54,13.54,0,0,0,4.17,3.39c9.83,6.17,19.71,12.26,29.57,18.38-9.14-2.78-16.62-8.7-24.8-13.28-10.08-5.63-9.8-5.76-12.21,5.63-1.84,8.69-2.51,17.65-5.79,26,.23-2.3.35-4.61.71-6.89,1.53-9.63,3.18-19.24,4.69-28.87a7.82,7.82,0,0,0-4.05-8.35c-3.88-2.24-2.66,3.08-4.82,3.57h0c.11-.44.22-.87.31-1.31,0-.05-.26-.21-.29-.19-2.22,1.79-2,4.46-2.19,6.83q-.81,11.16-1.14,22.34c-.15,4.58-1,9.34,2.38,13.36.48.58.83,2.06-.08,2-5.42-.37-.72,3-1.61,4.3-.21.31.16,2.21.78,1.73,1.2-.94,1.84-2.6,2.74-4,.63-1,1.3-1.9,2-2.85q-2.06,10.53-4.11,21.05c-.13.63-.38,1.24-.57,1.86a9.76,9.76,0,0,1-.83-2,216,216,0,0,1-3.38-49.09c.29-5.64-.23-11.32-.23-17,0-4.44-1.82-7.6-5.83-9.59-4.31-2.13-7.26.09-10.17,2.87-.72.7-1.06,2.15-2.57,1.74A14.39,14.39,0,0,1,81,113.84c1.37-1.53,2.85-3,4.29-4.41-2.8.09-4.3,2.23-5.91,4-2.23,2.42-5,6.59-7.75,4.19s0-6.85,2-9.91c2.55-3.91,6.62-3,10.43-2.82.74,0,1.73.67,2.12-.4.1-.27-.74-1-1.25-1.36a30.47,30.47,0,0,1-9.79-12.39c-1.08-2.37-2-1.74-3.75-.83-10.74,5.68-13.2,4.8-17.55-6.39-1.23-3.2-2.55-.57-3.12,0-7.53,7.75-15.38,15.34-20.44,25C26.4,116,19.42,120.11,13.89,125.77c-.27.28-.94,1.33-1.46.25a2,2,0,0,1,.3-1.8C26.56,111.55,34.61,94,48.6,81.49a18.77,18.77,0,0,1,4.08-2.84c2.16-1.09,4.57-3.55,6.7-2.14,1.46,1-1.26,3.22-1.63,5.11-.62,3.26.22,5.76,3.24,7,3.37,1.39,6.41.17,8.28-2.74A14.79,14.79,0,0,0,70.4,71.11c-4.25-9.34-5.23-18.24,3.14-26,1.89-1.77-.15-3.38-.21-5.07s.2-3.55,1.55-3.91c2.28-.6.76,1.71,1.31,2.6,1.34,2.16,2.62,3.29,5.59,2.81,7.9-1.28,15.19,2.56,19.12,9.72,2.89,5.26,5.3,10.81,11.54,13.14,3.83,1.42,7.33,1.15,9.89-2.21,2.78-3.65.41-7.79-5.12-9.39a31.68,31.68,0,0,1-3-1.23,20.35,20.35,0,0,1,2.75-2,34.43,34.43,0,0,1,13.94-3.36c13.69-.73,27.21,1.68,40.84,2a46.09,46.09,0,0,0,14.8-1.77c.73-.22,1.71-.72,2.12.36s-.6,1.49-1.38,1.64c-9.27,1.82-18.66,4.21-28.07,2.27-10.94-2.25-21.86-1.49-32.81-1.2-.7,0-4.74-1.08-2.09,2.75,5.57,8,3.75,13.41-5.61,16.59-3.21,1.09-4.67,1.76-2.72,5.5a23.74,23.74,0,0,1,2.28,12.64c-.07,1-.73,2.36.5,3.09.14.09,1.23-1.27,1.81-2,4.62-6.07,8.5-6.91,14.95-3.1,1.19.71,3.52,1.44,2.82,2.79s-2.23,3.27-4.63,3.21c-3.15-.07-6.34-.38-9.4.69a5.66,5.66,0,0,0-1.21.83c.39.16.84.54,1.16.45,6.38-1.7,12.95.49,19.34-1,3-.71,5.71-1.69,7.7-4.14L155,82.9C160.21,82.47,164.64,80.17,168.62,76.85ZM81.3,58.38l.12.13c-.62-2.91-.93-6.7-4.8-6.37-4.12.34-4.57,4.19-4.68,7.63a19.47,19.47,0,0,0,.15,4c.83,4.92,4.21,6.18,8.25,3.23C83.83,64.43,83.35,61.51,81.3,58.38Zm5.29-4.26L89.44,60c3.39,2.37,6.56,1.33,8.65-1.52s-.51-5.19-2.38-7.25A13.16,13.16,0,0,0,90,47.48c-2.06-.66-4.18-.46-5.25,1.53S83.91,53.17,86.59,54.12ZM114.82,97a42.06,42.06,0,0,0-1.11-4.79c-.42-1.28-1.74-1.4-3-1.27a3.66,3.66,0,0,0-3.12,2.17c-.3.64-.32,1.34.47,1.67s4-1,1.7,1.91c-1.32,1.63-3,.8-4.26-.63C102,92,104.27,86.1,110.15,85.29c3.6-.5,4.7-1.82,3.81-5.08A42.55,42.55,0,0,0,112,74.58c-.51-1.15-1-2.67-2.58-2.6-.22,0-.39,2-.51,3.12s-.24,2.32-1.32,3.08c-.39-1-.83-2-1.17-3-.27-.78-.3-1.66-.64-2.4a15.06,15.06,0,0,0-9.89-8.49c-3.44-1-5.19.4-6.28,3.63-.46,1.34-2.08.59-3.15.28-3.15-.94-4.65.73-5.57,3.4a14.89,14.89,0,0,0,1.71,13.79c.71,1.07,3.07,1.94,1.82,3.26-.83.87-2.61-.79-3.81-1.67-.73-.53-1.16-1.74-2.34-1.26-.23.09-.3.93-.22,1.38a15.51,15.51,0,0,0,5.77,9.65c2.4,1.79,3.46-1.64,5.19-2.56,4.51-2.43,9.83,0,10.12,4.83.12,1.93-.53,3.66-2.65,3.27-3.09-.56-.06-1.56,0-2.41.14-2-1.41-2-2.68-1.65-1.47.36-3.09,1.18-3,2.9.18,3.57,3.19,5.22,5.59,7.18a2.61,2.61,0,0,0,3.63.14,3,3,0,0,0,.59-1.29c.28-.82-2.07-1.39-.46-2.11,1.2-.53,2.1.81,2.5,1.93.73,2-.46,4.76,2.18,6.14-1.64,3,.35,4.49,2.61,3.75,2.69-.89,6.46-1,7.36-4.83.13-.54-.11-1.64-.38-1.72-3.18-.87-2-5.06-4.83-6.27-.43-.18-.31-1.81-.29-2.77,0-.16.79-.54,1.11-.45C114.5,102,114.83,101.82,114.82,97Z" style="fill: #d2d3d4"/>
    <path d="M58.54,102.14c-8.27-.88-13.84,4-20.45,3.46-.63,0-1.57.39-1.86.1-.75-.74.07-1.44.51-2.07A122.5,122.5,0,0,1,49.09,89.26c1.3-1.36,2-1.47,3.45.22,5.79,7,9,7.72,17.18,4,2.06-.94,3.1-1.09,4.24,1.12,1,1.92.21,3-1.29,3.48C67.51,99.68,62.28,101.08,58.54,102.14Z" style="fill: #d2d3d4"/>
    <path d="M140.71,51.87a23,23,0,0,1,2.49,0c2.91.32,5.93-.46,8.71.95-2.34,2.62-4.38,5.71-7.64,7.17-4.08,1.83-6.84,4.94-10,7.91-3.52,3.32-8.16,5.52-12.49,7.88-1.75.95-2.4-.79-3-2.3-.74-1.85.23-2.25,1.61-2.8,7.42-2.93,11.55-7.69,8.84-16.2-.75-2.34.95-2.39,2.51-2.41,3,0,6,0,9,0Z" style="fill: #d2d3d4"/>
    <path d="M51.47,131.11c-3.65.85-7.19,2.57-11.1,1-3.76-1.49-4.62-3.49-1.94-6.91,4.22-5.4,10.75-6.09,16.46-8.44,1.15-.47,1.29-.14,1,5,.07,1.74.15,3.48.23,5.22C54.91,128.7,53.88,130.69,51.47,131.11Z" style="fill: #d2d3d4"/>
    <path d="M168.62,76.85c-4,3.32-8.41,5.62-13.67,6.05-.31-.92-.63-1.83-.94-2.74-1.23-2.89-6.69-2.32-6-5.23.43-2,4.75-3,7.34-4.48a15.44,15.44,0,0,1,3.53-1.74c3.52-.86,7.55-2.24,10.45.29C171.63,71.05,168.52,74.14,168.62,76.85Z" style="fill: #d2d3d4"/>
    <path d="M154,80.16c.31.91.63,1.82.94,2.74l-3.69,4.77c-4.35,2.38-8.61,4.68-11.86-1.64-.55-1.06-2.09-1.58-3.09-2.44-1.45-1.25-3.82-1.15-4.67-3.25a47.29,47.29,0,0,0,5.16-1.72C142.86,75.88,148.44,77.81,154,80.16Z" style="fill: #d2d3d4"/>
    <path d="M56.16,127l-.23-5.22a25.14,25.14,0,0,1,12.13-12.56c.73-.35,1.65-1.12,2.17-.91,1,.4.21,1.38.07,2.12-.72,3.71-1.54,7.18.06,11.14,1.15,2.87-3.61,3.29-4.52,5.78Z" style="fill: #d2d3d4"/>
    <path d="M33.17,133c-1.26.28-2.5.63-3.77.84-4.42.76-7.14-.34-5.92-5.58L27.6,124c1.69-1,3.36-2,5.07-3,2-1.16,4.62-1.3,6,.17s-1.25,2.56-2,3.85A11.93,11.93,0,0,0,35,132Z" style="fill: #d2d3d4"/>
    <path d="M180.73,65.07,174,69c-3.6-.84-6.6-3.61-10.69-3.06-2.05.28-1.38-1-.77-2.14,2.24-4.29,12.93-7,16.94-4.16C181.53,61.08,180.67,63.18,180.73,65.07Z" style="fill: #d2d3d4"/>
    <path d="M33.17,133,35,132c5.59,1.66,11.21,4,16.48-.93,2.45-.42,3.48-2.41,4.73-4.14l9.68.35c2.21-.41,3.82-1.87,5.59-3.09.95-.66,1.46-2.39,3.16-1.59a18.49,18.49,0,0,1-2.2,2.53c-3.92,3.17-8,5.9-13.47,5.25a5.05,5.05,0,0,0-2.76.79c-6.09,3.35-12.14,4.16-19.39,3.69-6.33-.4-13.32,1-20,1.77-1.2.13-3.32.87-3.44-.28-.14-1.37,2.1-.91,3.25-1.39,3.27-1.34,6.49.67,9.79.12C28.76,134.72,31.33,135.05,33.17,133Z" style="fill: #d2d3d4"/>
    <path d="M27.6,124l-4.12,4.25c-1.82,3.26-4.24,5.61-8.28,5.55-1.07,0-2.46.75-2.89-.93-.24-.93-.41-2.15.59-2.72,4.58-2.6,7.38-7.17,11.51-10.25,1.62-1.21,3.87-2.8,5.38-1.4,2,1.84-1.62,2.44-1.87,4C27.85,123,27.71,123.48,27.6,124Z" style="fill: #d2d3d4"/>
    <path d="M172.88,57.44c-2.62.27-3.77.45-4.92.48-.73,0-1.89.48-2-.69a2.93,2.93,0,0,1,1.1-2,10.72,10.72,0,0,1,7-2.11,35.12,35.12,0,0,0,12.21-1.75,7.66,7.66,0,0,1,2.26-.1c0,1,.45,2.51,0,2.8-2.7,1.82-4,6.27-8.82,4.33C177.23,57.36,174.23,57.6,172.88,57.44Z" style="fill: #d2d3d4"/>
    <path d="M150.86,67.53c5.67-.79,8.8-4,9.34-9.74.12-1.28-.22-2.8,1.63-3.1a3.53,3.53,0,0,1,1.72.26,11.41,11.41,0,0,1-.38,3.31c-2.17,6.61-7,10.91-13.13,13.45-5.18,2.13-10.7,3.42-16.09,5a6.85,6.85,0,0,1-1.92,0,15.15,15.15,0,0,0,1.32-1.34c1-1.31,1.9-2.35,4-2.35A18.84,18.84,0,0,0,150.54,68,3.55,3.55,0,0,1,150.86,67.53Z" style="fill: #d2d3d4"/>
    <path d="M61.87,108.41c.51.08,2.19-.61,1.22.63-6,7.72-21.87,11.86-30.46,8.19a24.75,24.75,0,0,1-2.87-1.72A12.81,12.81,0,0,1,30.91,114c1.44-1.44,2.31-.1,3.28.74,3.07,2.65,6.62,2.8,10.31,1.81,5.76-1.53,11.33-3.53,15.9-7.58Z" style="fill: #d2d3d4"/>
    <path d="M61.87,108.41l-1.47.51c-3.33,1.63-6.71,2.26-10.23.59-.64-.31-2.44,0-.89-1.55C51.75,105.41,58.76,105.65,61.87,108.41Z" style="fill: #d2d3d4"/>
    <path d="M150.86,67.53a3.55,3.55,0,0,0-.32.47v-.34Z" style="fill: #d2d3d4"/>
    <path d="M104.42,124.09c1.52,7.31-.77,14.52-.6,21.8.11,4.48-.37,9,1.68,13.18.39.81,1,1.92-.34,2.39-.26.09-1.29-1.06-1.4-1.72a70.12,70.12,0,0,1-.74-7.38,161.86,161.86,0,0,1,1.41-28.26Z" style="fill: #d2d3d4"/>
  </g>
</svg>
