<svg id="图层_1" data-name="图层 1" xmlns="http://www.w3.org/2000/svg" viewBox="0 0 200 200">
  <g>
    <path d="M133.92,64.76c-3.62,3.79-1.42,7.51-.62,10.8.68,2.81,3.2,5,6,6.52,2.17,1.2,4.19,2.13,6.72,2a72.16,72.16,0,0,1,7.5,0c.93,0,1.43-.48,2.42-1.43-.08,4.55-2.12,7.82-4,11.17-.87,1.58-.87,1.57-3.12,2.77a16,16,0,0,0,2.55,4.69c-3.7,1.3-5.15,4.65-7.94,8-.76-4.5-.84-7.72.49-10.78-.25-.25-.37-.46-.49-.46s-.23.2-.35.32c-1.89,1.89-3.67,3.89-5.68,5.63a25.18,25.18,0,0,1-12,6c-6,1.08-11.88,5.54-15.6,12.07,3.81-.61,7.06,1.6,10.68.94,1.36-.25,2.08,1.15,3.59,1.1,5.69-.17,10.8-1.38,14.18-5.93l12.5-2.8,2,1-3,2.65c.52,4.65,2.82,8.08,4.14,11,0,2.06-1.06,2.5-1.72,3.16s.19,1.84-1.13,1.83c-1,.35-1.16-1.15-1.9-1l-8.2,8.46c-3.73-2.28-3.73-2.28-1-7.77-2.64-1.91-6.06-2-8.84-3.59-.55-.31-1.5.15-2.28.36-3.6,1-6.93,2.64-10.46,3.79-2.07.67-4.53,1.57-6,3.72s-4,2.77-5.58,4.61-4.21,2-5.75,3.61A39.7,39.7,0,0,1,89,138.43c-1.58-1.68-3.74-2.31-5.64-3.34a55.43,55.43,0,0,0-7.27-2.92c-1.49-.56-3.27-2-5-1.11-2.67,1.36-5.92.83-8.36,2.76-.35.27-.93.52-.74,1,.19,1.27,1.23,1.68,1.92,2.59v3A2.69,2.69,0,0,1,61.73,142c-3.15-2.31-5.26-6.07-9.06-7.86-.77,0-1.06,1.23-2.21.74a7,7,0,0,0-2.65-3.49c.88-4.06,3.61-7.17,4.21-11.22-.57-1.12-.78-2.56-1.91-3.6.94-1.57,2-1.92,3.91-1.22,2.64,1,5.39,2,8.78,1.55a9.54,9.54,0,0,0,1,1.37c2.28,2.25,4.32,4.48,8,4.88,3,.31,5.8,1.75,8.7-.17.11-.08.33,0,.49,0,3.63.72,7-1.32,10.86-1A24.72,24.72,0,0,0,83.69,113a20.52,20.52,0,0,0-7.28-3A23.55,23.55,0,0,1,61,99.87c-.37-.52-.77-1-1.15-1.53A4.09,4.09,0,0,0,58.34,97c-.07,3.61-1.13,7.14.69,10.5-.82,1-1.79.51-2.84.34-1.44-1.92-2.23-4.62-5.11-5.16-.47-2.32,1.18-3.86,2.24-6-1.42-.9-3.16-1.24-3.61-3.31-.38-1.73-2.48-3.23-2.52-4.86,0-1.86-2-3.15-.92-5.49,4.9,1.48,10.06.88,15.06,1,4-2.45,7.7-5,9.62-10.33v-6l-1.79-2.52v5.6c-1.88,3.84-3.5,7-7,9.11-1.94.09-4.09,1.74-6.59,1.1-2.23,2.68-4.45-.9-6.95.23L46,77.62V74.89C41,65.26,37.62,55.83,39.39,45c1.67-10.17,4.66-19.69,11.26-27.81.9.73.3,1.94.32,3,.07,4.5,0,9,0,13.5,0,1.56,2.29,10.61,3,12.26,2.29,5.37,6.5,9.17,10.6,13.06,2.12-.13,2.23,1.88,2.78,3,1.59.18,1.36-.78,1.72-1.46C72,55,76.57,52,82.94,52a28.7,28.7,0,0,0,5.49-.07c2-.38,3.36.94,5.06,1.26,2.8.53,5.37,2.25,8.21,3.54,2.12-1.16,5.14-1.37,7-3.73,2,.24,3.48-1.51,5.61-1.07a22.79,22.79,0,0,0,5.48.06c6.94-.32,11.45,3.08,14.2,9.2.13.28.33.53.49.8,1.23.28,1.69-.79,2.41-1.39,2-1.66,3.29-4.11,5.95-5,2.83-3.75,5.75-7.46,7.14-12,1.15-3.79,2.39-7.57,2-11.67a6.63,6.63,0,0,1,.85-4.65,4.17,4.17,0,0,0-.1-3.81c-1.49-2.06-.38-4.11-.94-6.4,1.83,1.54,6.8,8.1,7.1,9.77.67,3.69,2.79,6.84,3.32,10.69.49,3.56,1.65,7,1.75,10.73.31,11.09-.35,11.67-6,24.52-1.12,2.53-2.14,5.11-3.38,8.09-1,1-3.44-1.12-4.2,1.27-4.32-1.82-9.41-1-12.4-4.73A18.64,18.64,0,0,1,133.92,64.76ZM115.39,78c-.86,1.81-3.37,1.78-4.35,3.49s-1.23,3.5-2.2,5-2,2.92-1.9,4.93c0,1.78-1.82,3.42-.55,5.41.21-.17.56-.32.59-.52.78-6.22,4.27-10.84,8.91-14.67A6.19,6.19,0,0,1,119.63,80c4-.11,6.13-2.77,7.9-5.94.45-.81.74-1.35-.12-2-3,3.91-6.94,6-23.31,32.72a29.25,29.25,0,0,1,1.36-12.65c1.57-4.4,3-8.81,2.49-13.67-2.4-2.06-4.38-4.72-6.93-6.57-2.89,1.75-3.49,5-6,6.57,0,2.26-.34,4.49.12,6.54.29,1.28.87,2.62,1.22,4,1.29,4.84,2.89,9.64,2.4,14.68-.09,1.67-2,2.51-1.66,4.84,1.26,1.27,1.38,4.11,4.33,4.65,2-1.84,4-3.62,4.61-6.56C105.44,105.94,104.83,105.38,115.39,78Zm27.46,10.25c-2.29,1.56-4.12,3.52-6.49,4.92-4.4,2.58-8.63,5.34-13.61,6.87-6.32,1.93-11.58,7.52-13.7,13.78-.2.58-.47,1.6.22,1.91,2-.4,1.88-2.24,2.64-3.41,1.78-2.76,3.71-5.24,6.78-6.53,4.55-1.9,9-4,13.94-4.86a9,9,0,0,0,4.1-2.14C140.06,96.09,141.3,92.16,142.85,88.29ZM59,88.16c1.11,2,2.1,3.66,3,5.4A18.66,18.66,0,0,0,65.45,98c3,3.26,7.18,3.64,10.94,4.87,9.06,3,10.73,4,16.22,12.15.24.35.6,1.32,1.46.38-.24-1.38-1.34-2.42-1.77-3.7-2.14-6.35-7.49-9.29-13-11.64C71.74,96.84,67,94.33,61.87,89.39,61.2,88.74,60.71,87.71,59,88.16Zm98.66-57.31c-1.68,2.12.35,3.75.34,5.52,0,7.08.63,14.16-1.87,21.11-2.08,5.78-4.54,11-10.18,14.12-.17,1.74-3.09.54-2.92,2.67,2.06,1.92,4.44,2,6.77,1.56C160.21,62,162.32,47.11,157.61,30.85Zm-97.16,43c-3.18-1.48-4.82-4-7-5.89-5.31-4.63-7.36-11.06-8.21-17.51-.66-5-1.2-10.42.69-15.56a4.78,4.78,0,0,0-.52-4.22C44.55,35,43.65,38.87,43,42.82c-.77,4.9.27,9.83,1.21,14.51A33.28,33.28,0,0,0,49,68.82C50.62,71.37,52.13,74,54.56,76,57.23,75.9,57.23,75.9,60.45,73.85Zm52.9-15.79c-.47,2.17-2.61,3.81-2.45,5.53l2.55,3.4c2,0,3.71.43,4.37-1.67-1.24-.3-.34-1.93-1.6-2.38-1.06-.43-2,.7-3.43.83.59-2.38,2.56-3.26,3.74-4.44,2.54-1.67,5.29-1.4,7.66-1.3,1.43,1.28,2.65,2.39,3.78,3.41v4c-.62,1-1.67,1.48-2.08,2.74a4.9,4.9,0,0,1-2.63,2.68c-1.14.43-1.76.84-1.9,2.23,3.83-.89,6-3.82,8.3-6.42,1.72-2,1.63-4.74,1.35-6.5L127.49,56C119.6,55.41,120.32,55.33,113.35,58.06ZM81.87,72.71a15,15,0,0,1-6.94-9.41c.66-1.23.82-2.71,2-3.69,3.16-2.92,6.52-1.13,10-.34,1,1.11,2,2.33,3.06,3.61.12.14-.14.57-.22.89-.84.21-1.07-1.19-2-.77-1.6.92-2.47,2.08-1.35,4,1.89-.21,4,.84,5.49-1.42V61.39c-1-1-2.05-1.81-2.11-3.16-1.53-.68-3.09-1-4.34-2.23-2.39,0-4.88-.06-7.37,0-2.16.06-4.06.74-5.08,2.87-.9,1.88-1.78,3.64-.12,5.76.4.51.78,1.78,1.21,2.43C75.93,69.83,78.09,72.38,81.87,72.71Zm26.13-11c2.78-6.36,8.78-6.55,14.62-8.49-4.7-.49-8.87-.93-12.14,1a12.3,12.3,0,0,0-6.37,9.8c0-.17,1.09.29.93,1.45-.39,2.73,1.86,4.34,3.3,6,.79.93,2.72,2.41,4.64,1-2.26-.77-3.47-2.72-5-4ZM90.64,73c4.46-.15,5.49-3.42,7.29-5.61,1.17-1.42.9-6.64-.1-8-3.21-4.43-10.29-8-15.63-5.66,4.85,1.78,10.65,2.09,12.68,7.82v7.56Zm4.65,24.22c.36-.48.66-.7.69-1,.57-4.45-1.4-8.25-3.29-12A11.55,11.55,0,0,0,85,77.86c-3.41-1-7.09-1.83-9.89-4.69.54,1.54.53,3.14,2.18,4.54,1.9.15,3.67,1.74,5.91,2.51a14.38,14.38,0,0,1,8,6.06A27,27,0,0,1,95.29,97.21Zm5.28,25.34c2.8-3.52,5.87-6.15,6-10.86-2.53.83-3.52,3.52-5.84,4.52-1.55-1.38-2.86-2.91-4.77-4.6C95.9,116.47,99.7,118.6,100.57,122.55Zm-44.64,11,5,5c-1-1.53-.6-3.61-1.79-5.25,1.14-.82,2.1-1.84,3.34-2.62,1-.66,2.72,0,3.35-1.64h-5.3C58.66,130.64,55.64,131,55.93,133.6Zm90.08.89c-.76-4.5-3.32-5.81-10-4.94a10,10,0,0,1,6.86,3.94c-1.25,1.67-1.23,3.61-1.94,5.85Z" style="fill: #24292E"/>
    <path d="M147.12,150.32c-3.37.54-6.46,2.69-9.84,1.4-2.87-1.1-6.48-.44-8.55-3.49-3.91-.79-3.77-5.15-6.7-7.64-.17,4.36.83,8.81-3.81,11.3-.26-1.94-.43-4.09-1.7-6-2.64,2.8-2.83,7-6.24,9.18a3.14,3.14,0,0,1-2.39-2.51,2.51,2.51,0,0,0-3.27-1.53c-1.07,1.64-2.15,3.31-3.43,5.29a17.65,17.65,0,0,1-3.6-5.23c-3.24-.7-3.87,2.09-5.31,4.06-4-1.6-4-6.23-6.54-9-1.82,1.55-1.76,3.7-1.82,5.82-2.13-1-2.74-2.85-4-4.87v-6.47a7.71,7.71,0,0,0-2,2.83c-1.38,3.25-2.15,3.71-8.55,7.57-3.29-1.13-6.7,2.24-10,.54-1.38-.69-3.82.67-4-2.4,3.4-2.37,7.49-4.65,10.58-8.89,0-.61.08-1.73.14-2.85,1-1.57,3.3-1.44,4-3.13,3.11-1.06,5.8.29,8.69.95,2,2.19,4.07,4.39,6,6.83,4.14,5.22,9.79,7.8,16.63,8,7.37.2,12.62-3.47,16.48-9,2.57-3.68,5.92-5.6,9.81-7a3.57,3.57,0,0,1,3.31.35,27,27,0,0,0,3.8,1.94C136.33,143,141.89,146.31,147.12,150.32Z" style="fill: #24292E"/>
    <path d="M101.11,165.17c-1.18-.56-1.76-1.49-2.93-1.18-3.89,1-8,1.65-11.65,3.18-2.27,1-4.79,1.3-7,2.58l-6-3c0-1.13-1.67-1.77-1.47-3.15a12.91,12.91,0,0,0-2.19-9c1.61-1.5,2.16,0,3.08.71V162c3.12,6.77,7.57,5.57,12.76,3.66,1.54-.57,4.33-.49,4.52-3.32,3-.34,5.44-2.25,8.51-2.37a32.82,32.82,0,0,1,12.66,2,3.27,3.27,0,0,0,1,0c2.14,3.58,5.49,5,10.53,4.91a9.31,9.31,0,0,0,5-3.37A29.87,29.87,0,0,1,130.37,153l1.22.12c.14.28.47.67.38.81A17.5,17.5,0,0,0,130,164.33c-1.69,3-4.14,4.73-8.29,5.13-4.67-1.06-9.81-4.11-15.79-4.6C104.31,164.73,102.82,163.29,101.11,165.17Z" style="fill: #24292E"/>
    <path d="M163.75,102.92H158.7c-.83.5-.67,1-.7,1.55-.9,1.09-2.15.27-3.65.68L152,107.73c1.22,1.67-.06,3.31-.22,5.17-3.81-.17-7.13,2.33-11.24,2.08l-2.75-3.26c-2.22,2.42-5.69,1.64-7.5,4.16-.11-2.4,1.45-3.27,3.57-4.24.59-.79-.36-2.76,1.86-3.54h4l1.22,1.85h3.51c2-1.52,3.12-4.08,5-5.66a19.62,19.62,0,0,1,7.08-3.22C159.06,100.34,161.32,102.54,163.75,102.92Z" style="fill: #24292E"/>
    <path d="M46.5,102c1.55,1.76,4.4,1.24,5.73,2.9a28.67,28.67,0,0,0,4.46,5.1c.43.26,1.44-.11,2.78,0a9.24,9.24,0,0,1,5.35-3.18c3.16,1.28,3.47,5.08,6.3,6.57-1.45,1-2.39.15-3.62-.2s-1.88-2.38-3-1.41c-2,.55-2.48,1.67-2.89,3.29C57.4,114.36,53.07,114,49,112v-4.12c-.74-1.89-2.51-1.53-3.3-2.6-.87-.08-1.36,1.4-2.56.47l-.29-1.37c-1.38-.77-3.09,0-4.78-.46C41,102,41,102,46.5,102Z" style="fill: #24292E"/>
    <path d="M86.23,163.07c-2.73,2.67-5.86,1.75-9.06,2-4-6.09-2.28-12,.28-18.55C80.56,152.33,82.32,158.31,86.23,163.07Z" style="fill: #24292E"/>
    <path d="M123.38,146.92a8,8,0,0,1,2.65,6.79c-.13,2.81,0,5.63,0,8.85L123,165h-5.54c-.43-1.13-1.77-.68-2.68-1.74C118.88,158.62,121.15,152.9,123.38,146.92Z" style="fill: #24292E"/>
  </g>
</svg>
