<svg id="图层_1" data-name="图层 1" xmlns="http://www.w3.org/2000/svg" viewBox="0 0 200 200">
  <g>
    <path d="M86.41,108,97.7,132.57c-9.3,11.06-18.09,22.66-27,34.43-5,0-9.95-.31-14.88.09s-9.61-1.73-14.59-1c-.26-1.23.78-1.41,1.16-2a10.43,10.43,0,0,1,1.4-1.42A134.5,134.5,0,0,0,55.57,149.1c2-2.52,4.12-5,6.28-7.4A160.62,160.62,0,0,0,76,123.08c2.84-4.31,5.53-8.72,8.5-12.93C85,109.46,84.37,107.91,86.41,108ZM60.54,151.71c4.63-2.16,8.32-4.54,9.59-10.07-3.23,2.68-6.1,4.49-9.71,4.48-4.73,4.37-8.1,9.79-12.16,14.78,2.44-.65,4.61-1.77,6.91-2.51,2.94-.95,6-1.63,9-2.39,3.81-1,7.36-2.13,9.44-6,1.48-2.75,3.54-7.91,3.37-11.07a22.58,22.58,0,0,1,2.92-12.8c.4-.69,2.11-1.54.75-3-3.15,2-4.93,5.14-6.64,8.78a43.61,43.61,0,0,0,.07,6.53c.36,2.54-1.19,4.6-1.29,7.06a4.83,4.83,0,0,1-3.59,3.93C66.49,150.28,64.14,152.33,60.54,151.71Z" style="fill: #d2d3d4"/>
    <path d="M115,90.39c1.63-.53,1.42-2.8,3-3.35s2.47-1.86,3.9-2.62a20.77,20.77,0,0,1,7.53-2.21c2.57-.26,5-1.37,7.56-1.24s5.38-.27,8,.1c3.68.53,7-1.6,10.14-1.08,2.08-1,3.79-1.86,4.78-3.49-1.41-2.13-3.75-2.85-6-4L155.75,71c3,1.67,6.76,2.46,9.17,5.51-2,3-5.43,3.73-8.29,5.28a119.8,119.8,0,0,0-14.91,9.91c-5.4,4.06-10.16,8.86-15.61,12.87-3,2.25-5.48,5.34-8.19,8l-5.18,5.18c-5.74-2.58-8.49-8.18-12.69-12.31a16.17,16.17,0,0,1,8.39-1.44c2.62.26,5-.85,7.41-1.45,2.25-.55,3.7-2.48,5.27-4.35-.8-2.88-4.27-2.37-5.94-4.59C114.67,92.8,115.14,91.62,115,90.39Zm32-6.89c-.44-.67-1.14-.46-1.77-.5-5-.34-9.92,1.73-15,1-.39,0-.83.45-1.27.49-2.57.21-4.68,1.49-6.82,2.9-.53,1.66-1.89,3.27-.84,5.47a9.42,9.42,0,0,0,8.11,1.78c-1.55-.7-2.78-1.09-3.36-2.23V89.77l2.27-2.62C134.69,85.69,141,85.38,147,83.5Z" style="fill: #d2d3d4"/>
    <path d="M110.29,145.82c1.25.23,2.49.66,3.29-1,.52,1.27.75,2.13-.5,2.2s-1.29,1.33-2.34,1.51l1.79,3.49c.89-.76.19-1.67.86-2.94.33-.44.54.72,1,.83a16.81,16.81,0,0,0,2.16.2l2.22-3.36c.42,8.19.12,15.09.26,22.1-6.27-3.53-10.22-9.49-16.09-13.32l1.84-1.52h4.6c-1.77-2.08-4.28-2.45-5.26-4.57.56-1,1.75,0,2.58-.58.49-1.56,0-2.85-.57-4.45-3-8.77-7-17.1-10.36-25.69-3-7.57-5.39-15.4-9.19-22.66-2.28-4.36-3.28-9.26-5.42-13.74-.76-1.6-1.2-3.5-2.19-5.07S77.78,74,77.13,72.46c-3.64-8.65-6.91-17.45-10.21-26A2.61,2.61,0,0,1,69.14,44c.3.19.72.29.82.52,1.67,4,3.24,8,5,11.92S77.18,64.63,80,68c.43,4.75,3,8.74,4.68,13,1.58,4.15,3.38,8.27,5,12.39s3.17,8.36,4.85,12.47,3.38,8.27,5.08,12.38c3.46,8.39,6.34,17,10.32,25.19C110.29,144.18,109.67,145.12,110.29,145.82Zm2.47,9.05c1.55,3.68,3.1,7.36,5.08,12V150.2C116.54,152.75,114.34,152.8,112.76,154.87Z" style="fill: #d2d3d4"/>
    <path d="M107.46,73.12c5.09-6.82,8.3-8.88,12.61-7.83A6.54,6.54,0,0,1,115.28,68c-2,.22-2.62,2.37-4,3.17-.65,5.94-2,11.68-.92,18.07.92-1.18.81-2.93,2.78-3.07a11.19,11.19,0,0,1-2,4.32c-.62,3,.13,5.57,2.93,7.25-.34,1.68-1.59,1.95-2.76,2.5-4.1,1.9-8.42,1.85-12.65,1.71-2.59-1.45-2.24-4.42-3.52-6.57-1-1.69.1-4,1.39-5.26,1.94-2,2.81-4.6,4.28-6.82a53.4,53.4,0,0,0,3.95-6.51,75.31,75.31,0,0,1,3.89-6.88c.28-.47.35-.88-1.17,3.19-5.17,7.35-4.67,11.51-6.34,14.69-1.06,2,1.24,4.08,1.14,6.38,1.48.66,2.94,1,3.68,2.37L104.5,98c-1.29,0-2.76-.36-3.91.09-1.5.58-2-2.44-3.53-.64.79,1.48,2.56,1.58,3.6,2.46h7c1.1-1.3,2.85-2.08,2.36-4.22a7,7,0,0,0-3.63-3.06C103.29,87.78,106,82.87,107.46,73.12Z" style="fill: #d2d3d4"/>
    <path d="M126.48,139l1.48-1.3c.92,1.63,2.84,2.27,3.57,4.71a7.4,7.4,0,0,1,3-4.34c.33,2.66-.06,3.48-3.77,7.9,3.37,3.87,6.79,7.72,11.19,10.72-6.92-1.39-13.3-4.23-20.25-6.8,1.87-1.5,4-1.74,5.52-3.7-2.32.25-3.86-1.4-6.33-1.35l2.15-2.56a30,30,0,0,0-5.85-7.58c-3.94-3.82-7.71-7.83-11.69-11.6-2.4-2.28-4.3-4.73-4.48-8.13-.06-1-1.93-1.24-.63-2.68,5.08,3.52,8.09,9.23,12.69,13.42S122.05,134.55,126.48,139Z" style="fill: #d2d3d4"/>
    <path d="M156,56c-2.43,1.84-4.9,3.64-6.13,6.61-.12.28-.45.47-.69.7-4.06,4-8.19,8-11.25,12.57h-4.75c1.89-3.95,5.27-6.46,7.95-9.57,5.38-6.27,10.65-12.64,16.54-18.46.59-.58.2-1.24.33-1.85a.78.78,0,0,0,1-.76c.08-.67.08-1.31,1-1.24,2.65-1.43,4.17-4.1,6.58-6,1.29-.34,1.95,1.32,3.35,1.24a16.85,16.85,0,0,1-1.88,3.13c-2.6,2.76-5.29,5.43-8,8A2.73,2.73,0,0,0,159,53Z" style="fill: #d2d3d4"/>
    <path d="M55,71a2.59,2.59,0,0,0-.66-2.21c-2.5-2.37-4.9-4.85-7.34-7.29l2.43-2.43C52.82,61.84,55.32,65.54,59,68c1.49,1.24,3.24,2.21,3.84,4.29A1,1,0,0,0,64,73c-.35,1.37.57,2.09,1.4,2.92,4.84,4.8,9.53,9.77,14.52,14.41,3.4,3.16,4.84,7.11,5.79,11.5-2.92-3.15-6.82-5.3-8.78-9.35-.34-.71-1.14-1.19-1.73-1.78l-18-18c-.33-.33-.57-.87-1.2-.71A.85.85,0,0,0,55,71Z" style="fill: #d2d3d4"/>
    <path d="M156,56l3-3c3.94-2.75,6.73-6.7,10.58-9.91h10.23c-1.5,3.51-5.32,4.36-7.5,7-2.31,2.79-5.09,5.2-7.73,7.84h-8.15C155.69,57.33,156.13,56.61,156,56Z" style="fill: #d2d3d4"/>
    <path d="M125,71c-4,2.25-5.29,6.7-9.17,9.88h-2.45c-.45-.24-.36-.38-.07-.72A123,123,0,0,0,123,67.71c1.38-2.16,3.31-3.9,4.9-5.92,3.55-4.52,6.86-9.25,10.59-13.59,2.32-2.71,4-6,6.77-8l2.24,1.43c-3,3.83-5.66,7.41-8.55,10.79-2,2.33-3.42,5.16-5.94,7.07-.24.19,0,1,0,1.46C130.37,64.36,127.29,67.37,125,71Z" style="fill: #d2d3d4"/>
    <path d="M160,44c-.94-.07-.94.57-1,1.24a.78.78,0,0,1-1,.76c-3.11,2.57-6.38,5-8.26,8.73a5,5,0,0,1-1,1.07c-3.54,3.61-7.37,7-10.31,11.2a15.7,15.7,0,0,1,3.68-9.58c4.72-5.34,9.61-10.55,14-16.15,2-2.58,4.24-4.89,6.69-7.58v6.16C162.25,41,159.56,41.51,160,44Z" style="fill: #d2d3d4"/>
    <path d="M55,71a.85.85,0,0,1,1,1,2.76,2.76,0,0,0,1,2.58c3.35,3.23,6.6,6.55,9.92,9.87-.89,1.1-2.1.32-3.46.64-1.13-1.16-2.34-2.5-3.65-3.73-2.24-2.1-4.08-4.62-6.94-6.07-.86-.44-2.08-1.2-1.91-2.63A1.14,1.14,0,0,1,52.15,72c.27,0,.54-.27,1-.52-1.47-.81-3-.28-4.36-.46L39,63.9c3.22.69,5.09-.85,7.26-.94C49.42,65.47,51.67,68.82,55,71Z" style="fill: #d2d3d4"/>
    <path d="M59.38,45.1c2-.59,3.52,1.24,5.85,1.07L76.11,73.26c-.68,1.11-1.6.57-2.56.86C70.81,68.84,69.17,63.05,66,58.33c.16-1.57,1.55-1.89,1.92-3-1-.77-2.22-.21-3.47-.39C63.3,51.49,60.19,49,59.38,45.1Z" style="fill: #d2d3d4"/>
    <path d="M64,73a1,1,0,0,1-1.16-.71c-.6-2.08-2.35-3.05-3.84-4.29a2.73,2.73,0,0,0-1-2.57c-2.75-2.62-5.39-5.34-7.86-7.81-.74-2.14,1.33-3,1.31-4.75,3.09,4.35,7.11,7.65,10,11.95,1.51,2.24,4,3.69,5.27,6.29.4.84.11,1.59.44,2.71a4.9,4.9,0,0,1,4.76,2.46V79.6c-.24.47-.39.39-.73.09C68.75,77.49,66.84,74.75,64,73Z" style="fill: #d2d3d4"/>
    <path d="M70.86,42.61c.67-1.86,1.2-3.49,2.83-4.69,2,9.13,6.94,17.32,7.56,26.83.6.5.63-.41,1-.48,1.87,4.13,1.87,4.13.32,7.69a61.39,61.39,0,0,1-3.81-9.43c-1.2-3.43-2.84-6.76-4-10.25C73.58,49,72.12,45.73,70.86,42.61Z" style="fill: #d2d3d4"/>
    <path d="M68.83,168.16c-.78,2.67-2.65,4.31-4.57,5.93-.71-.11-1.6,0-1.93-.34-2.28-2.56-5.17-2.87-8.35-2.79-5.27.14-10.54,0-15.89,0v-2.84Z" style="fill: #d2d3d4"/>
    <path d="M152.08,61.19h8.78L151.09,71c-2.35-.71-5,.88-8.35,1.11C145.91,68,150.09,65.5,152.08,61.19Z" style="fill: #d2d3d4"/>
    <path d="M140.8,36.92v6.42L121.61,67.16c-1-1.06-.5-1.6,0-2.34,3-4.2,5.93-8.46,8.89-12.73l1,.88C133.07,47.14,137.54,43.05,140.8,36.92Z" style="fill: #d2d3d4"/>
    <path d="M149.54,43c.79.18,1.67-.34,2.34.39-4,5.72-8.82,10.76-13.87,16.64a6.62,6.62,0,0,1-3.13-.34C140.24,54.34,144.14,48,149.54,43Z" style="fill: #d2d3d4"/>
    <path d="M125,71c2.29-3.63,5.37-6.64,8-10a2.49,2.49,0,0,1,2.81,1.49c-2.7,3-4.77,6.72-8.34,9.34C126.7,71.84,125.41,72.87,125,71Z" style="fill: #d2d3d4"/>
  </g>
</svg>
