<svg id="图层_1" data-name="图层 1" xmlns="http://www.w3.org/2000/svg" viewBox="0 0 200 200">
  <g>
    <path d="M172,131c2.52,1.35,4,3.83,6.06,5.5-.81,2.89-2.57,5.3-2.07,7.9-1.48,2.14-3.66,2.08-5.34,2.48-6.81,1.63-13.6,3.39-20.42,4.92-5.18,1.15-10.44,2.23-15.67,3.3-5,1-10,2.42-15,3.54-3.8.85-7.61,1.91-11.53,2.45-4.14.57-8.19,1.81-12.57,2.83-1.58-.38-2.07-2.39-2.36-3.58-.83-3.55-2.88-6.49-4.13-9.8s-2.69-6.55-3.84-9.89c-2.45-7.14-5.74-13.94-8.4-21a119.15,119.15,0,0,0-6.22-14.37c-.74-1.38.73-3.85-2.26-4-3.14,1.56-4.26,5.09-5.16,8.3C62.05,113.49,60,116.68,58,120c-2.84.2-5,2.6-8.18,2.1-2.92-.46-6-.1-9-.1H37.5c-5.33,5.33-5.46,5.88-2.82,11.26,2,1.59,4.77,1.83,7.18,3.06-.79,1.27-1,2.91-2.52,3.68a17.18,17.18,0,0,1-8.46-5.61,2.77,2.77,0,0,1-.84-2.84c.08-1-.45-1.52-1.21-2.22,1.5-2.05.85-4.75,2.27-6.69-1.62-1.88-2.05.58-3.18.4A16.4,16.4,0,0,0,25,123c-3.83,1.67-6.16,4.12-7.21,7.81-1.2-.6-2.59-.8-3.61-2.22,2.29-3.23,4.32-6.78,8.36-8.43,1.9-.71,3.94.42,6.09-1,1.4-.91,3.89-.17,5.86-.17a12.27,12.27,0,0,1,6.86-5c5.09-1.78,10.33-3,15.13-5.73,1.48-.83,2.38-2.74,4.72-2.55-1.86-1.27-4-1.55-5.18-3.26-.12-3.32,2.24-5.17,4.51-7.47,1.9.43,3.68-.54,5.64-1.38-1.93-1.55-.8-4.52-3.15-5.61.09-2-.09-3.83-2-5,.13-3.45-2-6.21-3.17-9.16-1.09-2.67-1.82-5.59-3.52-8C53.67,64.91,54,63.9,54,63,54,58.8,54,54.65,54,50.5c.64-.81,1.55-.58,2.3-.47,5.1.79,9.78-1.11,14.48-2.45,3-.85,6-1.47,9-2.4S86,43.33,89.22,44c1.2.26,1.72-.72,2.77-1.1a43.4,43.4,0,0,1,7.56,5c.76-.59.32-1.32.45-1.93h.5c8.73.65,17.36-.92,26.07-1.11a3.78,3.78,0,0,1,1.11-.85c.44-.15,1,0,1.31-.54v-1c-.22-.11-.51-.38-.65-.32-.29.13-.51.66-.72.64-5.84-.44-11.55,2-17.46.67,3.23,0,6.2-1.78,9.42-1.47,3.44.33,6.57-2.06,10.14-.83L131,42.5c-.81,3.61,1.3,7.21,1,10.88,3.12,4.53,4.18,9.79,6.85,14.27-1.13.89-2.61-.2-4,.93l9,6c.24,7.55.44,8.25,3.53,12.32.63-.1.76-1.07,1.7-.85.14.06.58.08.69.29,1.76,3.27,3.28,6.68,5.27,9.8,1.3,2,3.25,3.68,4.92,5.52a92.06,92.06,0,0,0-3.9,13.8c-.18,1.06-.86,1.65-1.14,2.56-1.38,4.45-2.62,8.89-1.69,14.4-3.34-2.49-3.24-6.33-6-8.61-.33,2.79,1.78,4.59,2.14,6.94s2.81,3.86,4.5,5.66c-2.25,1.8-5.11,1.77-7.69,2.56s-5.42,1.83-8.16,1.9a36.52,36.52,0,0,0-8,1.33c-5.28,1.34-10.76,1.83-15.91,3.75-1.43.54-3.32-.63-4.61,1.06-2.26-2.09-3.37-5-4.3-7.67-1-3-2.87-5.52-3.72-8.46s-2.48-5.65-3.66-8.49C96.24,118.55,94,115,92.67,111s-4.3-7.24-4.7-11.56c-3.21-4.78-4.66-10.41-7.4-15.43a81.72,81.72,0,0,1-5.1-11.37c-1.36-3.78-3.72-7.08-4.67-11.11-.68-2.84-2.9-5.4-3.85-8,.32-2.64,2.21-2.22,3.67-2.75a63.16,63.16,0,0,1,13.95-3.63c3.17-.39,6.13-1.84,9.42-1.56a10.57,10.57,0,0,0-6.66-.48c-3.38,1-6.94.73-10.2,1.92-3.52,1.28-7.22,1.82-10.79,2.87A7.31,7.31,0,0,0,64,51.54a56.67,56.67,0,0,0,4.92,11.05c-1.56,2.64-4.44.76-6.58,1.63-.45.4-.28.89-.2,1.44,2.6,1.54,4.84-1.66,7.68-.36,2.42,5.41,5,11.17,7.81,17.42A30.19,30.19,0,0,0,70,84.37V85.8c1.17-.27,2.17-1.19,3.41-.81s2.47-.35,3.76-1.15c3.15,2.08,2.72,6.12,4.72,8.87s2.26,6.38,4.31,9.48c-2.22,2.31-5.88,1.32-8.16,3.51,3.35,1.35,6.31-1.56,9.38-.63,3,6.83,5.88,13.6,8.92,20.62-2.59.21-4.45,1.94-6.76,1.23-.75.88-2,1.41-1.42,3,3.14-.47,6-2.11,9.33-1.9,2.4,5.49,4.84,11.07,7.3,16.68-2.23,2.74-6.51,1-8.82,3.79l1.16,1.16,8.67-2.41c.87.5,1.05,1.68,1.56,2.66,2.14-.9,4.2-1.93,6.64-1.94a28.73,28.73,0,0,0,8.26-1.74c2-.6,4-.43,6.06-1,1.88-.5,3.91-1.45,6-1.24,2.3.23,4.25-1.63,6.59-1,1.51-1.73,4.2-.14,5.67-2,5.94.06,11.39-2.49,17.23-3.19a52.75,52.75,0,0,0,10.08-2.2C174.58,133.54,171.06,133.18,172,131Zm-23-26.07c-5.22-9.52-8.94-19.17-13.76-28.31s-8.33-18.87-13.43-27.46c-4.38-.84-8,1.5-12,.93C109,50,108,51,106.6,51.73c1.87,1.05,1.33,3,2.09,4.59,2.8,5.81,5.14,11.84,7.86,17.69s5.45,12,8.09,18.1c3.19,7.33,6.54,14.59,9.78,21.79l10.29-2.24c1-2.57-.77-4.41-1.79-6.73Zm-40.64,54.44L174,144.64c0-.58.22-1.11,0-1.25-5.14.71-9.86,2.28-15.1,2l2.5-1.28c3.49-.11,7.83-1.75,11.13-2.16l3.45-2.87c-2,0-4-.57-5.5.1-4.63,2.1-9.68,2.47-14.48,3.59-6.39,1.49-12.86,2.8-19.29,4.21s-13,2.35-19.29,4.17c-2.79.81-6.11,0-8.07,2.09C108.46,155.23,107.48,156.79,108.39,159.37Zm-11.11-4.28c-2-2.78-2.83-5.65-4-8.33-2.11-4.78-4.11-9.64-6.07-14.46-2-5-4.22-9.91-6.19-14.93-1.85-4.73-4.09-9.34-5.82-14.06-3-8.26-6.89-16.15-9.83-24.42-1-2.75-2.33-5.36-3.33-8.11s-2.09-5.52-3.25-8.14c-1.06-2.42-1.43-5.38-3.58-7.71,0,3.21-.84,6.34.17,8.7,2.52,5.95,5,11.92,7.53,17.86,2,4.68,4.16,9.3,5.92,14,1.66,4.48,3.49,8.89,5.21,13.34s3.75,8.77,5.51,13.2,3.56,8.53,5.32,12.79C87,140,89,145.13,91,150.29c.95,2.43,2.19,4.77,2.9,7.27a6.83,6.83,0,0,0,1.73,2.6C96.38,158.26,95.33,156.37,97.28,155.09Zm54.34-31.2c1.76-6.18,4.35-12.12,5.49-18.78-3.63-.55-6.66,1.77-9.92.85-.61,2.54.83,3.94,1.33,4.9a29.6,29.6,0,0,1-1.82,7.47C149,119.64,149.14,122.69,151.62,123.89ZM38.48,119.13c5.84-.46,11,.7,16.29-1.41a18.93,18.93,0,0,0,5.13-7.41c-1,.41-1.69,1.45-2.55,1.6-1.26.21-2.05,1.82-3.54,1.09C49.18,115.49,43.54,115.21,38.48,119.13Zm59.46,37.43a6.07,6.07,0,0,1-1.63,5.33,23.15,23.15,0,0,0,9.8-2.33c-1.29-2.21,1.87-4.16.3-7-1.73,2.09-3.93,1.31-5.94,1.51ZM60,101.78c1.19.28,2.42.39,3.2-.44l4.21-4.21h-4c-1,1-2.71,1-3.42,2.41Z" style="fill: #444"/>
    <path d="M51,107c.54-1.88-1.35-2.43-2.11-3.86.79-1.41,1.64-3,1-4.71-.79-1.5-2.12-1.51-3.42-1.5-4.52-4.21-8.14-9.11-11.91-14.4,3.81-1.35,7.12-3.48,10.81-3.37a21.2,21.2,0,0,1,8.42,1.73C54.58,79.48,53,76.81,56,76c1.06,0,1.45,1,2.07,2,1,1.66,1.14,3.82,2.94,5-.09,2,.09,3.83,2,5,0,1.25-.4,2.64.81,3.43-.74,3-3.62,1-5.43,2.36-1.57,1.14-2.78,2.64-4.36,3.59-.08,3.14-.44,6.24,2.25,8.45-.88,1.46-2.32,1.39-3.11,2.14C52.09,108.27,52,106.78,51,107Z" style="fill: #444"/>
    <path d="M84.21,143.9l-6.62,3.31c-4.16-5.62-6.63-12.1-10.48-17.73-.89-2.94,1.24-5.55,1-8.53-.28-2.8-.06-5.65-.06-8.46-1.07-1.1-1.75-.28-2.56.59-1.56-3.42,1.27-5.5,2.2-8.69,2.69,3,3.38,6.6,4.71,9.68,1.39,3.23,2.9,6.45,4.18,9.75s1.92,6.93,4.44,9.65C80.92,137.29,84.62,139.64,84.21,143.9Z" style="fill: #444"/>
    <path d="M51.19,108.18c-.74,1.22-2.22.54-2.63,1.84-2.14-1.79-2.79-4.55-4.74-6.81l2.72-2c-5-.17-7.7-3.25-9.86-6.3S31.91,89.6,29.45,87A16.53,16.53,0,0,1,26,82,33.75,33.75,0,0,1,37.67,77c1.26-.21,2.1-1.71,3.58-1,2.71-1.89,5.43-1.16,8.23.14a8.35,8.35,0,0,1,3-4.09c1.68-.5,2.61.41,3.47,1.47a4.23,4.23,0,0,1-2.89,1.76l-.18,3.77c-2.27-2.21-5.39.14-7.57-2-4.45,1.11-8.5,3.63-13.56,4.33,1.89,3.09,4.25,5.6,6.27,8.37,2.14,2.94,4.76,5.34,7.21,8.05,1.33.26,2.9.16,3.81,1.95-.19,1.31-1.67,2.58-1.25,3.58C48.43,105.79,50.58,106.24,51.19,108.18Z" style="fill: #444"/>
    <path d="M64.42,114c1.53-.15,1.72,1,2.55,1.26.23,3.75-.86,7.28-1.66,10.79-.53,2.34-.51,4.54.76,6.39a142.53,142.53,0,0,1,9.14,16.2,5.18,5.18,0,0,0,1.06,1.09c3.19-.94,5.71-3.55,9.14-3.88l1.81,1.9C85,147.5,84.57,150,82.69,150c-.92,0-1.47.73-2.13.87-3.32.74-5,2.91-6,6.63C72.86,152.32,70,148.38,68,144s-4.39-8.84-6.67-13.4c.07-1.66,1.87-2.84,1.76-4.86-.09-1.82,1.81-3.46.81-5.29l-4.84,5c-1.4-1.31-.7-2.88-2.07-3,.27-2.82,3.54-2.11,4.06-4.33C61.51,116.06,63.66,115.42,64.42,114Z" style="fill: #444"/>
    <path d="M164,125c1.27.45,2-.89,3-1,1.58-.07.62,1.62,1.53,2.11.7.37,1.13,1.2,1.79,1.68.82.61.67,1.41.67,2.21-.83.14-1.06-1.05-1.56-.95-3.15.61-5.89-1.83-8.87-1L159,126.48c1.62-1.28,2.62-3.32,5-3.83,0-.63.28-1.57,0-1.87-2.54-2.37-2.72-5.89-4.38-8.64-.87-1.43-.59-2.7-.24-4.5a30.17,30.17,0,0,1,5,10.19l3.54,3.43c-.58,2.07-3.6,1.46-3.87,3.74a.71.71,0,0,0-.89.6c0,.07.22.31.29.29A.71.71,0,0,0,164,125Z" style="fill: #444"/>
    <path d="M99.1,46.52V43.34c1.9-.86,3.41.13,5.08.58,1.5.4,3.19.08,4.8.42-1.67,1-3.47.48-5.2.65C102.31,45.14,100.65,44.49,99.1,46.52Z" style="fill: #444"/>
    <path d="M172,131a.85.85,0,0,1-1-1A.85.85,0,0,1,172,131Z" style="fill: #444"/>
    <path d="M56.05,114.55l-2.72,2.22L52,115.51l3.49-1.68Z" style="fill: #444"/>
  </g>
</svg>
