<svg id="图层_1" data-name="图层 1" xmlns="http://www.w3.org/2000/svg" viewBox="0 0 200 200">
  <g>
    <path d="M151,103c-.16,3.17,2.52,3.58,4.48,3.88,2.5.37,4.75,2,7.35,1.06l.17,1.41c-1.36,1.64-3.5-.21-5,1.13a18.86,18.86,0,0,0,11.65,5.36c8,.75,11.4,1,14.9-1.87l1.31,1.54a25.33,25.33,0,0,1-13.7,8.65v23.4c1.64.29,2.55,1.72,3.73,2.83.23,1.61.5,3.26-1.16,4.39a3.74,3.74,0,0,1-.91.21H129.22c-.79-2.4-3.73-3.63-3.15-6.82h-5.66l-1.51,2.63-2.3-4.67c-1.06-.61-2.53.49-3.62-.65,1.11-1.11,2.6,0,3.79-.73,0-.89-.87-1.15-1.26-1.75H80.45l-1.33,1.48c1,1.32,2.77-.23,3.83,1-1,1.22-2.47.12-3.59.7C79,147.5,77.68,148.42,78,150c-1.24-.31-.84-1.11-1.21-1.81h-6.4c-.12,2.66-2.45,4.36-3.58,6.72H20.16v-4.57L24,146.55V124.32c-5.33-1.64-10.25-4.28-13.87-8.9C10.75,115,11,114,12,114c1.17,0,1.3,1.41,2.28,1.81,2.22-.14,4.54,1.43,6.41,1,6-1.31,12.67-1.16,17.34-6.4-1.52-.89-3.24-.13-4.65-.49l-1.83-2a22.25,22.25,0,0,0,10.69-1.66,5.52,5.52,0,0,0,2.44-1.41c.39-.47.24-.91.4-1.75A4.06,4.06,0,0,0,49.44,101c.82-1.42,2-2.85,1.26-5.45-1.36,2.62-2,5.08-4.4,6.45H18.46l-1.31-1.42a21.72,21.72,0,0,1,6.9-5.9c-.4-3.66.59-6.58,3.8-8.71,3-2,6.3-2.12,9.65-1.93,1.41-3.38,4.56-5.15,6.85-8,4.21.94,4.76-4.27,8.21-4.89,2.94-.47,6.11.43,9.58-1,1.2,1.39,3.42.6,5.42.85.92,1.18,2.79,1,3.42,2.73H65.33L63.47,72h-3L58,74.5c-.11,2.59,6.39,9.63,11.91,10.85v3.49H55.41c-1.43-1.09-2.93-2.26-5.06-1.7-.67.52-.22,1.24-.35,1.86a.71.71,0,0,0-.89.6c0,.07.22.31.29.29A.71.71,0,0,0,50,89c1.06-.18,1.82.76,2.6.89,2.51.42,4.87,1.5,7.57,1.19A83.12,83.12,0,0,1,69.5,91l1.33-1.33V83.3c-5.69-.18-8.66-4-11.47-9.19,4.28.3,7.53,2.47,10.75,1.9l5.71-3h44.56c3.75,3.47,8.05,3.65,12.52,1.44a4.8,4.8,0,0,1,2.3-.47c.26,0,.53.3.8.47-.71,4.31-4.48,5.93-7.79,8.52h-3.06v7.75H139.8c-.68-.25.37.24.09-.37-.06-.14-.22-.34-.34-.34-4.12,0-8.24,0-12.28,0-.33-1.17-.55-1.9.73-2.07a3.58,3.58,0,0,0,2.56-2.14c2.59-5.44,7.74-7,12.76-8.9a27.6,27.6,0,0,1,13-1.87,30.84,30.84,0,0,1,8.89,6.64c1.08,1.24,2.62,1.66,4,2.3,5.57,2.51,9.76,6.35,11.91,12.57-2.68,1-5.54-.12-8.31.74a8.64,8.64,0,0,1,4.45,4.12c-2.39.64-4.36,1.67-6.83,1.61-6.49-.15-13,0-19.48,0-2.46-2.36-4.43-4.94-3.93-8.59,1.11-1.11,2.52-2,2-3.37l-2.47-3c-2-.11-3.72-.45-4.48,1.59a1.08,1.08,0,0,0,1.7,0,1.54,1.54,0,0,1,1.75-.58c1.14,1.55.29,2.68-1.1,3.93H57.56a29.08,29.08,0,0,0-4.48,0c-1.59.25-2.52-1.52-4.08-1a.71.71,0,0,0-.6-.89c-.07,0-.31.22-.29.29A.71.71,0,0,0,49,92c.27,1.44,1.75,1.89,2.49,3H143.7c2.05,2.45,1.61,6.64,5.23,8ZM63.67,113.17H82.94c.23,7.06-.17,14,.2,20.66H112c0-6.8,0-13.43,0-20.06a.84.84,0,0,1,.16-.43,2.26,2.26,0,0,1,.35-.34c1.83,0,3.67-.11,5.49,0,3,.22,6.15-.7,9.11.9a2.37,2.37,0,0,0,2.77-.34c.67-.78,1.51-.4,2.26-.61a2.5,2.5,0,0,0,1.8-2H110.13c-1.53-5-6.31-5.74-10-8-6.73-.37-12.28,1.58-15.65,8-7.25,0-14.56,0-21.87,0-.18,0-.36.38-.53.58ZM29.08,144.83H58c0-2.47,0-4.78,0-7.08s.26-4.55-.19-6.58H29.08Zm109,0H167c0-2.47,0-4.77,0-7.08s.25-4.55-.18-6.6H138.09Zm-92.52-36a23.81,23.81,0,0,1-8,6c-2.7,1.41-5.81,2.15-8.58,3.36-3.36,1.48-6.78,0-10,1.17v1.14c1.42.49,2.56,1.57,4.3,1.56,13.79-.07,27.57,0,41.21,0l1.87-2a31.25,31.25,0,0,0-4.81,0c-1.8.3-3.18-.64-4.4-1.46C53.05,115.79,48.77,113.12,45.57,108.86Zm84.14,11.24c1.17,1.46,2,2,3.34,1.94,13.15-.07,26.3,0,39.45-.06.77,0,1.8.49,2.31-.35s3.13-.15,1.69-2.85c-4.68,1.22-9.41-.07-13.76-1.91s-9-4-12.26-8c-3.88,4.67-8.77,8-14.5,11.19ZM88.17,83.37v6.3l1.25,1.25h17.33c2.25-2.42.84-5.2,1.26-7.58-4.6-3.62-9.54-3.55-14.4-3.3C92,81.42,89.71,81.54,88.17,83.37ZM65.88,150.16H22.31c-.63.77-1.54,1.14-1.31,2.15l1.22,1.5H65.88Zm106.68,0H130.17c-.17,1.4-.49,2.66.18,3.72h43.57C174.14,152.42,174.1,151.21,172.56,150.15ZM73.33,116.06c-7.25,0-13.43-1.5-17.62-6.86H48.62c2.37,2.11,4,4.22,6.52,5.53a67.32,67.32,0,0,1,6.5,4.33C65.64,118.66,69.88,120.16,73.33,116.06Zm49.68-.13c.69,2.53,2.73,2,4.08,2.52,2.89,1,6,1.25,8.82-.48,4-2.45,8.13-4.69,11.18-8.84h-6.75C135.92,114.25,130.22,116.54,123,115.93ZM39.15,128.86H49.8c.44-2,.48-3.65-1.1-4.72H40.43C38.58,125.43,38.93,127.06,39.15,128.86Zm107,0H157c-.17-1.87.59-3.79-1.47-4.68h-8.18C145.59,125.5,145.94,127.11,146.17,128.84ZM84.82,89.71V83c-1.64.18-2.54-1.74-4.37-.92l-1.36,1.29v6.38C81,91.34,82.76,91.81,84.82,89.71Zm32,0V83.16c-1.6-.1-2.56-1.79-4.34-1.09l-1.39,1.32v6.23C113.74,91.44,113.92,91.44,116.82,89.75ZM64,126.44c0,2.88,0,5.69,0,8.49a71.94,71.94,0,0,0,.24,8.81,46.23,46.23,0,0,0,2-4.57c1.39-4.6.66-9.28.41-13.94,0-.09-.25-.15-.37-.22C65.3,124.77,64.94,125.67,64,126.44Zm65-1.11c0,2.73.17,5.67-.05,8.57a13.31,13.31,0,0,0,2.89,9.28V126.32C131,125.68,130.6,124.52,129,125.33Zm-92,3.58c-.16-1.79.53-3.6-1.44-4.81H30.44c-1.9,1.38-1.63,3.06-1.14,4.81Zm130,0v-3.44l-1.45-1.38h-5.37v4.82ZM53.34,124.16l-1.23,1.23v3.42h5.8v-4.65Zm84.82,4.66a17.9,17.9,0,0,0,5.84,0v-3.32l-1.48-1.38h-4.36Z" style="fill: #444"/>
    <path d="M98.41,24.09l2.11,3c-.37.52-2,1.19-1.39,3.4.53.92,2.52.68,2.89,2.38.09,1.38-1.57,1.54-1.76,2.45,4.63,8,10.73,14.56,19.58,18,2.5,1,5,2.09,7.22,1.66l6.21-3.19,1.59,1.52a2.9,2.9,0,0,1-.4.69c-3,3.12-7,4.68-10.73,6.65a7.67,7.67,0,0,1-3.35.31c-16,0-31.94,0-47.75,0L61,54.45C61,53,62,52.61,62.69,52c1.73-.25,2.18,1.6,3.62,2.14,3.59,1.33,6.64.69,9.93-.81C82.41,50.5,88,47.05,91.54,41c.49-.83,1.46-1.36,2.07-2.15,1.56-2,1.61-3.28.39-6,0-.15,0-.36.1-.45.93-1,1.87-1.89,2.82-2.84-1.07-.77-.55-2.5-1.27-2.73Zm13,30.71c-5.09-3.95-9.92-7.34-13.51-12.14C93.4,46.8,89.86,51.34,84.53,54.8Z" style="fill: #444"/>
    <path d="M108,69.9h2.87V63.23h6V69c.45,1.47,1.88.41,2,1.81H77.2c-.07-1.16.78-.68,1.54-.93.72-2-.11-4.36.46-6.72h5.54c.8,2-.16,4.33.42,6.51.75.67,1.61.09,2.73.52V63.37c1.44-.59,2.57-.34,4-.28v6.8h11.88V63.77c1.28-1.5,2.65-.27,4.19-1.17Z" style="fill: #444"/>
  </g>
</svg>
