<svg id="图层_1" data-name="图层 1" xmlns="http://www.w3.org/2000/svg" viewBox="0 0 200 200">
  <g>
    <path d="M86.17,93.94c-2.2-.16-3.7,1.37-5.39,2.33-7.36,4.18-14.65,8.47-22.59,13.09-1.75-5-1.64-9.51-.91-14.61l22.12-6c-7.13.07-13.88,2.47-21.26,3,.79-4.56,2.8-7.91,5.21-11.21,4.83-.56,9.62,1.22,14.39-.2-4-.47-8.2-.27-12.29-1.9,1-2.42,2.9-3.79,4.7-5.24,3.28-.64,6.06,1.59,9.34,1.58-1.61-2.17-4.44-1.68-6.49-3.46,1.51-2,3.8-2.89,5.75-4,1.79-.2,2.78,1.37,4.66,1.47.29-1.22-1.41-1.65-1.17-3A22,22,0,0,1,91.37,63c1.59,0,1.7,2,3.06,2.26,1-.89-.5-1.88.2-2.88,2.43-.65,4.94-1.48,7.64-.8,1.22,1.84.4,4,1.2,6.24.88-2.16.13-4.35,1.31-6.53,7.55.45,14.9,1.7,21.52,5.11.55,1.7-1.26,1.78-1.13,3,.83.52,1.76-.8,3.06.26.32,1.33,3.21,2.8.08,4.83.27,1,1.62.22,2,1.44-4.12,3.64-9.47,5.59-14.69,10.1,1.51-6.23-.53-9.72-5.22-11.66a15.71,15.71,0,0,0-15.69,1.57c-3.44,2.37-3.9,5.91-1.56,9.64.69,1.1,2,1.92.92,3.43Z" style="fill: #444"/>
    <path d="M56.66,78.36c-8.1,11.79-8,24.2-4.13,37.2-3,3.08-5.76,6.31-3,11-10.73.78-30.77-7.47-33.41-13.62.61-2.75,3-3.71,5.19-4.87a36.71,36.71,0,0,0,8-5.12c2.88-2.67,3.74-5.75,2.08-9.46-.8-1.78-2.05-3.51-1-6.54C37.78,81.65,48.26,83.28,56.66,78.36Z" style="fill: #444"/>
    <path d="M117.9,171.6c-7.77-4.25-14.56-8.8-17.21-17.61-.94-3.09-3.75-5-6.31-6.92A30.23,30.23,0,0,1,90,143.56a86.57,86.57,0,0,0,29.19-1.42,13.68,13.68,0,0,1,8.56,6.14c6.11,9.44,15,13.89,26,14.9-2.75,2.65-4.89,3.51-10.78,3.59C134.41,166.9,126.07,168.06,117.9,171.6Z" style="fill: #444"/>
    <path d="M143.94,78.7c-.48,3.45-1,6.91-1.54,11.12-17.1,10.13-34.52,20.47-52,30.77-.71.42-1.63.31-3-1.08L139.15,89a20.21,20.21,0,0,0,2.52-7.58c-2.07.15-3.41,1.39-4.85,2.28C119.38,94.45,101.85,105,84.6,116c-4.6,2.94-9.1,3.3-14.46,2l62.93-40.59c3.94-.25,7.24,2.3,11,1.4Z" style="fill: #444"/>
    <path d="M86.17,93.94l7.94-5c4.37-1,8.28,2,12.78,1.59-4.75,3.09-8.68,7.47-15.5,9-7,8.31-18.57,12.24-27.77,19.63-2.78-1.75-3.46-4.32-4.56-6.85,1.47-2,3.7-2.83,5.57-4.12C71.71,103.27,79.61,99.62,86.17,93.94Z" style="fill: #444"/>
    <path d="M119.54,106.25c2.72-3.34,7-4.27,10.06-6.86l3.64.73,1.6.82c3.07,3.58,8,4.45,11.37,7.71-.49,3.52-2.28,6.24-4.57,9.32l-10.94-7.15-.72.78c1.76,4,5,7.17,6.93,11.07-.44,2.11-2.12,2.93-3.87,4.11-3.52-3-4.54-8-8.11-10.93A56.2,56.2,0,0,1,119.54,106.25Z" style="fill: #444"/>
    <path d="M119.54,106.25a56.2,56.2,0,0,0,5.39,9.6c.77,4.56,4.5,7.68,5.94,12.29-3.88,3.73-8.9,5.23-14.43,7.32-2.67-8.3-4.23-16.34-5.92-24.54C113.65,109.14,116.14,106.88,119.54,106.25Z" style="fill: #444"/>
    <path d="M81.32,126.08c-18.17,10.34-34.56,22.83-55.61,26.43.07-1.17,1-1.8,1.79-2.49,7.37-6.72,14.16-14.06,22.82-19.35,4.91-3,10.12-3.8,15.48-4.59l.56,1-34,21,.5,1c5.7-2.29,11.5-4.39,16.87-7.48,8.51-4.91,16.94-9.95,25.41-14.93C76.82,125.75,78.44,124.47,81.32,126.08Z" style="fill: #444"/>
    <path d="M144.06,78.84c-1.68-4.49-6.33-3.65-10-5.5-2-3.21-4.15-6.73-6.69-10.85,6,.44,9.34,4.1,13.1,7.31,3.66-.08,7.48-1.74,11.6.64a42.77,42.77,0,0,0-5.45,2.26c-1.54.91-3.8,1.91-1.5,4.76,1.56-2.31,3.38-3.74,6.37-2.83-.1,3.13-2.26,4.16-4.78,4.91,2.95,2.26,2.95,2.26,9.06-3.47.24,4.4-2.6,7.22-4.65,10.65.64,4.59,3.1,9.3.77,14.64-3.06-3.22-4.74-7-6.87-10.41-.11-4.16,3.21-8.59-1.12-12.25Z" style="fill: #444"/>
    <path d="M113.33,135.46a7.47,7.47,0,0,1-6.51,1.1c-1.89-5.87-1.78-12.27-3.79-19.07-2.15,2.92-2.16,6-3.75,8.62-2.37-.76-3.54-2.76-5.89-4.46,4.93-4.23,10.2-6.47,15.48-9.83C110.77,120,112.21,127.63,113.33,135.46Z" style="fill: #444"/>
    <path d="M60.16,120c-8.37-11.77-9.24-24.27-2.35-36.87,7.35-13.44,19.4-20.67,34-23.83a54.83,54.83,0,0,1,29.52,1.66,13.37,13.37,0,0,1,1.86.69c.24.12.36.48.93,1.28-5.85-1.68-11.24-3.14-16.86-3.42-13.8-.68-26.4,2.68-37.36,11.24C52.78,84.12,50.6,104.55,59.78,118.65A4.76,4.76,0,0,1,60.16,120Z" style="fill: #444"/>
    <path d="M102.45,134.49c-1.39.63-2.17-.47-2.92-1.21-10-9.76-21.77-12-35-8.83-3.37.8-6.8,1.65-10.34,1.36a3.73,3.73,0,0,1-2.67-1.14c-.42-4.29,0-5.11,4.07-7.77,1.52,2.29-1.7,3.4-1.21,6,2.82,1,5.86.3,8.81-.37,7.55-1.71,15.08-2.34,22.69-.34a31.55,31.55,0,0,1,15.25,9,4.77,4.77,0,0,1,1.64,2.43C102.79,133.85,102.56,134.16,102.45,134.49Z" style="fill: #444"/>
    <path d="M154.61,91.11c3.48,0,6.6.14,9.7,0,7.47-.42,10.37-3.92,9.49-11.38-.31-2.63-.81-5.24-1.33-7.83-.31-1.58-.44-3,2-4,1.81,6.61,2.81,13.11,1.21,19.82a5.65,5.65,0,0,1-2.77,4,23.12,23.12,0,0,1-17.73,1C155,92.7,154.94,92.18,154.61,91.11Z" style="fill: #444"/>
    <path d="M134.84,100.94l-1.6-.82-.88-1.91A50.12,50.12,0,0,1,141.09,93c3.22,2,4.5,5.24,6.61,7.42.32,2.09.53,3.87-.88,5.72C142.46,105.33,139.2,101.76,134.84,100.94Z" style="fill: #444"/>
    <path d="M157.91,75.81c-.38-3.43-1.59-5.45-4-6.89a42,42,0,0,1,10.61-6.51c2.89.58,4.07,2.33,4.42,5.34C166.7,71.62,162.16,72.71,157.91,75.81Z" style="fill: #444"/>
    <path d="M172.3,66.42l-3.87-6.26c1.58-3.21,6.63-1.37,6.71-5.52,3.1-.77,5.64-.85,8.39.55-1,3.31-1,6.57-5.6,7.2C176,62.66,175.23,66,172.3,66.42Z" style="fill: #444"/>
    <path d="M76.74,131.21a40.9,40.9,0,0,1,8-4.94,11.21,11.21,0,0,1,4.87,2c.78,2.53-.79,4.64-1.49,7.19C84.05,135.17,80.7,133.53,76.74,131.21Z" style="fill: #444"/>
    <path d="M93.35,81.42c1.78-4.89,5.6-7.42,11-7.27s8.72,2.62,10.32,7.44c-1.82,4.92-5.59,7.42-11,7.27S94.94,86.23,93.35,81.42Zm19.62,0C110.33,74.9,101.34,73,96.61,78c-2,2.12-2.09,4.52-.21,6.7C101,90.1,110.52,88.2,113,81.43Z" style="fill: #444"/>
    <path d="M139.11,125.05c-3.73,7.64-20.87,15.7-31.2,14.75C119.36,137.11,130.22,133.18,139.11,125.05Z" style="fill: #444"/>
    <path d="M95.2,139.67c-6.1.9-14.54-1.71-20.23-6.26A107.44,107.44,0,0,0,95.2,139.67Z" style="fill: #444"/>
    <path d="M144.7,119.09c1.87-4.62,3.92-9.14,5.88-13.7A20.14,20.14,0,0,1,144.7,119.09Z" style="fill: #444"/>
    <path d="M92.51,129.87l4.2,4.42c-1.65,2.76-1.65,2.76-5.33,1.82C90.62,134.07,91.63,132.34,92.51,129.87Z" style="fill: #444"/>
  </g>
</svg>
