<svg id="图层_1" data-name="图层 1" xmlns="http://www.w3.org/2000/svg" viewBox="0 0 200 200">
  <g>
    <path d="M146.12,55.13c.41,3.91-.63,9.93-2.62,14.63-5.69.7-10.71,3.45-15.47,7.78-2.75,12.1-5.63,24.74-8.51,37.38l-1.44-.34c2.27-14.62,7.45-28.69,8.86-44.07l-27,6.4.27,1.21L122.81,73l.17.63-10.77,3.68-10.47,41.19c-2.49,2.86-6.4,2.75-8.6,5.4l.13-.12-6.67,2.07c3.94-14.59,7.75-28.64,11.46-42.36-1.49-2.87-3.82-2.47-5.91-2.45-2.35,0-4.23-.59-5.49-3.39q2.67-6.3,5.78-13.6l14.31-4c7-7.93,7.63-17.9,10.33-27.08l-.12.12c.81-1,1.6-2.1,0-3.14l.1.12-1.11-1.12.07.14c1.16-11.64,4.9-14.63,17.1-13,2.8,3.25,2.82,6.12-.06,12.54,6.16,5.22,13.9,9.9,10.61,19.59.65,2.85,2.63,4.55,2.57,7-1.19,0-1.34-2-2.91-1.5-.82,4-1.65,8-2.5,12.13-4.52.83-8.79,1.77-11.57,5.46l.52,1.36,13.09-5C144,63.41,145.05,59.27,146.12,55.13ZM140,49c2.91-.61,3.05-2.54,1.81-5.1l-1.71,5.2c-.43,0-.87-.08-.41.57Zm-19.78-22.8c3.89-1.94,7.69-2,11.78,1.66-2.21-5.08-7.75-5.33-11.69-1.56-.91-.21-1.69-.27-1.42,1.41ZM107.05,71c3.35-2.18,2.3-5.93,3.89-9.65L94.67,65.55a20.86,20.86,0,0,0-3.16,7.76c3.37-1.88,2.69-5.16,5.22-6.88,3.49-.94,7.31-2.45,11.52-2.8.66,2.83-1.21,5-1.12,7.43l-1.86.28C106.36,71.87,106.75,71.53,107.05,71Zm23.32-38.59c-2.14,6.69-5.26,13.31-2.81,20.65,6.67-1.12,11.79-4.47,12.4-8,.93-5.36-3.92-6.68-6.94-9.23-1.17-1-3.33-1.19-2.75-3.56-.08-.54.88-1.16-.32-1.82Zm4.69,30.93c4.32-2.54,2.92-6.32,3.86-10.08l-21.29,6.52c-.82,3.31-1.53,6.17-2.44,9.8L130.4,66c.66-2.09,1.44-3.73.58-5.75-2.85.64-5.7.93-8.46,2.56,2.5.88,4.64-1.44,7.78.39-4,2.71-8,2.9-11.87,3.59-.77-2.43.27-4.16,1-6.26,5-1.46,10.06-3.44,15.59-4.25ZM125,54l-.46-1.12L110,57.64l.31,1ZM97.12,72.26c1.19,1.64,2.77.46,4.29.34-.66-.67-2.17-.21-1.9-2.17.22-2.28,3.41-1.11,4.62-3.13C100.64,67.39,97.76,67.87,97.12,72.26Zm-.48,7c-2.14-1.63-4.42-1.8-7.53-.73C91.92,80.38,94.33,79.32,96.64,79.25Z" style="fill: #24292E"/>
    <path d="M91.88,89.88a5.55,5.55,0,0,1,3.26-2.82A48.81,48.81,0,0,1,91.7,99.87c-6.4,5-14,5.14-20.87,7.49-7.44,2.56-10.89,8.57-13.1,15.33-1.86,5.68,1.46,9.7,7.63,10,10.37.47,19.6-2.76,27.91-8.86l-.13.12c9.88-3.39,19.62-7.31,30.11-8.47a68.92,68.92,0,0,1,21.36.55c8.3,1.69,13.22,8,13.11,16.34-2-.18-3.81-2.52-5.92-.31-1.56,2.36,1.07,3.87,1.39,6.4-2.88,2.5-.11,8.31-5.59,10.55-1.4-4.51,4-6.28,3-10.8a9,9,0,0,1-2-6.76c-1.92-1.94-3.83-1.88-5.59-.53a4.16,4.16,0,0,0-1.47,4.92c1.37,3.88-.29,6.23-3.51,8.27-2.31,1.47-4.25,3.54-6.71,5.63a9.89,9.89,0,0,1,1.75-7.65L133,142c.47,1-.54,2.27.78,3.13l6.12-4.51c.44-10.36.57-10.91,3-12.07,2.77-1.33,5.12-.56,7.19,1.69,1.76-1.22,3.76-1.05,5.87-1.27-1.62-5.64-4.94-9.57-10.41-10.56-17.13-3.1-33.69-2.17-48.42,8.59l-2.36,1a.71.71,0,0,1-.07.16l.18-.22c.7-.4,1.85.1,2.16-1.08,1.91.34,3.55-.67,5.23-1.21a60.15,60.15,0,0,1,19.44-3.1c2.12,0,4.43-.23,5.31,2.49l.05-.1c-14.59-2.38-27.63,2.1-40,9.21-8.29,4.76-16.87,8.83-26.29,10.54-4.27.78-9.28,2.23-12.09-3.42-2.37.47-4.87,1.4-7.36-1.4-2.48-6.13-.33-11.83,4-16.9,7.47-8.74,17.61-14,26.72-20.53.93,1,0,1.43,0,2.41a57.88,57.88,0,0,0,13.78-3.45c5-2.1,6.76-5.17,6.44-11.25Z" style="fill: #24292E"/>
    <path d="M67.07,146.1c-4.48,4.29-10.37,6.57-15,10.54-2.23,1.88-5,3.62-3.58,7.91,9.33,1.92,18.7-3.69,27.7-1.22,1.69,1.66-.14,2.89.51,4.41a6.39,6.39,0,0,0,2,.95,32,32,0,0,0,17.07-2.51c6.73-2.86,13.39-5.9,20.09-8.85a44.26,44.26,0,0,1,22-3.47c-3.3.8-6.7,1.32-9.9,2.43-6.58,2.29-13.08,4.78-12.57,13.74.12,1.94-1.19,3.31-3.32,3.73-.69-1.54,1.76-2.61.19-4.38-4-.84-4.7,2.86-6.41,5.55H67c-.09-2.1,2.54-2.26,2.53-4.52-1.45-1.83-3.68-1.28-5.66-.82q-8,1.88-15.93,4.12c-4.68,1.32-9.32,1.93-14.11,0,3.44-1.16,7.16-1.12,11.34-2.8-3.58-1.1-7.19-.54-9.23-3.41,0-2.19,1.34-3.49,2.78-4.59a191.18,191.18,0,0,1,26.08-16.57,6.16,6.16,0,0,1,2.38-.16Z" style="fill: #24292E"/>
    <path d="M77.88,166.81c1.06-2.23,1.49-4.43-1-5.82,2.14-7.78,4.2-15.28,6.38-23.23l15.61-8.09c-3.23,13-6.13,24.61-9.06,36.37C85.87,167.39,82.25,169,77.88,166.81Z" style="fill: #24292E"/>
    <path d="M78.56,17.35a2.1,2.1,0,0,1,2.29.09c15.93,7.89,17,8.12,33.63,7.36,1.14,1.16-.35,3.37,1.53,4.28l-.07-.14,1.11,1.12-.1-.12v3.14l.12-.12q-24,3.87-38.45-15.68Z" style="fill: #24292E"/>
    <path d="M153.08,80.18a8.35,8.35,0,0,0-2.73,9.6c-1.85,4.25-5.21,6.13-8.93,7.24l-4.34-4.63c-3.29-.27-5.25,1.66-8.48,4,1.83-5.78,5.83-7.47,9.72-9.7,3.83,2.64,6.53,1.19,8.94-2.44,1.29-2,2.77-4.26,5.78-4Z" style="fill: #24292E"/>
    <path d="M108,157.63q3.61-15.7,7.24-31.42l1.74.4-7,31.52Z" style="fill: #24292E"/>
    <path d="M87.1,94.11c-2.47,3.33-6.25,4.7-10.22,5.85l10-6.07Z" style="fill: #24292E"/>
    <path d="M133,142.07a18.92,18.92,0,0,0-.34-12.79l.5-.44c2.82,4.44,2.7,8.81-.25,13.14Z" style="fill: #24292E"/>
    <path d="M132.7,129.28,127,125l-.05.1c3-.22,5.13.92,6.24,3.78Z" style="fill: #24292E"/>
    <path d="M86.9,93.89a7.08,7.08,0,0,1,3.84-3.15l.46.46a6.73,6.73,0,0,1-4.1,2.91Z" style="fill: #24292E"/>
    <path d="M153,80.27l.11-.31-.07.21A1,1,0,0,1,153,80.27Z" style="fill: #24292E"/>
    <path d="M90.74,90.74l1.14-.86.29.29c-.32.34-.65.68-1,1Z" style="fill: #24292E"/>
    <path d="M67.19,146.17,67,146s0,.1,0,.1Z" style="fill: #24292E"/>
    <path d="M78.63,17.28l.13-.37a3.15,3.15,0,0,1-.19.43Z" style="fill: #24292E"/>
  </g>
</svg>
