<svg xmlns="http://www.w3.org/2000/svg" width="90" height="81" viewBox="0 0 90 81" fill="none">
  <path d="M88.548 64.432L54.6258 5.52106C53.6433 3.8407 52.2379 2.44689 50.5495 1.47827C48.8611 0.509658 46.9485 0 45.0019 0C43.0554 0 41.1428 0.509658 39.4544 1.47827C37.766 2.44689 36.3606 3.8407 35.378 5.52106L1.45585 64.432C0.502465 66.0626 0 67.9175 0 69.8064C0 71.6953 0.502465 73.5502 1.45585 75.1808C2.42751 76.8695 3.83095 78.2694 5.52218 79.2367C7.21341 80.204 9.13153 80.7039 11.0797 80.6852H78.9241C80.871 80.7025 82.7876 80.2019 84.4773 79.2347C86.167 78.2675 87.5693 76.8684 88.5403 75.1808C89.4948 73.5509 89.9986 71.6964 90 69.8075C90.0014 67.9186 89.5002 66.0633 88.548 64.432ZM80.4796 70.5221C80.3219 70.7909 80.0944 71.0121 79.8213 71.1624C79.5482 71.3126 79.2395 71.3862 78.928 71.3755H11.0797C10.7682 71.3862 10.4596 71.3126 10.1865 71.1624C9.91336 71.0121 9.6859 70.7909 9.52813 70.5221C9.39432 70.3045 9.32347 70.0541 9.32347 69.7987C9.32347 69.5432 9.39432 69.2928 9.52813 69.0752L43.4503 10.1643C43.6183 9.90571 43.8482 9.69323 44.1192 9.54613C44.3902 9.39903 44.6936 9.32198 45.0019 9.32198C45.3103 9.32198 45.6137 9.39903 45.8847 9.54613C46.1557 9.69323 46.3856 9.90571 46.5536 10.1643L80.4719 69.0752C80.6069 69.2921 80.679 69.5421 80.6804 69.7976C80.6818 70.053 80.6123 70.3038 80.4796 70.5221ZM40.3471 44.998V32.5851C40.3471 31.3506 40.8375 30.1666 41.7105 29.2936C42.5834 28.4207 43.7674 27.9303 45.0019 27.9303C46.2365 27.9303 47.4205 28.4207 48.2934 29.2936C49.1664 30.1666 49.6568 31.3506 49.6568 32.5851V44.998C49.6568 46.2326 49.1664 47.4165 48.2934 48.2895C47.4205 49.1625 46.2365 49.6529 45.0019 49.6529C43.7674 49.6529 42.5834 49.1625 41.7105 48.2895C40.8375 47.4165 40.3471 46.2326 40.3471 44.998ZM51.2084 60.5142C51.2084 61.7417 50.8444 62.9417 50.1624 63.9623C49.4805 64.983 48.5111 65.7784 47.3771 66.2482C46.243 66.718 44.9951 66.8409 43.7911 66.6014C42.5872 66.3619 41.4813 65.7708 40.6133 64.9028C39.7453 64.0348 39.1542 62.9289 38.9147 61.725C38.6753 60.5211 38.7982 59.2732 39.2679 58.1391C39.7377 57.005 40.5332 56.0357 41.5538 55.3537C42.5745 54.6717 43.7744 54.3077 45.0019 54.3077C46.648 54.3077 48.2266 54.9616 49.3906 56.1256C50.5545 57.2895 51.2084 58.8681 51.2084 60.5142Z" fill="white" fill-opacity="0.4"/>
</svg>

